M48
; DRILL file {KiCad 6.0.4-6f826c9f35~116~ubuntu18.04.1} date Do 02 Jun 2022 08:07:44 CEST
; FORMAT={-:-/ absolute / metric / decimal}
; #@! TF.CreationDate,2022-06-02T08:07:44+02:00
; #@! TF.GenerationSoftware,Kicad,Pcbnew,6.0.4-6f826c9f35~116~ubuntu18.04.1
; #@! TF.FileFunction,MixedPlating,1,2
FMAT,2
METRIC
; #@! TA.AperFunction,Plated,PTH,ComponentDrill
T1C0.800
; #@! TA.AperFunction,Plated,PTH,ComponentDrill
T2C1.000
; #@! TA.AperFunction,Plated,PTH,ComponentDrill
T3C1.100
; #@! TA.AperFunction,Plated,PTH,ComponentDrill
T4C2.300
%
G90
G05
T1
X89.955Y-93.0
X92.455Y-93.0
X96.2Y-109.18
X96.2Y-116.8
X97.5Y-89.5
X98.74Y-109.18
X98.74Y-116.8
X101.28Y-109.18
X101.28Y-116.8
X102.5Y-89.5
X103.82Y-109.18
X103.82Y-116.8
X108.0Y-110.5
X108.0Y-115.5
X113.0Y-110.5
X113.0Y-113.0
T2
X96.2Y-122.975
X97.445Y-82.92
X97.445Y-85.46
X98.74Y-122.975
X99.985Y-82.92
X99.985Y-85.46
X101.28Y-122.975
X102.525Y-82.92
X102.525Y-85.46
X103.82Y-122.975
T3
X97.46Y-94.055
X97.46Y-103.945
X100.0Y-94.055
X100.0Y-103.945
X102.54Y-94.055
X102.54Y-103.945
T4
X82.25Y-99.0
X117.75Y-99.0
T0
M30
