M48
; DRILL file {KiCad 6.0.4-6f826c9f35~116~ubuntu18.04.1} date Mo 06 Jun 2022 14:38:57 CEST
; FORMAT={-:-/ absolute / metric / decimal}
; #@! TF.CreationDate,2022-06-06T14:38:57+02:00
; #@! TF.GenerationSoftware,Kicad,Pcbnew,6.0.4-6f826c9f35~116~ubuntu18.04.1
; #@! TF.FileFunction,MixedPlating,1,2
FMAT,2
METRIC
; #@! TA.AperFunction,Plated,PTH,ViaDrill
T1C0.600
; #@! TA.AperFunction,Plated,PTH,ComponentDrill
T2C0.750
; #@! TA.AperFunction,Plated,PTH,ComponentDrill
T3C0.762
; #@! TA.AperFunction,Plated,PTH,ComponentDrill
T4C0.800
; #@! TA.AperFunction,Plated,PTH,ComponentDrill
T5C1.000
; #@! TA.AperFunction,Plated,PTH,ComponentDrill
T6C1.100
; #@! TA.AperFunction,Plated,PTH,ComponentDrill
T7C1.300
; #@! TA.AperFunction,Plated,PTH,ComponentDrill
T8C1.400
; #@! TA.AperFunction,NonPlated,NPTH,ComponentDrill
T9C4.300
%
G90
G05
T1
X143.77Y-78.258
X147.58Y-75.464
X150.628Y-76.734
X151.644Y-73.94
X157.232Y-78.258
X157.25Y-76.734
X161.042Y-75.464
X168.916Y-75.21
X172.218Y-72.162
X181.362Y-75.21
X183.394Y-73.94
X186.95Y-72.162
X200.92Y-76.988
X204.73Y-72.924
X204.73Y-74.956
X208.54Y-82.068
X210.318Y-72.924
X211.08Y-70.892
X211.08Y-74.956
X211.08Y-76.988
X215.144Y-82.068
X221.24Y-70.892
X223.463Y-104.865
X223.526Y-115.85
X234.448Y-69.876
X234.448Y-100.356
X244.608Y-106.198
X244.608Y-115.85
T2
X155.27Y-65.05
X156.54Y-65.05
X157.81Y-65.05
T3
X151.46Y-147.365
X152.73Y-104.865
X152.73Y-107.405
X154.0Y-147.365
X155.27Y-104.865
X155.27Y-107.405
X156.54Y-147.365
X157.81Y-104.865
X157.81Y-107.405
X159.08Y-147.365
X162.13Y-160.655
X162.13Y-163.195
X162.13Y-221.615
X162.13Y-224.155
X164.67Y-160.655
X164.67Y-163.195
X164.67Y-221.615
X164.67Y-224.155
X167.21Y-160.655
X167.21Y-163.195
X167.21Y-221.615
X167.21Y-224.155
X169.75Y-160.655
X169.75Y-163.195
X169.75Y-221.615
X169.75Y-224.155
X172.29Y-160.655
X172.29Y-163.195
X172.29Y-221.615
X172.29Y-224.155
X174.83Y-160.655
X174.83Y-163.195
X174.83Y-221.615
X174.83Y-224.155
X177.37Y-160.655
X177.37Y-163.195
X177.37Y-221.615
X177.37Y-224.155
X179.91Y-160.655
X179.91Y-163.195
X179.91Y-221.615
X179.91Y-224.155
X182.45Y-160.655
X182.45Y-163.195
X182.45Y-221.615
X182.45Y-224.155
X184.99Y-160.655
X184.99Y-163.195
X184.99Y-221.615
X184.99Y-224.155
X187.53Y-160.655
X187.53Y-163.195
X187.53Y-221.615
X187.53Y-224.155
X190.07Y-160.655
X190.07Y-163.195
X190.07Y-221.615
X190.07Y-224.155
X192.61Y-160.655
X192.61Y-163.195
X192.61Y-221.615
X192.61Y-224.155
X195.15Y-160.655
X195.15Y-163.195
X195.15Y-221.615
X195.15Y-224.155
X197.69Y-160.655
X197.69Y-163.195
X197.69Y-221.615
X197.69Y-224.155
X200.23Y-160.655
X200.23Y-163.195
X200.23Y-221.615
X200.23Y-224.155
X202.77Y-160.655
X202.77Y-163.195
X202.77Y-221.615
X202.77Y-224.155
X205.31Y-160.655
X205.31Y-163.195
X205.31Y-221.615
X205.31Y-224.155
X207.85Y-160.655
X207.85Y-163.195
X207.85Y-221.615
X207.85Y-224.155
X211.46Y-147.365
X212.73Y-104.865
X212.73Y-107.405
X214.0Y-147.365
X215.27Y-104.865
X215.27Y-107.405
X216.54Y-147.365
X217.81Y-104.865
X217.81Y-107.405
X219.08Y-147.365
X271.46Y-147.365
X272.73Y-104.865
X272.73Y-107.405
X274.0Y-147.365
X275.27Y-104.865
X275.27Y-107.405
X276.54Y-147.365
X277.81Y-104.865
X277.81Y-107.405
X279.08Y-147.365
T4
X143.78Y-86.65
X143.78Y-89.19
X143.78Y-91.73
X143.78Y-94.27
X151.4Y-86.65
X151.4Y-89.19
X151.4Y-91.73
X151.4Y-94.27
X162.412Y-77.945
X164.317Y-77.945
X166.222Y-77.945
X168.127Y-77.945
X179.33Y-79.782
X179.33Y-82.322
X179.33Y-84.862
X179.33Y-87.402
X179.33Y-89.942
X179.33Y-92.482
X179.33Y-95.022
X186.95Y-79.782
X186.95Y-82.322
X186.95Y-84.862
X186.95Y-87.402
X186.95Y-89.942
X186.95Y-92.482
X186.95Y-95.022
X200.93Y-86.65
X200.93Y-89.19
X200.93Y-91.73
X200.93Y-94.27
X208.55Y-86.65
X208.55Y-89.19
X208.55Y-91.73
X208.55Y-94.27
X217.435Y-157.75
X217.435Y-165.37
X219.975Y-157.75
X219.975Y-165.37
X222.412Y-77.945
X222.515Y-157.75
X222.515Y-165.37
X224.317Y-77.945
X225.055Y-157.75
X225.055Y-165.37
X226.222Y-77.945
X227.595Y-157.75
X227.595Y-165.37
X228.127Y-77.945
X230.135Y-157.75
X230.135Y-165.37
X232.675Y-157.75
X232.675Y-165.37
X235.215Y-157.75
X235.215Y-165.37
X237.755Y-157.75
X237.755Y-165.37
X240.295Y-157.75
X240.295Y-165.37
X263.16Y-86.65
X263.16Y-89.19
X263.16Y-91.73
X263.16Y-94.27
X270.78Y-86.65
X270.78Y-89.19
X270.78Y-91.73
X270.78Y-94.27
X282.412Y-77.945
X284.317Y-77.945
X286.222Y-77.945
X288.127Y-77.945
T5
X162.77Y-62.19
X162.77Y-64.73
X162.77Y-67.27
X168.02Y-61.52
X168.02Y-68.02
X172.52Y-61.52
X172.52Y-68.02
T6
X135.825Y-72.67
X135.825Y-75.21
X135.825Y-77.75
T7
X158.92Y-85.565
X158.92Y-88.105
X158.92Y-90.645
X158.92Y-93.185
X158.92Y-95.725
X171.62Y-85.565
X171.62Y-88.105
X171.62Y-90.645
X171.62Y-93.185
X171.62Y-95.725
X180.27Y-62.52
X185.27Y-62.52
X190.27Y-62.52
X218.92Y-85.565
X218.92Y-88.105
X218.92Y-90.645
X218.92Y-93.185
X218.92Y-95.725
X231.62Y-85.565
X231.62Y-88.105
X231.62Y-90.645
X231.62Y-93.185
X231.62Y-95.725
X278.92Y-85.565
X278.92Y-88.105
X278.92Y-90.645
X278.92Y-93.185
X278.92Y-95.725
X291.62Y-85.565
X291.62Y-88.105
X291.62Y-90.645
X291.62Y-93.185
X291.62Y-95.725
T8
X202.77Y-66.32
X207.85Y-66.32
X212.93Y-66.32
X218.01Y-66.32
X223.09Y-66.32
X228.17Y-66.32
T9
X135.27Y-61.27
X135.27Y-222.27
X296.27Y-61.27
X296.27Y-222.27
T0
M30
