%TF.GenerationSoftware,KiCad,Pcbnew,6.0.4-6f826c9f35~116~ubuntu18.04.1*%
%TF.CreationDate,2022-06-08T19:07:08+02:00*%
%TF.ProjectId,motor_driver_v3,6d6f746f-725f-4647-9269-7665725f7633,rev?*%
%TF.SameCoordinates,Original*%
%TF.FileFunction,Copper,L2,Bot*%
%TF.FilePolarity,Positive*%
%FSLAX46Y46*%
G04 Gerber Fmt 4.6, Leading zero omitted, Abs format (unit mm)*
G04 Created by KiCad (PCBNEW 6.0.4-6f826c9f35~116~ubuntu18.04.1) date 2022-06-08 19:07:08*
%MOMM*%
%LPD*%
G01*
G04 APERTURE LIST*
G04 Aperture macros list*
%AMRoundRect*
0 Rectangle with rounded corners*
0 $1 Rounding radius*
0 $2 $3 $4 $5 $6 $7 $8 $9 X,Y pos of 4 corners*
0 Add a 4 corners polygon primitive as box body*
4,1,4,$2,$3,$4,$5,$6,$7,$8,$9,$2,$3,0*
0 Add four circle primitives for the rounded corners*
1,1,$1+$1,$2,$3*
1,1,$1+$1,$4,$5*
1,1,$1+$1,$6,$7*
1,1,$1+$1,$8,$9*
0 Add four rect primitives between the rounded corners*
20,1,$1+$1,$2,$3,$4,$5,0*
20,1,$1+$1,$4,$5,$6,$7,0*
20,1,$1+$1,$6,$7,$8,$9,0*
20,1,$1+$1,$8,$9,$2,$3,0*%
G04 Aperture macros list end*
%TA.AperFunction,ComponentPad*%
%ADD10R,1.905000X2.000000*%
%TD*%
%TA.AperFunction,ComponentPad*%
%ADD11O,1.905000X2.000000*%
%TD*%
%TA.AperFunction,ComponentPad*%
%ADD12C,1.600000*%
%TD*%
%TA.AperFunction,ComponentPad*%
%ADD13R,1.600000X2.400000*%
%TD*%
%TA.AperFunction,ComponentPad*%
%ADD14O,1.600000X2.400000*%
%TD*%
%TA.AperFunction,ComponentPad*%
%ADD15C,4.000000*%
%TD*%
%TA.AperFunction,ComponentPad*%
%ADD16R,1.600000X1.600000*%
%TD*%
%TA.AperFunction,SMDPad,CuDef*%
%ADD17R,2.700000X1.500000*%
%TD*%
%TA.AperFunction,SMDPad,CuDef*%
%ADD18R,2.300000X3.500000*%
%TD*%
%TA.AperFunction,ComponentPad*%
%ADD19R,1.700000X1.700000*%
%TD*%
%TA.AperFunction,ComponentPad*%
%ADD20O,1.700000X1.700000*%
%TD*%
%TA.AperFunction,SMDPad,CuDef*%
%ADD21RoundRect,0.250000X0.625000X-0.400000X0.625000X0.400000X-0.625000X0.400000X-0.625000X-0.400000X0*%
%TD*%
%TA.AperFunction,SMDPad,CuDef*%
%ADD22RoundRect,0.250000X0.412500X0.650000X-0.412500X0.650000X-0.412500X-0.650000X0.412500X-0.650000X0*%
%TD*%
%TA.AperFunction,Conductor*%
%ADD23C,0.400000*%
%TD*%
%TA.AperFunction,Conductor*%
%ADD24C,1.000000*%
%TD*%
G04 APERTURE END LIST*
D10*
%TO.P,Q1,1,G*%
%TO.N,Net-(Q1-Pad1)*%
X97460000Y-103945000D03*
D11*
%TO.P,Q1,2,D*%
%TO.N,+24V*%
X100000000Y-103945000D03*
%TO.P,Q1,3,S*%
%TO.N,/out*%
X102540000Y-103945000D03*
%TD*%
D12*
%TO.P,C2,1*%
%TO.N,VCC*%
X108000000Y-115500000D03*
%TO.P,C2,2*%
%TO.N,GND*%
X108000000Y-110500000D03*
%TD*%
D10*
%TO.P,Q2,1,G*%
%TO.N,Net-(Q2-Pad1)*%
X102540000Y-94055000D03*
D11*
%TO.P,Q2,2,D*%
%TO.N,/out*%
X100000000Y-94055000D03*
%TO.P,Q2,3,S*%
%TO.N,GND*%
X97460000Y-94055000D03*
%TD*%
D13*
%TO.P,U1,1,LIN*%
%TO.N,/lin1*%
X96200000Y-116800000D03*
D14*
%TO.P,U1,2,HIN*%
%TO.N,/hin1*%
X98740000Y-116800000D03*
%TO.P,U1,3,Vcc*%
%TO.N,VCC*%
X101280000Y-116800000D03*
%TO.P,U1,4,GND*%
%TO.N,GND*%
X103820000Y-116800000D03*
%TO.P,U1,5,LVG*%
%TO.N,/Vgls1*%
X103820000Y-109180000D03*
%TO.P,U1,6,OUT*%
%TO.N,/out*%
X101280000Y-109180000D03*
%TO.P,U1,7,HVG*%
%TO.N,/Vghs1*%
X98740000Y-109180000D03*
%TO.P,U1,8,Vboot*%
%TO.N,Net-(C3-Pad2)*%
X96200000Y-109180000D03*
%TD*%
D15*
%TO.P,HS1,1*%
%TO.N,GND*%
X82250000Y-99000000D03*
X117750000Y-99000000D03*
%TD*%
D16*
%TO.P,C4,1*%
%TO.N,+24V*%
X92455113Y-93000000D03*
D12*
%TO.P,C4,2*%
%TO.N,GND*%
X89955113Y-93000000D03*
%TD*%
D16*
%TO.P,C1,1*%
%TO.N,VCC*%
X113000000Y-113000000D03*
D12*
%TO.P,C1,2*%
%TO.N,GND*%
X113000000Y-110500000D03*
%TD*%
%TO.P,C5,1*%
%TO.N,+24V*%
X102500000Y-89500000D03*
%TO.P,C5,2*%
%TO.N,GND*%
X97500000Y-89500000D03*
%TD*%
D17*
%TO.P,D3,1,K*%
%TO.N,/Vgls1*%
X110500000Y-106900000D03*
%TO.P,D3,2,A*%
%TO.N,Net-(Q2-Pad1)*%
X110500000Y-102100000D03*
%TD*%
%TO.P,D2,1,K*%
%TO.N,/Vghs1*%
X89500000Y-106900000D03*
%TO.P,D2,2,A*%
%TO.N,Net-(Q1-Pad1)*%
X89500000Y-102100000D03*
%TD*%
D18*
%TO.P,D1,1,K*%
%TO.N,Net-(C3-Pad2)*%
X91000000Y-110300000D03*
%TO.P,D1,2,A*%
%TO.N,VCC*%
X91000000Y-115700000D03*
%TD*%
D19*
%TO.P,P2,1,P1*%
%TO.N,/lin1*%
X96200000Y-124460000D03*
D20*
%TO.P,P2,2,P2*%
%TO.N,/hin1*%
X98740000Y-124460000D03*
%TO.P,P2,3,P3*%
%TO.N,VCC*%
X101280000Y-124460000D03*
%TO.P,P2,4,P4*%
%TO.N,GND*%
X103820000Y-124460000D03*
%TD*%
D21*
%TO.P,R2,1*%
%TO.N,/lin1*%
X92500000Y-123050000D03*
%TO.P,R2,2*%
%TO.N,GND*%
X92500000Y-119950000D03*
%TD*%
%TO.P,R4,1*%
%TO.N,/Vgls1*%
X107000000Y-105550000D03*
%TO.P,R4,2*%
%TO.N,Net-(Q2-Pad1)*%
X107000000Y-102450000D03*
%TD*%
%TO.P,R1,1*%
%TO.N,/hin1*%
X89500000Y-123050000D03*
%TO.P,R1,2*%
%TO.N,GND*%
X89500000Y-119950000D03*
%TD*%
D19*
%TO.P,P1,1,1*%
%TO.N,+24V*%
X102525000Y-82920000D03*
D20*
%TO.P,P1,2,2*%
X102525000Y-85460000D03*
%TO.P,P1,3,3*%
%TO.N,/out*%
X99985000Y-82920000D03*
%TO.P,P1,4,4*%
X99985000Y-85460000D03*
%TO.P,P1,5,5*%
%TO.N,GND*%
X97445000Y-82920000D03*
%TO.P,P1,6,6*%
X97445000Y-85460000D03*
%TD*%
D21*
%TO.P,R3,1*%
%TO.N,/Vghs1*%
X93000000Y-105550000D03*
%TO.P,R3,2*%
%TO.N,Net-(Q1-Pad1)*%
X93000000Y-102450000D03*
%TD*%
D22*
%TO.P,C3,1*%
%TO.N,/out*%
X101562500Y-112000000D03*
%TO.P,C3,2*%
%TO.N,Net-(C3-Pad2)*%
X98437500Y-112000000D03*
%TD*%
D23*
%TO.N,VCC*%
X101280000Y-125664000D02*
X101981000Y-126365000D01*
X101280000Y-124460000D02*
X101280000Y-125664000D01*
X107315000Y-126365000D02*
X108000000Y-125680000D01*
X101981000Y-126365000D02*
X107315000Y-126365000D01*
X108000000Y-125680000D02*
X108000000Y-115500000D01*
%TO.N,/hin1*%
X89500000Y-125695000D02*
X90170000Y-126365000D01*
X90170000Y-126365000D02*
X98044000Y-126365000D01*
X89500000Y-123050000D02*
X89500000Y-125695000D01*
X98044000Y-126365000D02*
X98740000Y-125669000D01*
X98740000Y-125669000D02*
X98740000Y-124460000D01*
%TO.N,/lin1*%
X92500000Y-123050000D02*
X93910000Y-124460000D01*
X93910000Y-124460000D02*
X96200000Y-124460000D01*
%TO.N,GND*%
X103820000Y-116800000D02*
X103820000Y-124460000D01*
%TO.N,/hin1*%
X98740000Y-124460000D02*
X98740000Y-116800000D01*
%TO.N,/lin1*%
X96200000Y-116800000D02*
X96200000Y-124460000D01*
X96200000Y-123125000D02*
X96200000Y-124460000D01*
%TO.N,VCC*%
X101280000Y-116800000D02*
X101280000Y-124460000D01*
X91150000Y-115700000D02*
X91000000Y-115700000D01*
X100000000Y-113500000D02*
X93350000Y-113500000D01*
X101280000Y-116800000D02*
X101280000Y-114780000D01*
X93350000Y-113500000D02*
X91150000Y-115700000D01*
X101280000Y-114780000D02*
X100000000Y-113500000D01*
X108000000Y-115500000D02*
X110500000Y-115500000D01*
X110500000Y-115500000D02*
X113000000Y-113000000D01*
%TO.N,GND*%
X88250000Y-93000000D02*
X89955113Y-93000000D01*
X97445000Y-82920000D02*
X98694511Y-81670489D01*
X108000000Y-110500000D02*
X108000000Y-112620000D01*
X117750000Y-99000000D02*
X117750000Y-105750000D01*
X89500000Y-119950000D02*
X92500000Y-119950000D01*
X117750000Y-105750000D02*
X113000000Y-110500000D01*
X101500000Y-91500000D02*
X104000000Y-91500000D01*
X108000000Y-112620000D02*
X103820000Y-116800000D01*
X113000000Y-110500000D02*
X108000000Y-110500000D01*
D24*
X97445000Y-82920000D02*
X97445000Y-94040000D01*
D23*
X101234511Y-82402435D02*
X101234511Y-91234511D01*
X82250000Y-99000000D02*
X88250000Y-93000000D01*
X100502565Y-81670489D02*
X101234511Y-82402435D01*
X97445000Y-94040000D02*
X97460000Y-94055000D01*
X98694511Y-81670489D02*
X100502565Y-81670489D01*
X101234511Y-91234511D02*
X101500000Y-91500000D01*
D24*
%TO.N,/out*%
X100015000Y-83210000D02*
X100015000Y-94040000D01*
D23*
X101562500Y-109462500D02*
X101280000Y-109180000D01*
X101562500Y-112000000D02*
X101562500Y-109462500D01*
X102500000Y-107960000D02*
X102500000Y-103985000D01*
X101280000Y-109180000D02*
X102500000Y-107960000D01*
X102500000Y-103985000D02*
X102540000Y-103945000D01*
D24*
X100000000Y-94866522D02*
X102500000Y-97366522D01*
X102500000Y-103905000D02*
X102540000Y-103945000D01*
X100015000Y-94040000D02*
X100000000Y-94055000D01*
X100000000Y-94055000D02*
X100000000Y-94866522D01*
X102500000Y-97366522D02*
X102500000Y-103905000D01*
%TO.N,+24V*%
X102525000Y-89475000D02*
X102500000Y-89500000D01*
X96000000Y-80000000D02*
X101500000Y-80000000D01*
X94750000Y-95000000D02*
X94750000Y-94000000D01*
X94000000Y-93000000D02*
X94750000Y-93750000D01*
X94750000Y-93250000D02*
X94750000Y-92000000D01*
X94750000Y-93750000D02*
X94750000Y-94000000D01*
X94750000Y-94000000D02*
X94750000Y-93250000D01*
X101500000Y-80000000D02*
X102525000Y-81025000D01*
X94000000Y-93000000D02*
X94500000Y-93000000D01*
X94500000Y-93000000D02*
X94750000Y-93250000D01*
X100000000Y-103945000D02*
X100000000Y-100250000D01*
X94750000Y-81250000D02*
X96000000Y-80000000D01*
X102525000Y-82920000D02*
X102525000Y-89475000D01*
X94750000Y-92000000D02*
X94750000Y-81250000D01*
X102525000Y-81025000D02*
X102525000Y-82920000D01*
X94000000Y-93000000D02*
X94750000Y-92250000D01*
X94750000Y-92250000D02*
X94750000Y-92000000D01*
X92455113Y-93000000D02*
X94000000Y-93000000D01*
X100000000Y-100250000D02*
X94750000Y-95000000D01*
D23*
%TO.N,Net-(C3-Pad2)*%
X96200000Y-109762500D02*
X96200000Y-109180000D01*
X98437500Y-112000000D02*
X96200000Y-109762500D01*
X94620000Y-109180000D02*
X93500000Y-110300000D01*
X91000000Y-110300000D02*
X93500000Y-110300000D01*
X96200000Y-109180000D02*
X94620000Y-109180000D01*
%TO.N,/Vghs1*%
X93000000Y-105550000D02*
X95110000Y-105550000D01*
X95110000Y-105550000D02*
X98740000Y-109180000D01*
X93000000Y-105550000D02*
X91650000Y-106900000D01*
X91650000Y-106900000D02*
X89500000Y-106900000D01*
%TO.N,/Vgls1*%
X110000000Y-105500000D02*
X107050000Y-105500000D01*
X110500000Y-106000000D02*
X110000000Y-105500000D01*
X110500000Y-106900000D02*
X110500000Y-106000000D01*
X103820000Y-109180000D02*
X105820000Y-109180000D01*
X105820000Y-109180000D02*
X107000000Y-108000000D01*
X107000000Y-108000000D02*
X107000000Y-105550000D01*
X107050000Y-105500000D02*
X107000000Y-105550000D01*
%TO.N,Net-(Q1-Pad1)*%
X93000000Y-102450000D02*
X95450000Y-102450000D01*
X96945000Y-103945000D02*
X97460000Y-103945000D01*
X89500000Y-102100000D02*
X89900000Y-102500000D01*
X89900000Y-102500000D02*
X92950000Y-102500000D01*
X92950000Y-102500000D02*
X93000000Y-102450000D01*
X95450000Y-102450000D02*
X96945000Y-103945000D01*
%TO.N,Net-(Q2-Pad1)*%
X110500000Y-102100000D02*
X110100000Y-102500000D01*
X110100000Y-102500000D02*
X107050000Y-102500000D01*
X107000000Y-98515000D02*
X107000000Y-102450000D01*
X107050000Y-102500000D02*
X107000000Y-102450000D01*
X102540000Y-94055000D02*
X107000000Y-98515000D01*
%TD*%
%TA.AperFunction,Conductor*%
%TO.N,GND*%
G36*
X124433621Y-78278502D02*
G01*
X124480114Y-78332158D01*
X124491500Y-78384500D01*
X124491500Y-127365500D01*
X124471498Y-127433621D01*
X124417842Y-127480114D01*
X124365500Y-127491500D01*
X75634500Y-127491500D01*
X75566379Y-127471498D01*
X75519886Y-127417842D01*
X75508500Y-127365500D01*
X75508500Y-120397095D01*
X88117001Y-120397095D01*
X88117338Y-120403614D01*
X88127257Y-120499206D01*
X88130149Y-120512600D01*
X88181588Y-120666784D01*
X88187761Y-120679962D01*
X88273063Y-120817807D01*
X88282099Y-120829208D01*
X88396829Y-120943739D01*
X88408240Y-120952751D01*
X88546243Y-121037816D01*
X88559424Y-121043963D01*
X88713710Y-121095138D01*
X88727086Y-121098005D01*
X88821438Y-121107672D01*
X88827854Y-121108000D01*
X89227885Y-121108000D01*
X89243124Y-121103525D01*
X89244329Y-121102135D01*
X89246000Y-121094452D01*
X89246000Y-121089884D01*
X89754000Y-121089884D01*
X89758475Y-121105123D01*
X89759865Y-121106328D01*
X89767548Y-121107999D01*
X90172095Y-121107999D01*
X90178614Y-121107662D01*
X90274206Y-121097743D01*
X90287600Y-121094851D01*
X90441784Y-121043412D01*
X90454962Y-121037239D01*
X90592807Y-120951937D01*
X90604208Y-120942901D01*
X90718739Y-120828171D01*
X90727751Y-120816760D01*
X90812816Y-120678757D01*
X90818963Y-120665576D01*
X90870138Y-120511290D01*
X90873005Y-120497914D01*
X90874709Y-120481284D01*
X90901549Y-120415557D01*
X90959664Y-120374774D01*
X91030601Y-120371884D01*
X91091840Y-120407805D01*
X91123937Y-120471132D01*
X91125380Y-120481120D01*
X91127257Y-120499207D01*
X91130149Y-120512600D01*
X91181588Y-120666784D01*
X91187761Y-120679962D01*
X91273063Y-120817807D01*
X91282099Y-120829208D01*
X91396829Y-120943739D01*
X91408240Y-120952751D01*
X91546243Y-121037816D01*
X91559424Y-121043963D01*
X91713710Y-121095138D01*
X91727086Y-121098005D01*
X91821438Y-121107672D01*
X91827854Y-121108000D01*
X92227885Y-121108000D01*
X92243124Y-121103525D01*
X92244329Y-121102135D01*
X92246000Y-121094452D01*
X92246000Y-121089884D01*
X92754000Y-121089884D01*
X92758475Y-121105123D01*
X92759865Y-121106328D01*
X92767548Y-121107999D01*
X93172095Y-121107999D01*
X93178614Y-121107662D01*
X93274206Y-121097743D01*
X93287600Y-121094851D01*
X93441784Y-121043412D01*
X93454962Y-121037239D01*
X93592807Y-120951937D01*
X93604208Y-120942901D01*
X93718739Y-120828171D01*
X93727751Y-120816760D01*
X93812816Y-120678757D01*
X93818963Y-120665576D01*
X93870138Y-120511290D01*
X93873005Y-120497914D01*
X93882672Y-120403562D01*
X93883000Y-120397146D01*
X93883000Y-120222115D01*
X93878525Y-120206876D01*
X93877135Y-120205671D01*
X93869452Y-120204000D01*
X92772115Y-120204000D01*
X92756876Y-120208475D01*
X92755671Y-120209865D01*
X92754000Y-120217548D01*
X92754000Y-121089884D01*
X92246000Y-121089884D01*
X92246000Y-119677885D01*
X92754000Y-119677885D01*
X92758475Y-119693124D01*
X92759865Y-119694329D01*
X92767548Y-119696000D01*
X93864884Y-119696000D01*
X93880123Y-119691525D01*
X93881328Y-119690135D01*
X93882999Y-119682452D01*
X93882999Y-119502905D01*
X93882662Y-119496386D01*
X93872743Y-119400794D01*
X93869851Y-119387400D01*
X93818412Y-119233216D01*
X93812239Y-119220038D01*
X93726937Y-119082193D01*
X93717901Y-119070792D01*
X93603171Y-118956261D01*
X93591760Y-118947249D01*
X93453757Y-118862184D01*
X93440576Y-118856037D01*
X93286290Y-118804862D01*
X93272914Y-118801995D01*
X93178562Y-118792328D01*
X93172145Y-118792000D01*
X92772115Y-118792000D01*
X92756876Y-118796475D01*
X92755671Y-118797865D01*
X92754000Y-118805548D01*
X92754000Y-119677885D01*
X92246000Y-119677885D01*
X92246000Y-118810116D01*
X92241525Y-118794877D01*
X92240135Y-118793672D01*
X92232452Y-118792001D01*
X91827905Y-118792001D01*
X91821386Y-118792338D01*
X91725794Y-118802257D01*
X91712400Y-118805149D01*
X91558216Y-118856588D01*
X91545038Y-118862761D01*
X91407193Y-118948063D01*
X91395792Y-118957099D01*
X91281261Y-119071829D01*
X91272249Y-119083240D01*
X91187184Y-119221243D01*
X91181037Y-119234424D01*
X91129862Y-119388710D01*
X91126995Y-119402086D01*
X91125291Y-119418716D01*
X91098451Y-119484443D01*
X91040336Y-119525226D01*
X90969399Y-119528116D01*
X90908160Y-119492195D01*
X90876063Y-119428868D01*
X90874620Y-119418880D01*
X90872743Y-119400793D01*
X90869851Y-119387400D01*
X90818412Y-119233216D01*
X90812239Y-119220038D01*
X90726937Y-119082193D01*
X90717901Y-119070792D01*
X90603171Y-118956261D01*
X90591760Y-118947249D01*
X90453757Y-118862184D01*
X90440576Y-118856037D01*
X90286290Y-118804862D01*
X90272914Y-118801995D01*
X90178562Y-118792328D01*
X90172145Y-118792000D01*
X89772115Y-118792000D01*
X89756876Y-118796475D01*
X89755671Y-118797865D01*
X89754000Y-118805548D01*
X89754000Y-121089884D01*
X89246000Y-121089884D01*
X89246000Y-120222115D01*
X89241525Y-120206876D01*
X89240135Y-120205671D01*
X89232452Y-120204000D01*
X88135116Y-120204000D01*
X88119877Y-120208475D01*
X88118672Y-120209865D01*
X88117001Y-120217548D01*
X88117001Y-120397095D01*
X75508500Y-120397095D01*
X75508500Y-119677885D01*
X88117000Y-119677885D01*
X88121475Y-119693124D01*
X88122865Y-119694329D01*
X88130548Y-119696000D01*
X89227885Y-119696000D01*
X89243124Y-119691525D01*
X89244329Y-119690135D01*
X89246000Y-119682452D01*
X89246000Y-118810116D01*
X89241525Y-118794877D01*
X89240135Y-118793672D01*
X89232452Y-118792001D01*
X88827905Y-118792001D01*
X88821386Y-118792338D01*
X88725794Y-118802257D01*
X88712400Y-118805149D01*
X88558216Y-118856588D01*
X88545038Y-118862761D01*
X88407193Y-118948063D01*
X88395792Y-118957099D01*
X88281261Y-119071829D01*
X88272249Y-119083240D01*
X88187184Y-119221243D01*
X88181037Y-119234424D01*
X88129862Y-119388710D01*
X88126995Y-119402086D01*
X88117328Y-119496438D01*
X88117000Y-119502855D01*
X88117000Y-119677885D01*
X75508500Y-119677885D01*
X75508500Y-107698134D01*
X87641500Y-107698134D01*
X87648255Y-107760316D01*
X87699385Y-107896705D01*
X87786739Y-108013261D01*
X87903295Y-108100615D01*
X88039684Y-108151745D01*
X88101866Y-108158500D01*
X89271868Y-108158500D01*
X89339989Y-108178502D01*
X89386482Y-108232158D01*
X89396586Y-108302432D01*
X89389850Y-108328729D01*
X89348255Y-108439684D01*
X89341500Y-108501866D01*
X89341500Y-112098134D01*
X89348255Y-112160316D01*
X89399385Y-112296705D01*
X89486739Y-112413261D01*
X89603295Y-112500615D01*
X89739684Y-112551745D01*
X89801866Y-112558500D01*
X92198134Y-112558500D01*
X92260316Y-112551745D01*
X92396705Y-112500615D01*
X92513261Y-112413261D01*
X92600615Y-112296705D01*
X92651745Y-112160316D01*
X92658500Y-112098134D01*
X92658500Y-111134500D01*
X92678502Y-111066379D01*
X92732158Y-111019886D01*
X92784500Y-111008500D01*
X93471088Y-111008500D01*
X93479658Y-111008792D01*
X93529776Y-111012209D01*
X93529780Y-111012209D01*
X93537352Y-111012725D01*
X93544829Y-111011420D01*
X93544830Y-111011420D01*
X93571308Y-111006799D01*
X93600303Y-111001738D01*
X93606821Y-111000777D01*
X93670242Y-110993102D01*
X93677343Y-110990419D01*
X93679952Y-110989778D01*
X93696262Y-110985315D01*
X93698798Y-110984550D01*
X93706284Y-110983243D01*
X93764800Y-110957556D01*
X93770904Y-110955065D01*
X93773583Y-110954053D01*
X93830656Y-110932487D01*
X93836919Y-110928183D01*
X93839285Y-110926946D01*
X93854097Y-110918701D01*
X93856351Y-110917368D01*
X93863305Y-110914315D01*
X93914002Y-110875413D01*
X93919332Y-110871541D01*
X93965720Y-110839661D01*
X93965725Y-110839656D01*
X93971981Y-110835357D01*
X93990757Y-110814284D01*
X94013427Y-110788839D01*
X94018408Y-110783562D01*
X94777102Y-110024869D01*
X94839414Y-109990844D01*
X94910230Y-109995909D01*
X94967065Y-110038456D01*
X94980392Y-110060716D01*
X95060149Y-110231758D01*
X95060153Y-110231764D01*
X95062477Y-110236749D01*
X95193802Y-110424300D01*
X95355700Y-110586198D01*
X95360208Y-110589355D01*
X95360211Y-110589357D01*
X95411893Y-110625545D01*
X95543251Y-110717523D01*
X95548233Y-110719846D01*
X95548238Y-110719849D01*
X95731557Y-110805331D01*
X95750757Y-110814284D01*
X95756065Y-110815706D01*
X95756067Y-110815707D01*
X95966598Y-110872119D01*
X95966600Y-110872119D01*
X95971913Y-110873543D01*
X96200000Y-110893498D01*
X96205475Y-110893019D01*
X96205485Y-110893019D01*
X96260117Y-110888239D01*
X96329722Y-110902227D01*
X96360194Y-110924664D01*
X97229595Y-111794065D01*
X97263621Y-111856377D01*
X97266500Y-111883160D01*
X97266500Y-112665500D01*
X97246498Y-112733621D01*
X97192842Y-112780114D01*
X97140500Y-112791500D01*
X93378927Y-112791500D01*
X93370358Y-112791208D01*
X93320225Y-112787790D01*
X93320221Y-112787790D01*
X93312648Y-112787274D01*
X93249681Y-112798264D01*
X93243169Y-112799224D01*
X93179758Y-112806898D01*
X93172657Y-112809581D01*
X93170048Y-112810222D01*
X93153715Y-112814691D01*
X93151195Y-112815452D01*
X93143717Y-112816757D01*
X93136765Y-112819809D01*
X93136764Y-112819809D01*
X93085204Y-112842441D01*
X93079099Y-112844932D01*
X93026456Y-112864825D01*
X93026452Y-112864827D01*
X93019344Y-112867513D01*
X93013083Y-112871816D01*
X93010717Y-112873053D01*
X92995937Y-112881280D01*
X92993652Y-112882631D01*
X92986695Y-112885685D01*
X92980675Y-112890305D01*
X92980669Y-112890308D01*
X92949542Y-112914194D01*
X92935998Y-112924587D01*
X92930668Y-112928459D01*
X92884280Y-112960339D01*
X92884275Y-112960344D01*
X92878019Y-112964643D01*
X92872968Y-112970313D01*
X92872966Y-112970314D01*
X92836565Y-113011170D01*
X92831584Y-113016446D01*
X92419113Y-113428917D01*
X92356801Y-113462943D01*
X92285789Y-113457804D01*
X92267718Y-113451029D01*
X92267711Y-113451027D01*
X92260316Y-113448255D01*
X92198134Y-113441500D01*
X89801866Y-113441500D01*
X89739684Y-113448255D01*
X89603295Y-113499385D01*
X89486739Y-113586739D01*
X89399385Y-113703295D01*
X89348255Y-113839684D01*
X89341500Y-113901866D01*
X89341500Y-117498134D01*
X89348255Y-117560316D01*
X89399385Y-117696705D01*
X89486739Y-117813261D01*
X89603295Y-117900615D01*
X89739684Y-117951745D01*
X89801866Y-117958500D01*
X92198134Y-117958500D01*
X92260316Y-117951745D01*
X92396705Y-117900615D01*
X92513261Y-117813261D01*
X92600615Y-117696705D01*
X92651745Y-117560316D01*
X92658500Y-117498134D01*
X92658500Y-115245660D01*
X92678502Y-115177539D01*
X92695405Y-115156565D01*
X93606565Y-114245405D01*
X93668877Y-114211379D01*
X93695660Y-114208500D01*
X99654339Y-114208500D01*
X99722460Y-114228502D01*
X99743435Y-114245405D01*
X100534596Y-115036567D01*
X100568621Y-115098879D01*
X100571500Y-115125662D01*
X100571500Y-115233122D01*
X100551498Y-115301243D01*
X100517771Y-115336335D01*
X100440211Y-115390643D01*
X100440208Y-115390645D01*
X100435700Y-115393802D01*
X100273802Y-115555700D01*
X100142477Y-115743251D01*
X100140154Y-115748233D01*
X100140151Y-115748238D01*
X100124195Y-115782457D01*
X100077278Y-115835742D01*
X100009001Y-115855203D01*
X99941041Y-115834661D01*
X99895805Y-115782457D01*
X99879849Y-115748238D01*
X99879846Y-115748233D01*
X99877523Y-115743251D01*
X99746198Y-115555700D01*
X99584300Y-115393802D01*
X99579792Y-115390645D01*
X99579789Y-115390643D01*
X99452112Y-115301243D01*
X99396749Y-115262477D01*
X99391767Y-115260154D01*
X99391762Y-115260151D01*
X99194225Y-115168039D01*
X99194224Y-115168039D01*
X99189243Y-115165716D01*
X99183935Y-115164294D01*
X99183933Y-115164293D01*
X98973402Y-115107881D01*
X98973400Y-115107881D01*
X98968087Y-115106457D01*
X98740000Y-115086502D01*
X98511913Y-115106457D01*
X98506600Y-115107881D01*
X98506598Y-115107881D01*
X98296067Y-115164293D01*
X98296065Y-115164294D01*
X98290757Y-115165716D01*
X98285776Y-115168039D01*
X98285775Y-115168039D01*
X98088238Y-115260151D01*
X98088233Y-115260154D01*
X98083251Y-115262477D01*
X98027888Y-115301243D01*
X97900211Y-115390643D01*
X97900208Y-115390645D01*
X97895700Y-115393802D01*
X97733802Y-115555700D01*
X97730643Y-115560211D01*
X97727108Y-115564424D01*
X97725974Y-115563473D01*
X97675929Y-115603471D01*
X97605310Y-115610776D01*
X97541951Y-115578742D01*
X97505970Y-115517538D01*
X97502918Y-115500483D01*
X97501745Y-115489684D01*
X97450615Y-115353295D01*
X97363261Y-115236739D01*
X97246705Y-115149385D01*
X97110316Y-115098255D01*
X97048134Y-115091500D01*
X95351866Y-115091500D01*
X95289684Y-115098255D01*
X95153295Y-115149385D01*
X95036739Y-115236739D01*
X94949385Y-115353295D01*
X94898255Y-115489684D01*
X94891500Y-115551866D01*
X94891500Y-118048134D01*
X94898255Y-118110316D01*
X94949385Y-118246705D01*
X95036739Y-118363261D01*
X95153295Y-118450615D01*
X95289684Y-118501745D01*
X95351866Y-118508500D01*
X95365500Y-118508500D01*
X95433621Y-118528502D01*
X95480114Y-118582158D01*
X95491500Y-118634500D01*
X95491500Y-122975500D01*
X95471498Y-123043621D01*
X95417842Y-123090114D01*
X95365500Y-123101500D01*
X95301866Y-123101500D01*
X95239684Y-123108255D01*
X95103295Y-123159385D01*
X94986739Y-123246739D01*
X94899385Y-123363295D01*
X94848255Y-123499684D01*
X94841500Y-123561866D01*
X94841500Y-123625500D01*
X94821498Y-123693621D01*
X94767842Y-123740114D01*
X94715500Y-123751500D01*
X94255660Y-123751500D01*
X94187539Y-123731498D01*
X94166565Y-123714595D01*
X93920405Y-123468435D01*
X93886379Y-123406123D01*
X93883500Y-123379340D01*
X93883500Y-122599600D01*
X93882224Y-122587303D01*
X93873238Y-122500692D01*
X93873237Y-122500688D01*
X93872526Y-122493834D01*
X93816550Y-122326054D01*
X93723478Y-122175652D01*
X93598303Y-122050695D01*
X93592072Y-122046854D01*
X93453968Y-121961725D01*
X93453966Y-121961724D01*
X93447738Y-121957885D01*
X93287254Y-121904655D01*
X93286389Y-121904368D01*
X93286387Y-121904368D01*
X93279861Y-121902203D01*
X93273025Y-121901503D01*
X93273022Y-121901502D01*
X93229969Y-121897091D01*
X93175400Y-121891500D01*
X91824600Y-121891500D01*
X91821354Y-121891837D01*
X91821350Y-121891837D01*
X91725692Y-121901762D01*
X91725688Y-121901763D01*
X91718834Y-121902474D01*
X91712298Y-121904655D01*
X91712296Y-121904655D01*
X91580194Y-121948728D01*
X91551054Y-121958450D01*
X91400652Y-122051522D01*
X91275695Y-122176697D01*
X91182885Y-122327262D01*
X91127203Y-122495139D01*
X91126503Y-122501975D01*
X91126502Y-122501978D01*
X91125288Y-122513829D01*
X91098446Y-122579556D01*
X91040331Y-122620337D01*
X90969393Y-122623225D01*
X90908155Y-122587303D01*
X90876059Y-122523975D01*
X90874617Y-122513987D01*
X90873238Y-122500693D01*
X90873237Y-122500690D01*
X90872526Y-122493834D01*
X90816550Y-122326054D01*
X90723478Y-122175652D01*
X90598303Y-122050695D01*
X90592072Y-122046854D01*
X90453968Y-121961725D01*
X90453966Y-121961724D01*
X90447738Y-121957885D01*
X90287254Y-121904655D01*
X90286389Y-121904368D01*
X90286387Y-121904368D01*
X90279861Y-121902203D01*
X90273025Y-121901503D01*
X90273022Y-121901502D01*
X90229969Y-121897091D01*
X90175400Y-121891500D01*
X88824600Y-121891500D01*
X88821354Y-121891837D01*
X88821350Y-121891837D01*
X88725692Y-121901762D01*
X88725688Y-121901763D01*
X88718834Y-121902474D01*
X88712298Y-121904655D01*
X88712296Y-121904655D01*
X88580194Y-121948728D01*
X88551054Y-121958450D01*
X88400652Y-122051522D01*
X88275695Y-122176697D01*
X88182885Y-122327262D01*
X88127203Y-122495139D01*
X88116500Y-122599600D01*
X88116500Y-123500400D01*
X88116837Y-123503646D01*
X88116837Y-123503650D01*
X88124347Y-123576025D01*
X88127474Y-123606166D01*
X88183450Y-123773946D01*
X88276522Y-123924348D01*
X88401697Y-124049305D01*
X88407927Y-124053145D01*
X88407928Y-124053146D01*
X88545090Y-124137694D01*
X88552262Y-124142115D01*
X88690255Y-124187885D01*
X88705167Y-124192831D01*
X88763527Y-124233261D01*
X88790764Y-124298826D01*
X88791500Y-124312424D01*
X88791500Y-125666088D01*
X88791208Y-125674658D01*
X88788030Y-125721280D01*
X88787275Y-125732352D01*
X88798059Y-125794139D01*
X88798261Y-125795299D01*
X88799223Y-125801821D01*
X88806898Y-125865242D01*
X88809581Y-125872343D01*
X88810222Y-125874952D01*
X88814685Y-125891262D01*
X88815450Y-125893798D01*
X88816757Y-125901284D01*
X88819811Y-125908241D01*
X88842442Y-125959795D01*
X88844935Y-125965904D01*
X88863417Y-126014815D01*
X88867513Y-126025656D01*
X88871817Y-126031919D01*
X88873054Y-126034285D01*
X88881299Y-126049097D01*
X88882632Y-126051351D01*
X88885685Y-126058305D01*
X88921747Y-126105300D01*
X88924579Y-126108991D01*
X88928459Y-126114332D01*
X88960339Y-126160720D01*
X88960344Y-126160725D01*
X88964643Y-126166981D01*
X88970313Y-126172032D01*
X88970314Y-126172034D01*
X89011161Y-126208427D01*
X89016438Y-126213408D01*
X89648565Y-126845536D01*
X89654418Y-126851801D01*
X89687445Y-126889660D01*
X89692439Y-126895385D01*
X89744729Y-126932136D01*
X89749971Y-126936028D01*
X89800282Y-126975476D01*
X89807201Y-126978600D01*
X89809493Y-126979988D01*
X89824165Y-126988357D01*
X89826525Y-126989622D01*
X89832739Y-126993990D01*
X89839818Y-126996750D01*
X89839820Y-126996751D01*
X89892275Y-127017202D01*
X89898344Y-127019753D01*
X89956573Y-127046045D01*
X89964046Y-127047430D01*
X89966612Y-127048234D01*
X89982835Y-127052855D01*
X89985427Y-127053520D01*
X89992509Y-127056282D01*
X90000044Y-127057274D01*
X90055861Y-127064622D01*
X90062377Y-127065654D01*
X90100770Y-127072770D01*
X90125186Y-127077295D01*
X90132766Y-127076858D01*
X90132767Y-127076858D01*
X90187380Y-127073709D01*
X90194633Y-127073500D01*
X98015088Y-127073500D01*
X98023658Y-127073792D01*
X98073776Y-127077209D01*
X98073780Y-127077209D01*
X98081352Y-127077725D01*
X98088829Y-127076420D01*
X98088830Y-127076420D01*
X98115308Y-127071799D01*
X98144303Y-127066738D01*
X98150821Y-127065777D01*
X98214242Y-127058102D01*
X98221343Y-127055419D01*
X98223952Y-127054778D01*
X98240262Y-127050315D01*
X98242798Y-127049550D01*
X98250284Y-127048243D01*
X98308800Y-127022556D01*
X98314904Y-127020065D01*
X98319319Y-127018397D01*
X98374656Y-126997487D01*
X98380919Y-126993183D01*
X98383285Y-126991946D01*
X98398097Y-126983701D01*
X98400351Y-126982368D01*
X98407305Y-126979315D01*
X98458002Y-126940413D01*
X98463332Y-126936541D01*
X98509720Y-126904661D01*
X98509725Y-126904656D01*
X98515981Y-126900357D01*
X98557436Y-126853829D01*
X98562416Y-126848554D01*
X99220520Y-126190450D01*
X99226785Y-126184596D01*
X99254154Y-126160720D01*
X99270385Y-126146561D01*
X99307114Y-126094300D01*
X99311046Y-126089005D01*
X99345791Y-126044694D01*
X99350477Y-126038718D01*
X99353602Y-126031796D01*
X99354964Y-126029548D01*
X99363368Y-126014815D01*
X99364622Y-126012476D01*
X99368990Y-126006261D01*
X99371749Y-125999185D01*
X99371751Y-125999181D01*
X99392202Y-125946726D01*
X99394758Y-125940646D01*
X99417918Y-125889351D01*
X99421045Y-125882426D01*
X99422429Y-125874955D01*
X99423230Y-125872401D01*
X99427867Y-125856122D01*
X99428523Y-125853567D01*
X99431282Y-125846491D01*
X99439621Y-125783149D01*
X99440653Y-125776633D01*
X99450912Y-125721280D01*
X99452296Y-125713813D01*
X99451143Y-125693813D01*
X99467191Y-125624654D01*
X99503765Y-125583982D01*
X99506084Y-125582328D01*
X99619860Y-125501173D01*
X99643496Y-125477620D01*
X99763616Y-125357918D01*
X99778096Y-125343489D01*
X99908453Y-125162077D01*
X99909776Y-125163028D01*
X99956645Y-125119857D01*
X100026580Y-125107625D01*
X100092026Y-125135144D01*
X100119875Y-125166994D01*
X100133055Y-125188502D01*
X100179987Y-125265088D01*
X100326250Y-125433938D01*
X100427654Y-125518125D01*
X100494107Y-125573295D01*
X100498126Y-125576632D01*
X100505353Y-125580855D01*
X100506242Y-125581798D01*
X100506827Y-125582207D01*
X100506742Y-125582328D01*
X100554075Y-125632493D01*
X100565061Y-125686312D01*
X100567394Y-125686190D01*
X100567791Y-125693777D01*
X100567275Y-125701352D01*
X100568580Y-125708829D01*
X100568580Y-125708830D01*
X100578261Y-125764299D01*
X100579223Y-125770821D01*
X100586898Y-125834242D01*
X100589581Y-125841343D01*
X100590222Y-125843952D01*
X100594685Y-125860262D01*
X100595450Y-125862798D01*
X100596757Y-125870284D01*
X100599811Y-125877241D01*
X100622442Y-125928795D01*
X100624933Y-125934899D01*
X100647513Y-125994656D01*
X100651817Y-126000919D01*
X100653054Y-126003285D01*
X100661299Y-126018097D01*
X100662632Y-126020351D01*
X100665685Y-126027305D01*
X100694095Y-126064328D01*
X100704579Y-126077991D01*
X100708459Y-126083332D01*
X100740339Y-126129720D01*
X100740344Y-126129725D01*
X100744643Y-126135981D01*
X100750313Y-126141032D01*
X100750314Y-126141034D01*
X100791170Y-126177435D01*
X100796446Y-126182416D01*
X101459550Y-126845520D01*
X101465404Y-126851785D01*
X101503439Y-126895385D01*
X101509657Y-126899755D01*
X101555697Y-126932112D01*
X101560993Y-126936045D01*
X101611282Y-126975477D01*
X101618204Y-126978602D01*
X101620452Y-126979964D01*
X101635185Y-126988368D01*
X101637524Y-126989622D01*
X101643739Y-126993990D01*
X101650815Y-126996749D01*
X101650819Y-126996751D01*
X101703269Y-127017200D01*
X101709334Y-127019749D01*
X101767573Y-127046045D01*
X101775038Y-127047429D01*
X101777582Y-127048226D01*
X101793848Y-127052859D01*
X101796428Y-127053521D01*
X101803509Y-127056282D01*
X101811042Y-127057274D01*
X101811043Y-127057274D01*
X101824261Y-127059014D01*
X101866857Y-127064622D01*
X101873355Y-127065650D01*
X101936187Y-127077296D01*
X101943767Y-127076859D01*
X101943768Y-127076859D01*
X101998398Y-127073709D01*
X102005651Y-127073500D01*
X107286088Y-127073500D01*
X107294658Y-127073792D01*
X107344776Y-127077209D01*
X107344780Y-127077209D01*
X107352352Y-127077725D01*
X107359829Y-127076420D01*
X107359830Y-127076420D01*
X107386308Y-127071799D01*
X107415303Y-127066738D01*
X107421821Y-127065777D01*
X107485242Y-127058102D01*
X107492343Y-127055419D01*
X107494952Y-127054778D01*
X107511262Y-127050315D01*
X107513798Y-127049550D01*
X107521284Y-127048243D01*
X107579800Y-127022556D01*
X107585904Y-127020065D01*
X107590319Y-127018397D01*
X107645656Y-126997487D01*
X107651919Y-126993183D01*
X107654285Y-126991946D01*
X107669097Y-126983701D01*
X107671351Y-126982368D01*
X107678305Y-126979315D01*
X107729002Y-126940413D01*
X107734332Y-126936541D01*
X107780720Y-126904661D01*
X107780725Y-126904656D01*
X107786981Y-126900357D01*
X107828435Y-126853830D01*
X107833408Y-126848562D01*
X108480536Y-126201435D01*
X108486801Y-126195582D01*
X108524664Y-126162552D01*
X108524665Y-126162551D01*
X108530385Y-126157561D01*
X108567136Y-126105271D01*
X108571028Y-126100029D01*
X108610476Y-126049718D01*
X108613600Y-126042799D01*
X108614988Y-126040507D01*
X108623357Y-126025835D01*
X108624622Y-126023475D01*
X108628990Y-126017261D01*
X108652203Y-125957723D01*
X108654759Y-125951642D01*
X108677918Y-125900352D01*
X108681045Y-125893427D01*
X108682430Y-125885954D01*
X108683234Y-125883388D01*
X108687855Y-125867165D01*
X108688520Y-125864573D01*
X108691282Y-125857491D01*
X108699622Y-125794139D01*
X108700654Y-125787623D01*
X108710911Y-125732281D01*
X108712295Y-125724814D01*
X108708709Y-125662620D01*
X108708500Y-125655367D01*
X108708500Y-116666878D01*
X108728502Y-116598757D01*
X108762229Y-116563665D01*
X108839789Y-116509357D01*
X108839792Y-116509355D01*
X108844300Y-116506198D01*
X109006198Y-116344300D01*
X109063665Y-116262229D01*
X109119122Y-116217901D01*
X109166878Y-116208500D01*
X110471088Y-116208500D01*
X110479658Y-116208792D01*
X110529776Y-116212209D01*
X110529780Y-116212209D01*
X110537352Y-116212725D01*
X110544829Y-116211420D01*
X110544830Y-116211420D01*
X110571308Y-116206799D01*
X110600303Y-116201738D01*
X110606821Y-116200777D01*
X110670242Y-116193102D01*
X110677343Y-116190419D01*
X110679952Y-116189778D01*
X110696262Y-116185315D01*
X110698798Y-116184550D01*
X110706284Y-116183243D01*
X110764800Y-116157556D01*
X110770904Y-116155065D01*
X110779646Y-116151762D01*
X110830656Y-116132487D01*
X110836919Y-116128183D01*
X110839285Y-116126946D01*
X110854097Y-116118701D01*
X110856351Y-116117368D01*
X110863305Y-116114315D01*
X110914002Y-116075413D01*
X110919332Y-116071541D01*
X110965720Y-116039661D01*
X110965725Y-116039656D01*
X110971981Y-116035357D01*
X111013436Y-115988829D01*
X111018416Y-115983554D01*
X112656565Y-114345405D01*
X112718877Y-114311379D01*
X112745660Y-114308500D01*
X113848134Y-114308500D01*
X113910316Y-114301745D01*
X114046705Y-114250615D01*
X114163261Y-114163261D01*
X114250615Y-114046705D01*
X114301745Y-113910316D01*
X114308500Y-113848134D01*
X114308500Y-112151866D01*
X114301745Y-112089684D01*
X114250615Y-111953295D01*
X114163261Y-111836739D01*
X114046705Y-111749385D01*
X113910316Y-111698255D01*
X113866748Y-111693522D01*
X113851514Y-111691867D01*
X113851511Y-111691867D01*
X113848134Y-111691500D01*
X113844815Y-111691500D01*
X113777890Y-111667847D01*
X113742196Y-111621844D01*
X113740266Y-111622859D01*
X113734558Y-111612000D01*
X113734368Y-111611755D01*
X113734347Y-111611597D01*
X113714356Y-111573566D01*
X113012812Y-110872022D01*
X112998868Y-110864408D01*
X112997035Y-110864539D01*
X112990420Y-110868790D01*
X112284923Y-111574287D01*
X112262129Y-111616029D01*
X112259953Y-111626029D01*
X112209747Y-111676227D01*
X112156186Y-111691451D01*
X112155281Y-111691500D01*
X112151866Y-111691500D01*
X112148470Y-111691869D01*
X112148468Y-111691869D01*
X112136121Y-111693210D01*
X112089684Y-111698255D01*
X111953295Y-111749385D01*
X111836739Y-111836739D01*
X111749385Y-111953295D01*
X111698255Y-112089684D01*
X111691500Y-112151866D01*
X111691500Y-113254340D01*
X111671498Y-113322461D01*
X111654595Y-113343435D01*
X110243435Y-114754595D01*
X110181123Y-114788621D01*
X110154340Y-114791500D01*
X109166878Y-114791500D01*
X109098757Y-114771498D01*
X109063665Y-114737771D01*
X109009357Y-114660211D01*
X109009355Y-114660208D01*
X109006198Y-114655700D01*
X108844300Y-114493802D01*
X108839792Y-114490645D01*
X108839789Y-114490643D01*
X108661793Y-114366009D01*
X108656749Y-114362477D01*
X108651767Y-114360154D01*
X108651762Y-114360151D01*
X108454225Y-114268039D01*
X108454224Y-114268039D01*
X108449243Y-114265716D01*
X108443935Y-114264294D01*
X108443933Y-114264293D01*
X108233402Y-114207881D01*
X108233400Y-114207881D01*
X108228087Y-114206457D01*
X108000000Y-114186502D01*
X107771913Y-114206457D01*
X107766600Y-114207881D01*
X107766598Y-114207881D01*
X107556067Y-114264293D01*
X107556065Y-114264294D01*
X107550757Y-114265716D01*
X107545776Y-114268039D01*
X107545775Y-114268039D01*
X107348238Y-114360151D01*
X107348233Y-114360154D01*
X107343251Y-114362477D01*
X107338207Y-114366009D01*
X107160211Y-114490643D01*
X107160208Y-114490645D01*
X107155700Y-114493802D01*
X106993802Y-114655700D01*
X106990645Y-114660208D01*
X106990643Y-114660211D01*
X106976991Y-114679708D01*
X106862477Y-114843251D01*
X106860154Y-114848233D01*
X106860151Y-114848238D01*
X106772333Y-115036567D01*
X106765716Y-115050757D01*
X106764294Y-115056065D01*
X106764293Y-115056067D01*
X106709492Y-115260586D01*
X106706457Y-115271913D01*
X106686502Y-115500000D01*
X106706457Y-115728087D01*
X106707881Y-115733400D01*
X106707881Y-115733402D01*
X106740677Y-115855795D01*
X106765716Y-115949243D01*
X106768039Y-115954224D01*
X106768039Y-115954225D01*
X106860151Y-116151762D01*
X106860154Y-116151767D01*
X106862477Y-116156749D01*
X106993802Y-116344300D01*
X107155700Y-116506198D01*
X107160208Y-116509355D01*
X107160211Y-116509357D01*
X107237771Y-116563665D01*
X107282099Y-116619122D01*
X107291500Y-116666878D01*
X107291500Y-125334340D01*
X107271498Y-125402461D01*
X107254595Y-125423435D01*
X107058435Y-125619595D01*
X106996123Y-125653621D01*
X106969340Y-125656500D01*
X104848224Y-125656500D01*
X104780103Y-125636498D01*
X104733610Y-125582842D01*
X104723506Y-125512568D01*
X104753000Y-125447988D01*
X104759284Y-125441250D01*
X104854051Y-125346812D01*
X104860730Y-125338965D01*
X104985003Y-125166020D01*
X104990313Y-125157183D01*
X105084670Y-124966267D01*
X105088469Y-124956672D01*
X105150377Y-124752910D01*
X105152555Y-124742837D01*
X105153986Y-124731962D01*
X105151775Y-124717778D01*
X105138617Y-124714000D01*
X103692000Y-124714000D01*
X103623879Y-124693998D01*
X103577386Y-124640342D01*
X103566000Y-124588000D01*
X103566000Y-124187885D01*
X104074000Y-124187885D01*
X104078475Y-124203124D01*
X104079865Y-124204329D01*
X104087548Y-124206000D01*
X105138344Y-124206000D01*
X105151875Y-124202027D01*
X105153180Y-124192947D01*
X105111214Y-124025875D01*
X105107894Y-124016124D01*
X105022972Y-123820814D01*
X105018105Y-123811739D01*
X104902426Y-123632926D01*
X104896136Y-123624757D01*
X104752806Y-123467240D01*
X104745273Y-123460215D01*
X104578139Y-123328222D01*
X104569552Y-123322517D01*
X104383117Y-123219599D01*
X104373705Y-123215369D01*
X104172959Y-123144280D01*
X104162988Y-123141646D01*
X104091837Y-123128972D01*
X104078540Y-123130432D01*
X104074000Y-123144989D01*
X104074000Y-124187885D01*
X103566000Y-124187885D01*
X103566000Y-123143102D01*
X103562082Y-123129758D01*
X103547806Y-123127771D01*
X103509324Y-123133660D01*
X103499288Y-123136051D01*
X103296868Y-123202212D01*
X103287359Y-123206209D01*
X103098463Y-123304542D01*
X103089738Y-123310036D01*
X102919433Y-123437905D01*
X102911726Y-123444748D01*
X102764590Y-123598717D01*
X102758109Y-123606722D01*
X102653498Y-123760074D01*
X102598587Y-123805076D01*
X102528062Y-123813247D01*
X102464315Y-123781993D01*
X102443618Y-123757509D01*
X102362822Y-123632617D01*
X102362820Y-123632614D01*
X102360014Y-123628277D01*
X102209670Y-123463051D01*
X102205619Y-123459852D01*
X102205615Y-123459848D01*
X102036408Y-123326216D01*
X101995345Y-123268298D01*
X101988500Y-123227334D01*
X101988500Y-118366878D01*
X102008502Y-118298757D01*
X102042229Y-118263665D01*
X102119789Y-118209357D01*
X102119792Y-118209355D01*
X102124300Y-118206198D01*
X102286198Y-118044300D01*
X102417523Y-117856749D01*
X102419846Y-117851767D01*
X102419849Y-117851762D01*
X102436081Y-117816951D01*
X102482998Y-117763666D01*
X102551275Y-117744205D01*
X102619235Y-117764747D01*
X102664471Y-117816951D01*
X102680586Y-117851511D01*
X102686069Y-117861007D01*
X102811028Y-118039467D01*
X102818084Y-118047875D01*
X102972125Y-118201916D01*
X102980533Y-118208972D01*
X103158993Y-118333931D01*
X103168489Y-118339414D01*
X103365947Y-118431490D01*
X103376239Y-118435236D01*
X103548503Y-118481394D01*
X103562599Y-118481058D01*
X103566000Y-118473116D01*
X103566000Y-118467967D01*
X104074000Y-118467967D01*
X104077973Y-118481498D01*
X104086522Y-118482727D01*
X104263761Y-118435236D01*
X104274053Y-118431490D01*
X104471511Y-118339414D01*
X104481007Y-118333931D01*
X104659467Y-118208972D01*
X104667875Y-118201916D01*
X104821916Y-118047875D01*
X104828972Y-118039467D01*
X104953931Y-117861007D01*
X104959414Y-117851511D01*
X105051490Y-117654053D01*
X105055236Y-117643761D01*
X105111625Y-117433312D01*
X105113528Y-117422519D01*
X105127762Y-117259830D01*
X105128000Y-117254365D01*
X105128000Y-117072115D01*
X105123525Y-117056876D01*
X105122135Y-117055671D01*
X105114452Y-117054000D01*
X104092115Y-117054000D01*
X104076876Y-117058475D01*
X104075671Y-117059865D01*
X104074000Y-117067548D01*
X104074000Y-118467967D01*
X103566000Y-118467967D01*
X103566000Y-116527885D01*
X104074000Y-116527885D01*
X104078475Y-116543124D01*
X104079865Y-116544329D01*
X104087548Y-116546000D01*
X105109885Y-116546000D01*
X105125124Y-116541525D01*
X105126329Y-116540135D01*
X105128000Y-116532452D01*
X105128000Y-116345635D01*
X105127762Y-116340170D01*
X105113528Y-116177481D01*
X105111625Y-116166688D01*
X105055236Y-115956239D01*
X105051490Y-115945947D01*
X104959414Y-115748489D01*
X104953931Y-115738993D01*
X104828972Y-115560533D01*
X104821916Y-115552125D01*
X104667875Y-115398084D01*
X104659467Y-115391028D01*
X104481007Y-115266069D01*
X104471511Y-115260586D01*
X104274053Y-115168510D01*
X104263761Y-115164764D01*
X104091497Y-115118606D01*
X104077401Y-115118942D01*
X104074000Y-115126884D01*
X104074000Y-116527885D01*
X103566000Y-116527885D01*
X103566000Y-115132033D01*
X103562027Y-115118502D01*
X103553478Y-115117273D01*
X103376239Y-115164764D01*
X103365947Y-115168510D01*
X103168489Y-115260586D01*
X103158993Y-115266069D01*
X102980533Y-115391028D01*
X102972125Y-115398084D01*
X102818084Y-115552125D01*
X102811028Y-115560533D01*
X102686069Y-115738993D01*
X102680586Y-115748489D01*
X102664471Y-115783049D01*
X102617554Y-115836334D01*
X102549277Y-115855795D01*
X102481317Y-115835253D01*
X102436081Y-115783049D01*
X102419849Y-115748238D01*
X102419846Y-115748233D01*
X102417523Y-115743251D01*
X102286198Y-115555700D01*
X102124300Y-115393802D01*
X102119792Y-115390645D01*
X102119789Y-115390643D01*
X102042229Y-115336335D01*
X101997901Y-115280878D01*
X101988500Y-115233122D01*
X101988500Y-114808912D01*
X101988792Y-114800342D01*
X101992209Y-114750224D01*
X101992209Y-114750220D01*
X101992725Y-114742648D01*
X101981739Y-114679703D01*
X101980777Y-114673182D01*
X101979207Y-114660211D01*
X101973102Y-114609758D01*
X101970416Y-114602650D01*
X101969779Y-114600056D01*
X101965318Y-114583750D01*
X101964548Y-114581199D01*
X101963242Y-114573716D01*
X101937561Y-114515212D01*
X101935069Y-114509105D01*
X101915173Y-114456452D01*
X101915173Y-114456451D01*
X101912487Y-114449344D01*
X101908184Y-114443083D01*
X101906947Y-114440717D01*
X101898720Y-114425937D01*
X101897369Y-114423652D01*
X101894315Y-114416695D01*
X101889695Y-114410675D01*
X101889692Y-114410669D01*
X101855421Y-114366009D01*
X101851541Y-114360668D01*
X101819661Y-114314280D01*
X101819656Y-114314275D01*
X101815357Y-114308019D01*
X101808316Y-114301745D01*
X101768830Y-114266565D01*
X101763554Y-114261584D01*
X101125565Y-113623595D01*
X101091539Y-113561283D01*
X101096604Y-113490468D01*
X101139151Y-113433632D01*
X101205671Y-113408821D01*
X101214660Y-113408500D01*
X102025400Y-113408500D01*
X102028646Y-113408163D01*
X102028650Y-113408163D01*
X102124308Y-113398238D01*
X102124312Y-113398237D01*
X102131166Y-113397526D01*
X102137702Y-113395345D01*
X102137704Y-113395345D01*
X102291998Y-113343868D01*
X102298946Y-113341550D01*
X102449348Y-113248478D01*
X102574305Y-113123303D01*
X102667115Y-112972738D01*
X102700179Y-112873053D01*
X102720632Y-112811389D01*
X102720632Y-112811387D01*
X102722797Y-112804861D01*
X102724188Y-112791291D01*
X102733172Y-112703598D01*
X102733500Y-112700400D01*
X102733500Y-111586062D01*
X107278493Y-111586062D01*
X107287789Y-111598077D01*
X107338994Y-111633931D01*
X107348489Y-111639414D01*
X107545947Y-111731490D01*
X107556239Y-111735236D01*
X107766688Y-111791625D01*
X107777481Y-111793528D01*
X107994525Y-111812517D01*
X108005475Y-111812517D01*
X108222519Y-111793528D01*
X108233312Y-111791625D01*
X108443761Y-111735236D01*
X108454053Y-111731490D01*
X108651511Y-111639414D01*
X108661006Y-111633931D01*
X108713048Y-111597491D01*
X108721424Y-111587012D01*
X108714356Y-111573566D01*
X108012812Y-110872022D01*
X107998868Y-110864408D01*
X107997035Y-110864539D01*
X107990420Y-110868790D01*
X107284923Y-111574287D01*
X107278493Y-111586062D01*
X102733500Y-111586062D01*
X102733500Y-111299600D01*
X102733163Y-111296350D01*
X102723238Y-111200692D01*
X102723237Y-111200688D01*
X102722526Y-111193834D01*
X102666550Y-111026054D01*
X102573478Y-110875652D01*
X102448303Y-110750695D01*
X102330883Y-110678316D01*
X102283391Y-110625545D01*
X102271000Y-110571057D01*
X102271000Y-110485733D01*
X102293787Y-110413462D01*
X102414366Y-110241258D01*
X102414367Y-110241256D01*
X102417523Y-110236749D01*
X102419846Y-110231767D01*
X102419849Y-110231762D01*
X102435805Y-110197543D01*
X102482722Y-110144258D01*
X102550999Y-110124797D01*
X102618959Y-110145339D01*
X102664195Y-110197543D01*
X102680151Y-110231762D01*
X102680154Y-110231767D01*
X102682477Y-110236749D01*
X102813802Y-110424300D01*
X102975700Y-110586198D01*
X102980208Y-110589355D01*
X102980211Y-110589357D01*
X103031893Y-110625545D01*
X103163251Y-110717523D01*
X103168233Y-110719846D01*
X103168238Y-110719849D01*
X103351557Y-110805331D01*
X103370757Y-110814284D01*
X103376065Y-110815706D01*
X103376067Y-110815707D01*
X103586598Y-110872119D01*
X103586600Y-110872119D01*
X103591913Y-110873543D01*
X103820000Y-110893498D01*
X104048087Y-110873543D01*
X104053400Y-110872119D01*
X104053402Y-110872119D01*
X104263933Y-110815707D01*
X104263935Y-110815706D01*
X104269243Y-110814284D01*
X104288443Y-110805331D01*
X104471762Y-110719849D01*
X104471767Y-110719846D01*
X104476749Y-110717523D01*
X104608107Y-110625545D01*
X104659789Y-110589357D01*
X104659792Y-110589355D01*
X104664300Y-110586198D01*
X104745023Y-110505475D01*
X106687483Y-110505475D01*
X106706472Y-110722519D01*
X106708375Y-110733312D01*
X106764764Y-110943761D01*
X106768510Y-110954053D01*
X106860586Y-111151511D01*
X106866069Y-111161006D01*
X106902509Y-111213048D01*
X106912988Y-111221424D01*
X106926434Y-111214356D01*
X107627978Y-110512812D01*
X107634356Y-110501132D01*
X108364408Y-110501132D01*
X108364539Y-110502965D01*
X108368790Y-110509580D01*
X109074287Y-111215077D01*
X109086062Y-111221507D01*
X109098077Y-111212211D01*
X109133931Y-111161006D01*
X109139414Y-111151511D01*
X109231490Y-110954053D01*
X109235236Y-110943761D01*
X109291625Y-110733312D01*
X109293528Y-110722519D01*
X109312517Y-110505475D01*
X111687483Y-110505475D01*
X111706472Y-110722519D01*
X111708375Y-110733312D01*
X111764764Y-110943761D01*
X111768510Y-110954053D01*
X111860586Y-111151511D01*
X111866069Y-111161006D01*
X111902509Y-111213048D01*
X111912988Y-111221424D01*
X111926434Y-111214356D01*
X112627978Y-110512812D01*
X112634356Y-110501132D01*
X113364408Y-110501132D01*
X113364539Y-110502965D01*
X113368790Y-110509580D01*
X114074287Y-111215077D01*
X114086062Y-111221507D01*
X114098077Y-111212211D01*
X114133931Y-111161006D01*
X114139414Y-111151511D01*
X114231490Y-110954053D01*
X114235236Y-110943761D01*
X114291625Y-110733312D01*
X114293528Y-110722519D01*
X114312517Y-110505475D01*
X114312517Y-110494525D01*
X114293528Y-110277481D01*
X114291625Y-110266688D01*
X114235236Y-110056239D01*
X114231490Y-110045947D01*
X114139414Y-109848489D01*
X114133931Y-109838994D01*
X114097491Y-109786952D01*
X114087012Y-109778576D01*
X114073566Y-109785644D01*
X113372022Y-110487188D01*
X113364408Y-110501132D01*
X112634356Y-110501132D01*
X112635592Y-110498868D01*
X112635461Y-110497035D01*
X112631210Y-110490420D01*
X111925713Y-109784923D01*
X111913938Y-109778493D01*
X111901923Y-109787789D01*
X111866069Y-109838994D01*
X111860586Y-109848489D01*
X111768510Y-110045947D01*
X111764764Y-110056239D01*
X111708375Y-110266688D01*
X111706472Y-110277481D01*
X111687483Y-110494525D01*
X111687483Y-110505475D01*
X109312517Y-110505475D01*
X109312517Y-110494525D01*
X109293528Y-110277481D01*
X109291625Y-110266688D01*
X109235236Y-110056239D01*
X109231490Y-110045947D01*
X109139414Y-109848489D01*
X109133931Y-109838994D01*
X109097491Y-109786952D01*
X109087012Y-109778576D01*
X109073566Y-109785644D01*
X108372022Y-110487188D01*
X108364408Y-110501132D01*
X107634356Y-110501132D01*
X107635592Y-110498868D01*
X107635461Y-110497035D01*
X107631210Y-110490420D01*
X106925713Y-109784923D01*
X106913938Y-109778493D01*
X106901923Y-109787789D01*
X106866069Y-109838994D01*
X106860586Y-109848489D01*
X106768510Y-110045947D01*
X106764764Y-110056239D01*
X106708375Y-110266688D01*
X106706472Y-110277481D01*
X106687483Y-110494525D01*
X106687483Y-110505475D01*
X104745023Y-110505475D01*
X104826198Y-110424300D01*
X104957523Y-110236749D01*
X104959846Y-110231767D01*
X104959849Y-110231762D01*
X105051961Y-110034225D01*
X105051961Y-110034224D01*
X105054284Y-110029243D01*
X105055706Y-110023938D01*
X105055708Y-110023931D01*
X105066972Y-109981890D01*
X105103923Y-109921267D01*
X105167783Y-109890245D01*
X105188679Y-109888500D01*
X105791088Y-109888500D01*
X105799658Y-109888792D01*
X105849776Y-109892209D01*
X105849780Y-109892209D01*
X105857352Y-109892725D01*
X105864829Y-109891420D01*
X105864830Y-109891420D01*
X105891308Y-109886799D01*
X105920303Y-109881738D01*
X105926821Y-109880777D01*
X105990242Y-109873102D01*
X105997343Y-109870419D01*
X105999952Y-109869778D01*
X106016262Y-109865315D01*
X106018798Y-109864550D01*
X106026284Y-109863243D01*
X106084800Y-109837556D01*
X106090904Y-109835065D01*
X106143548Y-109815173D01*
X106143549Y-109815172D01*
X106150656Y-109812487D01*
X106156919Y-109808183D01*
X106159285Y-109806946D01*
X106174097Y-109798701D01*
X106176351Y-109797368D01*
X106183305Y-109794315D01*
X106234002Y-109755413D01*
X106239332Y-109751541D01*
X106285720Y-109719661D01*
X106285725Y-109719656D01*
X106291981Y-109715357D01*
X106333436Y-109668829D01*
X106338416Y-109663554D01*
X106588982Y-109412988D01*
X107278576Y-109412988D01*
X107285644Y-109426434D01*
X107987188Y-110127978D01*
X108001132Y-110135592D01*
X108002965Y-110135461D01*
X108009580Y-110131210D01*
X108715077Y-109425713D01*
X108721507Y-109413938D01*
X108720772Y-109412988D01*
X112278576Y-109412988D01*
X112285644Y-109426434D01*
X112987188Y-110127978D01*
X113001132Y-110135592D01*
X113002965Y-110135461D01*
X113009580Y-110131210D01*
X113715077Y-109425713D01*
X113721507Y-109413938D01*
X113712211Y-109401923D01*
X113661006Y-109366069D01*
X113651511Y-109360586D01*
X113454053Y-109268510D01*
X113443761Y-109264764D01*
X113233312Y-109208375D01*
X113222519Y-109206472D01*
X113005475Y-109187483D01*
X112994525Y-109187483D01*
X112777481Y-109206472D01*
X112766688Y-109208375D01*
X112556239Y-109264764D01*
X112545947Y-109268510D01*
X112348489Y-109360586D01*
X112338994Y-109366069D01*
X112286952Y-109402509D01*
X112278576Y-109412988D01*
X108720772Y-109412988D01*
X108712211Y-109401923D01*
X108661006Y-109366069D01*
X108651511Y-109360586D01*
X108454053Y-109268510D01*
X108443761Y-109264764D01*
X108233312Y-109208375D01*
X108222519Y-109206472D01*
X108005475Y-109187483D01*
X107994525Y-109187483D01*
X107777481Y-109206472D01*
X107766688Y-109208375D01*
X107556239Y-109264764D01*
X107545947Y-109268510D01*
X107348489Y-109360586D01*
X107338994Y-109366069D01*
X107286952Y-109402509D01*
X107278576Y-109412988D01*
X106588982Y-109412988D01*
X107480520Y-108521450D01*
X107486785Y-108515596D01*
X107502524Y-108501866D01*
X107530385Y-108477561D01*
X107567129Y-108425280D01*
X107571061Y-108419986D01*
X107605791Y-108375693D01*
X107610476Y-108369718D01*
X107613599Y-108362802D01*
X107614983Y-108360516D01*
X107623357Y-108345835D01*
X107624622Y-108343475D01*
X107628990Y-108337261D01*
X107645035Y-108296109D01*
X107652202Y-108277725D01*
X107654759Y-108271642D01*
X107671213Y-108235203D01*
X107681045Y-108213427D01*
X107682429Y-108205960D01*
X107683230Y-108203405D01*
X107687859Y-108187152D01*
X107688522Y-108184572D01*
X107691282Y-108177491D01*
X107699622Y-108114139D01*
X107700653Y-108107632D01*
X107701184Y-108104771D01*
X107712296Y-108044814D01*
X107708709Y-107982608D01*
X107708500Y-107975354D01*
X107708500Y-106812560D01*
X107728502Y-106744439D01*
X107782158Y-106697946D01*
X107794624Y-106693036D01*
X107948946Y-106641550D01*
X108099348Y-106548478D01*
X108224305Y-106423303D01*
X108317115Y-106272738D01*
X108318795Y-106273774D01*
X108359121Y-106227969D01*
X108426405Y-106208500D01*
X108515500Y-106208500D01*
X108583621Y-106228502D01*
X108630114Y-106282158D01*
X108641500Y-106334500D01*
X108641500Y-107698134D01*
X108648255Y-107760316D01*
X108699385Y-107896705D01*
X108786739Y-108013261D01*
X108903295Y-108100615D01*
X109039684Y-108151745D01*
X109101866Y-108158500D01*
X111898134Y-108158500D01*
X111960316Y-108151745D01*
X112096705Y-108100615D01*
X112213261Y-108013261D01*
X112300615Y-107896705D01*
X112351745Y-107760316D01*
X112358500Y-107698134D01*
X112358500Y-106101866D01*
X112351745Y-106039684D01*
X112300615Y-105903295D01*
X112213261Y-105786739D01*
X112096705Y-105699385D01*
X111960316Y-105648255D01*
X111898134Y-105641500D01*
X111180138Y-105641500D01*
X111112017Y-105621498D01*
X111080182Y-105592213D01*
X111075412Y-105585996D01*
X111071541Y-105580668D01*
X111039661Y-105534280D01*
X111039656Y-105534275D01*
X111035357Y-105528019D01*
X110988829Y-105486564D01*
X110983554Y-105481584D01*
X110521450Y-105019480D01*
X110515596Y-105013215D01*
X110505793Y-105001978D01*
X110477561Y-104969615D01*
X110425280Y-104932871D01*
X110419986Y-104928939D01*
X110375693Y-104894209D01*
X110369718Y-104889524D01*
X110362802Y-104886401D01*
X110360516Y-104885017D01*
X110345835Y-104876643D01*
X110343475Y-104875378D01*
X110337261Y-104871010D01*
X110330182Y-104868250D01*
X110330180Y-104868249D01*
X110277725Y-104847798D01*
X110271656Y-104845247D01*
X110213427Y-104818955D01*
X110205960Y-104817571D01*
X110203405Y-104816770D01*
X110187152Y-104812141D01*
X110184572Y-104811478D01*
X110177491Y-104808718D01*
X110169960Y-104807727D01*
X110169958Y-104807726D01*
X110140339Y-104803827D01*
X110114139Y-104800378D01*
X110107641Y-104799348D01*
X110044814Y-104787704D01*
X110037234Y-104788141D01*
X110037233Y-104788141D01*
X109982608Y-104791291D01*
X109975354Y-104791500D01*
X108365369Y-104791500D01*
X108297248Y-104771498D01*
X108258228Y-104731807D01*
X108223478Y-104675652D01*
X108098303Y-104550695D01*
X108005870Y-104493718D01*
X107953968Y-104461725D01*
X107953966Y-104461724D01*
X107947738Y-104457885D01*
X107787254Y-104404655D01*
X107786389Y-104404368D01*
X107786387Y-104404368D01*
X107779861Y-104402203D01*
X107773025Y-104401503D01*
X107773022Y-104401502D01*
X107729969Y-104397091D01*
X107675400Y-104391500D01*
X106324600Y-104391500D01*
X106321354Y-104391837D01*
X106321350Y-104391837D01*
X106225692Y-104401762D01*
X106225688Y-104401763D01*
X106218834Y-104402474D01*
X106212298Y-104404655D01*
X106212296Y-104404655D01*
X106080194Y-104448728D01*
X106051054Y-104458450D01*
X105900652Y-104551522D01*
X105775695Y-104676697D01*
X105771855Y-104682927D01*
X105771854Y-104682928D01*
X105688006Y-104818955D01*
X105682885Y-104827262D01*
X105659886Y-104896601D01*
X105633771Y-104975338D01*
X105627203Y-104995139D01*
X105626503Y-105001975D01*
X105626502Y-105001978D01*
X105625021Y-105016435D01*
X105616500Y-105099600D01*
X105616500Y-106000400D01*
X105627474Y-106106166D01*
X105629655Y-106112702D01*
X105629655Y-106112704D01*
X105661615Y-106208500D01*
X105683450Y-106273946D01*
X105776522Y-106424348D01*
X105901697Y-106549305D01*
X105907927Y-106553145D01*
X105907928Y-106553146D01*
X106045090Y-106637694D01*
X106052262Y-106642115D01*
X106205167Y-106692831D01*
X106263527Y-106733261D01*
X106290764Y-106798826D01*
X106291500Y-106812424D01*
X106291500Y-107654340D01*
X106271498Y-107722461D01*
X106254595Y-107743435D01*
X105563435Y-108434595D01*
X105501123Y-108468621D01*
X105474340Y-108471500D01*
X105188679Y-108471500D01*
X105120558Y-108451498D01*
X105074065Y-108397842D01*
X105066972Y-108378110D01*
X105066325Y-108375693D01*
X105062258Y-108360516D01*
X105055708Y-108336069D01*
X105055706Y-108336062D01*
X105054284Y-108330757D01*
X105045399Y-108311703D01*
X104959849Y-108128238D01*
X104959846Y-108128233D01*
X104957523Y-108123251D01*
X104880507Y-108013261D01*
X104829357Y-107940211D01*
X104829355Y-107940208D01*
X104826198Y-107935700D01*
X104664300Y-107773802D01*
X104659792Y-107770645D01*
X104659789Y-107770643D01*
X104568226Y-107706530D01*
X104476749Y-107642477D01*
X104471767Y-107640154D01*
X104471762Y-107640151D01*
X104274225Y-107548039D01*
X104274224Y-107548039D01*
X104269243Y-107545716D01*
X104263935Y-107544294D01*
X104263933Y-107544293D01*
X104053402Y-107487881D01*
X104053400Y-107487881D01*
X104048087Y-107486457D01*
X103820000Y-107466502D01*
X103591913Y-107486457D01*
X103586600Y-107487881D01*
X103586598Y-107487881D01*
X103370757Y-107545716D01*
X103370350Y-107544198D01*
X103306740Y-107548240D01*
X103244700Y-107513721D01*
X103211171Y-107451141D01*
X103208500Y-107425336D01*
X103208500Y-105368151D01*
X103228502Y-105300030D01*
X103276320Y-105256388D01*
X103316611Y-105235414D01*
X103316612Y-105235413D01*
X103321200Y-105233025D01*
X103325333Y-105229922D01*
X103325336Y-105229920D01*
X103509185Y-105091882D01*
X103509188Y-105091880D01*
X103513320Y-105088777D01*
X103679301Y-104915088D01*
X103804330Y-104731803D01*
X103811774Y-104720891D01*
X103811775Y-104720890D01*
X103814686Y-104716622D01*
X103830327Y-104682928D01*
X103913658Y-104503405D01*
X103913659Y-104503401D01*
X103915837Y-104498710D01*
X103980040Y-104267202D01*
X104001000Y-104071072D01*
X104001000Y-103836598D01*
X103986322Y-103658063D01*
X103927794Y-103425056D01*
X103844579Y-103233674D01*
X103834057Y-103209474D01*
X103834055Y-103209471D01*
X103831997Y-103204737D01*
X103707765Y-103012704D01*
X103704310Y-103007363D01*
X103704308Y-103007360D01*
X103701502Y-103003023D01*
X103672523Y-102971175D01*
X103541307Y-102826970D01*
X103510255Y-102763124D01*
X103508500Y-102742170D01*
X103508500Y-97428365D01*
X103509237Y-97414758D01*
X103512659Y-97383260D01*
X103512659Y-97383255D01*
X103513324Y-97377134D01*
X103508950Y-97327134D01*
X103508621Y-97322308D01*
X103508500Y-97319836D01*
X103508500Y-97316753D01*
X103507326Y-97304784D01*
X103504310Y-97274016D01*
X103504188Y-97272703D01*
X103496623Y-97186240D01*
X103496087Y-97180109D01*
X103494600Y-97174990D01*
X103494080Y-97169689D01*
X103467209Y-97080688D01*
X103466874Y-97079555D01*
X103442630Y-96996108D01*
X103442628Y-96996104D01*
X103440909Y-96990186D01*
X103438456Y-96985454D01*
X103436916Y-96980353D01*
X103393269Y-96898262D01*
X103392657Y-96897096D01*
X103352729Y-96820069D01*
X103349892Y-96814596D01*
X103346569Y-96810433D01*
X103344066Y-96805726D01*
X103285245Y-96733604D01*
X103284554Y-96732748D01*
X103253262Y-96693549D01*
X103250758Y-96691045D01*
X103250116Y-96690327D01*
X103246415Y-96685994D01*
X103219065Y-96652460D01*
X103183737Y-96623234D01*
X103174958Y-96615245D01*
X102338308Y-95778595D01*
X102304282Y-95716283D01*
X102309347Y-95645468D01*
X102351894Y-95588632D01*
X102418414Y-95563821D01*
X102427403Y-95563500D01*
X102994340Y-95563500D01*
X103062461Y-95583502D01*
X103083435Y-95600405D01*
X106254595Y-98771566D01*
X106288621Y-98833878D01*
X106291500Y-98860661D01*
X106291500Y-101187440D01*
X106271498Y-101255561D01*
X106217842Y-101302054D01*
X106205377Y-101306964D01*
X106051054Y-101358450D01*
X105900652Y-101451522D01*
X105775695Y-101576697D01*
X105771855Y-101582927D01*
X105771854Y-101582928D01*
X105688692Y-101717842D01*
X105682885Y-101727262D01*
X105659886Y-101796601D01*
X105645650Y-101839524D01*
X105627203Y-101895139D01*
X105626503Y-101901975D01*
X105626502Y-101901978D01*
X105624695Y-101919615D01*
X105616500Y-101999600D01*
X105616500Y-102900400D01*
X105616837Y-102903646D01*
X105616837Y-102903650D01*
X105626751Y-102999196D01*
X105627474Y-103006166D01*
X105629655Y-103012702D01*
X105629655Y-103012704D01*
X105647128Y-103065075D01*
X105683450Y-103173946D01*
X105776522Y-103324348D01*
X105901697Y-103449305D01*
X105907927Y-103453145D01*
X105907928Y-103453146D01*
X106045090Y-103537694D01*
X106052262Y-103542115D01*
X106132005Y-103568564D01*
X106213611Y-103595632D01*
X106213613Y-103595632D01*
X106220139Y-103597797D01*
X106226975Y-103598497D01*
X106226978Y-103598498D01*
X106270031Y-103602909D01*
X106324600Y-103608500D01*
X107675400Y-103608500D01*
X107678646Y-103608163D01*
X107678650Y-103608163D01*
X107774308Y-103598238D01*
X107774312Y-103598237D01*
X107781166Y-103597526D01*
X107787702Y-103595345D01*
X107787704Y-103595345D01*
X107919806Y-103551272D01*
X107948946Y-103541550D01*
X108099348Y-103448478D01*
X108224305Y-103323303D01*
X108228146Y-103317072D01*
X108228148Y-103317070D01*
X108258159Y-103268383D01*
X108310931Y-103220890D01*
X108365418Y-103208500D01*
X108738411Y-103208500D01*
X108806532Y-103228502D01*
X108813975Y-103233674D01*
X108903295Y-103300615D01*
X109039684Y-103351745D01*
X109101866Y-103358500D01*
X111898134Y-103358500D01*
X111960316Y-103351745D01*
X112096705Y-103300615D01*
X112213261Y-103213261D01*
X112300615Y-103096705D01*
X112351745Y-102960316D01*
X112358500Y-102898134D01*
X112358500Y-101301866D01*
X112351745Y-101239684D01*
X112300615Y-101103295D01*
X112213261Y-100986739D01*
X112158886Y-100945987D01*
X116168721Y-100945987D01*
X116177548Y-100957605D01*
X116400281Y-101119430D01*
X116406961Y-101123670D01*
X116676572Y-101271890D01*
X116683707Y-101275247D01*
X116969770Y-101388508D01*
X116977296Y-101390953D01*
X117275279Y-101467462D01*
X117283050Y-101468945D01*
X117588278Y-101507503D01*
X117596169Y-101508000D01*
X117903831Y-101508000D01*
X117911722Y-101507503D01*
X118216950Y-101468945D01*
X118224721Y-101467462D01*
X118522704Y-101390953D01*
X118530230Y-101388508D01*
X118816293Y-101275247D01*
X118823428Y-101271890D01*
X119093039Y-101123670D01*
X119099719Y-101119430D01*
X119322823Y-100957336D01*
X119331246Y-100946413D01*
X119324342Y-100933552D01*
X117762812Y-99372022D01*
X117748868Y-99364408D01*
X117747035Y-99364539D01*
X117740420Y-99368790D01*
X116175334Y-100933876D01*
X116168721Y-100945987D01*
X112158886Y-100945987D01*
X112096705Y-100899385D01*
X111960316Y-100848255D01*
X111898134Y-100841500D01*
X109101866Y-100841500D01*
X109039684Y-100848255D01*
X108903295Y-100899385D01*
X108786739Y-100986739D01*
X108699385Y-101103295D01*
X108648255Y-101239684D01*
X108641500Y-101301866D01*
X108641500Y-101665500D01*
X108621498Y-101733621D01*
X108567842Y-101780114D01*
X108515500Y-101791500D01*
X108426387Y-101791500D01*
X108358266Y-101771498D01*
X108317816Y-101725270D01*
X108316550Y-101726054D01*
X108227332Y-101581880D01*
X108227330Y-101581877D01*
X108223478Y-101575652D01*
X108098303Y-101450695D01*
X108001384Y-101390953D01*
X107953968Y-101361725D01*
X107953966Y-101361724D01*
X107947738Y-101357885D01*
X107794833Y-101307169D01*
X107736473Y-101266739D01*
X107709236Y-101201174D01*
X107708500Y-101187576D01*
X107708500Y-99003958D01*
X115237290Y-99003958D01*
X115256607Y-99310994D01*
X115257600Y-99318855D01*
X115315246Y-99621046D01*
X115317217Y-99628723D01*
X115412284Y-99921309D01*
X115415199Y-99928672D01*
X115546189Y-100207041D01*
X115550001Y-100213974D01*
X115714851Y-100473736D01*
X115719495Y-100480129D01*
X115794497Y-100570790D01*
X115807014Y-100579245D01*
X115817752Y-100573038D01*
X117377978Y-99012812D01*
X117384356Y-99001132D01*
X118114408Y-99001132D01*
X118114539Y-99002965D01*
X118118790Y-99009580D01*
X119681145Y-100571935D01*
X119694407Y-100579177D01*
X119704512Y-100571988D01*
X119780505Y-100480129D01*
X119785149Y-100473736D01*
X119949999Y-100213974D01*
X119953811Y-100207041D01*
X120084801Y-99928672D01*
X120087716Y-99921309D01*
X120182783Y-99628723D01*
X120184754Y-99621046D01*
X120242400Y-99318855D01*
X120243393Y-99310994D01*
X120262710Y-99003958D01*
X120262710Y-98996042D01*
X120243393Y-98689006D01*
X120242400Y-98681145D01*
X120184754Y-98378954D01*
X120182783Y-98371277D01*
X120087716Y-98078691D01*
X120084801Y-98071328D01*
X119953811Y-97792959D01*
X119949999Y-97786026D01*
X119785149Y-97526264D01*
X119780505Y-97519871D01*
X119705503Y-97429210D01*
X119692986Y-97420755D01*
X119682248Y-97426962D01*
X118122022Y-98987188D01*
X118114408Y-99001132D01*
X117384356Y-99001132D01*
X117385592Y-98998868D01*
X117385461Y-98997035D01*
X117381210Y-98990420D01*
X115818855Y-97428065D01*
X115805593Y-97420823D01*
X115795488Y-97428012D01*
X115719495Y-97519871D01*
X115714851Y-97526264D01*
X115550001Y-97786026D01*
X115546189Y-97792959D01*
X115415199Y-98071328D01*
X115412284Y-98078691D01*
X115317217Y-98371277D01*
X115315246Y-98378954D01*
X115257600Y-98681145D01*
X115256607Y-98689006D01*
X115237290Y-98996042D01*
X115237290Y-99003958D01*
X107708500Y-99003958D01*
X107708500Y-98543911D01*
X107708792Y-98535342D01*
X107712209Y-98485223D01*
X107712209Y-98485219D01*
X107712725Y-98477647D01*
X107701736Y-98414685D01*
X107700777Y-98408182D01*
X107694015Y-98352302D01*
X107693102Y-98344758D01*
X107690416Y-98337649D01*
X107689784Y-98335078D01*
X107685324Y-98318772D01*
X107684549Y-98316204D01*
X107683242Y-98308716D01*
X107657561Y-98250212D01*
X107655069Y-98244105D01*
X107635173Y-98191452D01*
X107635173Y-98191451D01*
X107632487Y-98184344D01*
X107628184Y-98178083D01*
X107626947Y-98175717D01*
X107618720Y-98160937D01*
X107617369Y-98158652D01*
X107614315Y-98151695D01*
X107609695Y-98145675D01*
X107609692Y-98145669D01*
X107575421Y-98101009D01*
X107571541Y-98095668D01*
X107539661Y-98049280D01*
X107539656Y-98049275D01*
X107535357Y-98043019D01*
X107488829Y-98001564D01*
X107483554Y-97996584D01*
X106540557Y-97053587D01*
X116168754Y-97053587D01*
X116175658Y-97066448D01*
X117737188Y-98627978D01*
X117751132Y-98635592D01*
X117752965Y-98635461D01*
X117759580Y-98631210D01*
X119324666Y-97066124D01*
X119331279Y-97054013D01*
X119322452Y-97042395D01*
X119099719Y-96880570D01*
X119093039Y-96876330D01*
X118823428Y-96728110D01*
X118816293Y-96724753D01*
X118530230Y-96611492D01*
X118522704Y-96609047D01*
X118224721Y-96532538D01*
X118216950Y-96531055D01*
X117911722Y-96492497D01*
X117903831Y-96492000D01*
X117596169Y-96492000D01*
X117588278Y-96492497D01*
X117283050Y-96531055D01*
X117275279Y-96532538D01*
X116977296Y-96609047D01*
X116969770Y-96611492D01*
X116683707Y-96724753D01*
X116676572Y-96728110D01*
X116406961Y-96876330D01*
X116400281Y-96880570D01*
X116177177Y-97042664D01*
X116168754Y-97053587D01*
X106540557Y-97053587D01*
X104037905Y-94550935D01*
X104003879Y-94488623D01*
X104001000Y-94461840D01*
X104001000Y-93006866D01*
X103994245Y-92944684D01*
X103943115Y-92808295D01*
X103855761Y-92691739D01*
X103739205Y-92604385D01*
X103602816Y-92553255D01*
X103540634Y-92546500D01*
X101539366Y-92546500D01*
X101477184Y-92553255D01*
X101340795Y-92604385D01*
X101273396Y-92654898D01*
X101225065Y-92691120D01*
X101158559Y-92715968D01*
X101089176Y-92700915D01*
X101038946Y-92650741D01*
X101023500Y-92590294D01*
X101023500Y-89996940D01*
X101043502Y-89928819D01*
X101097158Y-89882326D01*
X101167432Y-89872222D01*
X101232012Y-89901716D01*
X101264971Y-89949590D01*
X101265716Y-89949243D01*
X101268037Y-89954220D01*
X101268039Y-89954226D01*
X101360151Y-90151762D01*
X101360154Y-90151767D01*
X101362477Y-90156749D01*
X101493802Y-90344300D01*
X101655700Y-90506198D01*
X101660208Y-90509355D01*
X101660211Y-90509357D01*
X101738389Y-90564098D01*
X101843251Y-90637523D01*
X101848233Y-90639846D01*
X101848238Y-90639849D01*
X102044765Y-90731490D01*
X102050757Y-90734284D01*
X102056065Y-90735706D01*
X102056067Y-90735707D01*
X102266598Y-90792119D01*
X102266600Y-90792119D01*
X102271913Y-90793543D01*
X102500000Y-90813498D01*
X102728087Y-90793543D01*
X102733400Y-90792119D01*
X102733402Y-90792119D01*
X102943933Y-90735707D01*
X102943935Y-90735706D01*
X102949243Y-90734284D01*
X102955235Y-90731490D01*
X103151762Y-90639849D01*
X103151767Y-90639846D01*
X103156749Y-90637523D01*
X103261611Y-90564098D01*
X103339789Y-90509357D01*
X103339792Y-90509355D01*
X103344300Y-90506198D01*
X103506198Y-90344300D01*
X103637523Y-90156749D01*
X103639846Y-90151767D01*
X103639849Y-90151762D01*
X103731961Y-89954225D01*
X103731961Y-89954224D01*
X103734284Y-89949243D01*
X103752215Y-89882326D01*
X103792119Y-89733402D01*
X103792119Y-89733400D01*
X103793543Y-89728087D01*
X103813498Y-89500000D01*
X103793543Y-89271913D01*
X103768825Y-89179666D01*
X103735707Y-89056067D01*
X103735706Y-89056065D01*
X103734284Y-89050757D01*
X103731961Y-89045775D01*
X103639849Y-88848238D01*
X103639846Y-88848233D01*
X103637523Y-88843251D01*
X103634367Y-88838744D01*
X103634366Y-88838742D01*
X103556287Y-88727234D01*
X103533500Y-88654963D01*
X103533500Y-86423970D01*
X103553502Y-86355849D01*
X103561460Y-86345120D01*
X103563096Y-86343489D01*
X103693453Y-86162077D01*
X103706995Y-86134678D01*
X103790136Y-85966453D01*
X103790137Y-85966451D01*
X103792430Y-85961811D01*
X103857370Y-85748069D01*
X103886529Y-85526590D01*
X103888156Y-85460000D01*
X103869852Y-85237361D01*
X103815431Y-85020702D01*
X103726354Y-84815840D01*
X103605014Y-84628277D01*
X103585405Y-84606727D01*
X103566306Y-84585737D01*
X103535254Y-84521891D01*
X103533500Y-84500938D01*
X103533500Y-84341009D01*
X103553502Y-84272888D01*
X103607158Y-84226395D01*
X103612694Y-84224097D01*
X103613296Y-84223768D01*
X103621705Y-84220615D01*
X103738261Y-84133261D01*
X103825615Y-84016705D01*
X103876745Y-83880316D01*
X103883500Y-83818134D01*
X103883500Y-82021866D01*
X103876745Y-81959684D01*
X103825615Y-81823295D01*
X103738261Y-81706739D01*
X103621705Y-81619385D01*
X103613296Y-81616233D01*
X103605425Y-81611923D01*
X103606336Y-81610259D01*
X103558510Y-81574337D01*
X103533807Y-81507776D01*
X103533500Y-81498991D01*
X103533500Y-81086843D01*
X103534237Y-81073236D01*
X103537659Y-81041738D01*
X103537659Y-81041733D01*
X103538324Y-81035612D01*
X103533950Y-80985612D01*
X103533621Y-80980786D01*
X103533500Y-80978314D01*
X103533500Y-80975231D01*
X103530965Y-80949380D01*
X103529310Y-80932494D01*
X103529188Y-80931181D01*
X103523017Y-80860652D01*
X103521087Y-80838587D01*
X103519600Y-80833468D01*
X103519080Y-80828167D01*
X103492209Y-80739166D01*
X103491874Y-80738033D01*
X103467630Y-80654586D01*
X103467628Y-80654582D01*
X103465909Y-80648664D01*
X103463456Y-80643932D01*
X103461916Y-80638831D01*
X103426422Y-80572075D01*
X103418269Y-80556740D01*
X103417657Y-80555574D01*
X103377729Y-80478547D01*
X103374892Y-80473074D01*
X103371569Y-80468911D01*
X103369066Y-80464204D01*
X103310245Y-80392082D01*
X103309554Y-80391226D01*
X103278262Y-80352027D01*
X103275758Y-80349523D01*
X103275116Y-80348805D01*
X103271415Y-80344472D01*
X103244065Y-80310938D01*
X103208733Y-80281709D01*
X103199963Y-80273728D01*
X102256851Y-79330617D01*
X102247749Y-79320473D01*
X102227897Y-79295782D01*
X102224032Y-79290975D01*
X102185578Y-79258708D01*
X102181931Y-79255528D01*
X102180119Y-79253885D01*
X102177925Y-79251691D01*
X102144651Y-79224358D01*
X102143853Y-79223696D01*
X102072526Y-79163846D01*
X102067856Y-79161278D01*
X102063739Y-79157897D01*
X101981914Y-79114023D01*
X101980755Y-79113394D01*
X101904619Y-79071538D01*
X101904611Y-79071535D01*
X101899213Y-79068567D01*
X101894131Y-79066955D01*
X101889437Y-79064438D01*
X101800469Y-79037238D01*
X101799441Y-79036918D01*
X101710694Y-79008765D01*
X101705398Y-79008171D01*
X101700302Y-79006613D01*
X101607743Y-78997210D01*
X101606607Y-78997089D01*
X101572992Y-78993319D01*
X101560270Y-78991892D01*
X101560266Y-78991892D01*
X101556773Y-78991500D01*
X101553246Y-78991500D01*
X101552261Y-78991445D01*
X101546581Y-78990998D01*
X101517175Y-78988011D01*
X101509663Y-78987248D01*
X101509661Y-78987248D01*
X101503538Y-78986626D01*
X101461259Y-78990623D01*
X101457891Y-78990941D01*
X101446033Y-78991500D01*
X96061843Y-78991500D01*
X96048236Y-78990763D01*
X96016738Y-78987341D01*
X96016733Y-78987341D01*
X96010612Y-78986676D01*
X95984362Y-78988973D01*
X95960612Y-78991050D01*
X95955786Y-78991379D01*
X95953314Y-78991500D01*
X95950231Y-78991500D01*
X95938262Y-78992674D01*
X95907494Y-78995690D01*
X95906181Y-78995812D01*
X95861916Y-78999685D01*
X95813587Y-79003913D01*
X95808468Y-79005400D01*
X95803167Y-79005920D01*
X95714166Y-79032791D01*
X95713033Y-79033126D01*
X95629586Y-79057370D01*
X95629582Y-79057372D01*
X95623664Y-79059091D01*
X95618932Y-79061544D01*
X95613831Y-79063084D01*
X95608388Y-79065978D01*
X95531740Y-79106731D01*
X95530574Y-79107343D01*
X95453547Y-79147271D01*
X95448074Y-79150108D01*
X95443911Y-79153431D01*
X95439204Y-79155934D01*
X95367082Y-79214755D01*
X95366226Y-79215446D01*
X95327027Y-79246738D01*
X95324523Y-79249242D01*
X95323805Y-79249884D01*
X95319472Y-79253585D01*
X95285938Y-79280935D01*
X95282011Y-79285682D01*
X95282009Y-79285684D01*
X95256713Y-79316262D01*
X95248723Y-79325042D01*
X94080621Y-80493145D01*
X94070478Y-80502247D01*
X94040975Y-80525968D01*
X94037008Y-80530696D01*
X94008709Y-80564421D01*
X94005528Y-80568069D01*
X94003885Y-80569881D01*
X94001691Y-80572075D01*
X93974358Y-80605349D01*
X93973696Y-80606147D01*
X93913846Y-80677474D01*
X93911278Y-80682144D01*
X93907897Y-80686261D01*
X93880137Y-80738033D01*
X93864023Y-80768086D01*
X93863394Y-80769245D01*
X93821538Y-80845381D01*
X93821535Y-80845389D01*
X93818567Y-80850787D01*
X93816955Y-80855869D01*
X93814438Y-80860563D01*
X93787238Y-80949531D01*
X93786918Y-80950559D01*
X93758765Y-81039306D01*
X93758171Y-81044602D01*
X93756613Y-81049698D01*
X93755990Y-81055834D01*
X93747218Y-81142187D01*
X93747089Y-81143393D01*
X93741500Y-81193227D01*
X93741500Y-81196754D01*
X93741445Y-81197739D01*
X93740998Y-81203419D01*
X93736626Y-81246462D01*
X93737206Y-81252593D01*
X93740941Y-81292109D01*
X93741500Y-81303967D01*
X93741500Y-91677126D01*
X93721498Y-91745247D01*
X93667842Y-91791740D01*
X93597568Y-91801844D01*
X93539935Y-91777952D01*
X93509005Y-91754771D01*
X93509003Y-91754770D01*
X93501818Y-91749385D01*
X93365429Y-91698255D01*
X93303247Y-91691500D01*
X91606979Y-91691500D01*
X91544797Y-91698255D01*
X91408408Y-91749385D01*
X91291852Y-91836739D01*
X91204498Y-91953295D01*
X91153368Y-92089684D01*
X91146613Y-92151866D01*
X91146613Y-92155185D01*
X91122960Y-92222110D01*
X91076957Y-92257804D01*
X91077972Y-92259734D01*
X91067113Y-92265442D01*
X91066868Y-92265632D01*
X91066710Y-92265653D01*
X91028679Y-92285644D01*
X90327135Y-92987188D01*
X90319521Y-93001132D01*
X90319652Y-93002965D01*
X90323903Y-93009580D01*
X91029400Y-93715077D01*
X91071142Y-93737871D01*
X91081142Y-93740047D01*
X91131340Y-93790253D01*
X91146564Y-93843814D01*
X91146613Y-93844719D01*
X91146613Y-93848134D01*
X91153368Y-93910316D01*
X91204498Y-94046705D01*
X91291852Y-94163261D01*
X91408408Y-94250615D01*
X91544797Y-94301745D01*
X91606979Y-94308500D01*
X93303247Y-94308500D01*
X93365429Y-94301745D01*
X93501818Y-94250615D01*
X93523701Y-94234215D01*
X93539935Y-94222048D01*
X93606442Y-94197200D01*
X93675824Y-94212253D01*
X93726054Y-94262427D01*
X93741500Y-94322874D01*
X93741500Y-94938157D01*
X93740763Y-94951764D01*
X93736676Y-94989388D01*
X93737213Y-94995523D01*
X93741050Y-95039388D01*
X93741379Y-95044214D01*
X93741500Y-95046686D01*
X93741500Y-95049769D01*
X93741801Y-95052837D01*
X93745690Y-95092506D01*
X93745812Y-95093819D01*
X93753913Y-95186413D01*
X93755400Y-95191532D01*
X93755920Y-95196833D01*
X93782791Y-95285834D01*
X93783126Y-95286967D01*
X93799984Y-95344989D01*
X93809091Y-95376336D01*
X93811544Y-95381068D01*
X93813084Y-95386169D01*
X93815978Y-95391612D01*
X93856731Y-95468260D01*
X93857343Y-95469426D01*
X93892081Y-95536440D01*
X93900108Y-95551926D01*
X93903431Y-95556089D01*
X93905934Y-95560796D01*
X93964755Y-95632918D01*
X93965446Y-95633774D01*
X93996738Y-95672973D01*
X93999242Y-95675477D01*
X93999884Y-95676195D01*
X94003585Y-95680528D01*
X94030935Y-95714062D01*
X94035682Y-95717989D01*
X94035684Y-95717991D01*
X94066262Y-95743287D01*
X94075042Y-95751277D01*
X96515218Y-98191452D01*
X98954595Y-100630829D01*
X98988621Y-100693141D01*
X98991500Y-100719924D01*
X98991500Y-102495087D01*
X98971498Y-102563208D01*
X98917842Y-102609701D01*
X98847568Y-102619805D01*
X98782988Y-102590311D01*
X98780332Y-102587838D01*
X98775761Y-102581739D01*
X98659205Y-102494385D01*
X98522816Y-102443255D01*
X98460634Y-102436500D01*
X96490660Y-102436500D01*
X96422539Y-102416498D01*
X96401565Y-102399595D01*
X95971450Y-101969480D01*
X95965596Y-101963215D01*
X95965201Y-101962762D01*
X95927561Y-101919615D01*
X95875280Y-101882871D01*
X95869986Y-101878939D01*
X95825693Y-101844209D01*
X95819718Y-101839524D01*
X95812802Y-101836401D01*
X95810516Y-101835017D01*
X95795835Y-101826643D01*
X95793475Y-101825378D01*
X95787261Y-101821010D01*
X95780182Y-101818250D01*
X95780180Y-101818249D01*
X95727725Y-101797798D01*
X95721656Y-101795247D01*
X95663427Y-101768955D01*
X95655960Y-101767571D01*
X95653405Y-101766770D01*
X95637152Y-101762141D01*
X95634572Y-101761478D01*
X95627491Y-101758718D01*
X95619960Y-101757727D01*
X95619958Y-101757726D01*
X95590339Y-101753827D01*
X95564139Y-101750378D01*
X95557641Y-101749348D01*
X95494814Y-101737704D01*
X95487234Y-101738141D01*
X95487233Y-101738141D01*
X95432608Y-101741291D01*
X95425354Y-101741500D01*
X94396311Y-101741500D01*
X94328190Y-101721498D01*
X94289167Y-101681804D01*
X94279078Y-101665500D01*
X94223478Y-101575652D01*
X94098303Y-101450695D01*
X94001384Y-101390953D01*
X93953968Y-101361725D01*
X93953966Y-101361724D01*
X93947738Y-101357885D01*
X93867995Y-101331436D01*
X93786389Y-101304368D01*
X93786387Y-101304368D01*
X93779861Y-101302203D01*
X93773025Y-101301503D01*
X93773022Y-101301502D01*
X93729969Y-101297091D01*
X93675400Y-101291500D01*
X92324600Y-101291500D01*
X92321354Y-101291837D01*
X92321350Y-101291837D01*
X92225692Y-101301762D01*
X92225688Y-101301763D01*
X92218834Y-101302474D01*
X92212298Y-101304655D01*
X92212296Y-101304655D01*
X92204761Y-101307169D01*
X92051054Y-101358450D01*
X91900652Y-101451522D01*
X91775695Y-101576697D01*
X91682885Y-101727262D01*
X91681205Y-101726226D01*
X91640879Y-101772031D01*
X91573595Y-101791500D01*
X91484500Y-101791500D01*
X91416379Y-101771498D01*
X91369886Y-101717842D01*
X91358500Y-101665500D01*
X91358500Y-101301866D01*
X91351745Y-101239684D01*
X91300615Y-101103295D01*
X91213261Y-100986739D01*
X91096705Y-100899385D01*
X90960316Y-100848255D01*
X90898134Y-100841500D01*
X88101866Y-100841500D01*
X88039684Y-100848255D01*
X87903295Y-100899385D01*
X87786739Y-100986739D01*
X87699385Y-101103295D01*
X87648255Y-101239684D01*
X87641500Y-101301866D01*
X87641500Y-102898134D01*
X87648255Y-102960316D01*
X87699385Y-103096705D01*
X87786739Y-103213261D01*
X87903295Y-103300615D01*
X88039684Y-103351745D01*
X88101866Y-103358500D01*
X90898134Y-103358500D01*
X90960316Y-103351745D01*
X91096705Y-103300615D01*
X91186024Y-103233674D01*
X91252530Y-103208826D01*
X91261589Y-103208500D01*
X91634631Y-103208500D01*
X91702752Y-103228502D01*
X91741772Y-103268193D01*
X91776522Y-103324348D01*
X91901697Y-103449305D01*
X91907927Y-103453145D01*
X91907928Y-103453146D01*
X92045090Y-103537694D01*
X92052262Y-103542115D01*
X92132005Y-103568564D01*
X92213611Y-103595632D01*
X92213613Y-103595632D01*
X92220139Y-103597797D01*
X92226975Y-103598497D01*
X92226978Y-103598498D01*
X92270031Y-103602909D01*
X92324600Y-103608500D01*
X93675400Y-103608500D01*
X93678646Y-103608163D01*
X93678650Y-103608163D01*
X93774308Y-103598238D01*
X93774312Y-103598237D01*
X93781166Y-103597526D01*
X93787702Y-103595345D01*
X93787704Y-103595345D01*
X93919806Y-103551272D01*
X93948946Y-103541550D01*
X94099348Y-103448478D01*
X94224305Y-103323303D01*
X94288979Y-103218383D01*
X94341750Y-103170891D01*
X94396238Y-103158500D01*
X95104339Y-103158500D01*
X95172460Y-103178502D01*
X95193435Y-103195405D01*
X95962096Y-103964067D01*
X95996121Y-104026379D01*
X95999000Y-104053162D01*
X95999000Y-104993134D01*
X96005755Y-105055316D01*
X96022356Y-105099600D01*
X96034581Y-105132209D01*
X96039764Y-105203017D01*
X96005843Y-105265386D01*
X95943588Y-105299515D01*
X95872764Y-105294568D01*
X95827504Y-105265534D01*
X95631450Y-105069480D01*
X95625596Y-105063215D01*
X95611852Y-105047460D01*
X95587561Y-105019615D01*
X95535280Y-104982871D01*
X95529986Y-104978939D01*
X95485693Y-104944209D01*
X95479718Y-104939524D01*
X95472802Y-104936401D01*
X95470516Y-104935017D01*
X95455835Y-104926643D01*
X95453475Y-104925378D01*
X95447261Y-104921010D01*
X95440182Y-104918250D01*
X95440180Y-104918249D01*
X95387725Y-104897798D01*
X95381656Y-104895247D01*
X95323427Y-104868955D01*
X95315960Y-104867571D01*
X95313405Y-104866770D01*
X95297152Y-104862141D01*
X95294572Y-104861478D01*
X95287491Y-104858718D01*
X95279960Y-104857727D01*
X95279958Y-104857726D01*
X95250339Y-104853827D01*
X95224139Y-104850378D01*
X95217641Y-104849348D01*
X95154814Y-104837704D01*
X95147234Y-104838141D01*
X95147233Y-104838141D01*
X95092608Y-104841291D01*
X95085354Y-104841500D01*
X94396311Y-104841500D01*
X94328190Y-104821498D01*
X94289167Y-104781804D01*
X94223478Y-104675652D01*
X94098303Y-104550695D01*
X94005870Y-104493718D01*
X93953968Y-104461725D01*
X93953966Y-104461724D01*
X93947738Y-104457885D01*
X93787254Y-104404655D01*
X93786389Y-104404368D01*
X93786387Y-104404368D01*
X93779861Y-104402203D01*
X93773025Y-104401503D01*
X93773022Y-104401502D01*
X93729969Y-104397091D01*
X93675400Y-104391500D01*
X92324600Y-104391500D01*
X92321354Y-104391837D01*
X92321350Y-104391837D01*
X92225692Y-104401762D01*
X92225688Y-104401763D01*
X92218834Y-104402474D01*
X92212298Y-104404655D01*
X92212296Y-104404655D01*
X92080194Y-104448728D01*
X92051054Y-104458450D01*
X91900652Y-104551522D01*
X91775695Y-104676697D01*
X91771855Y-104682927D01*
X91771854Y-104682928D01*
X91688006Y-104818955D01*
X91682885Y-104827262D01*
X91659886Y-104896601D01*
X91633771Y-104975338D01*
X91627203Y-104995139D01*
X91626503Y-105001975D01*
X91626502Y-105001978D01*
X91625021Y-105016435D01*
X91616500Y-105099600D01*
X91616500Y-105879340D01*
X91596498Y-105947461D01*
X91579595Y-105968435D01*
X91532826Y-106015204D01*
X91470514Y-106049230D01*
X91399699Y-106044165D01*
X91342863Y-106001618D01*
X91325749Y-105970339D01*
X91303767Y-105911703D01*
X91300615Y-105903295D01*
X91213261Y-105786739D01*
X91096705Y-105699385D01*
X90960316Y-105648255D01*
X90898134Y-105641500D01*
X88101866Y-105641500D01*
X88039684Y-105648255D01*
X87903295Y-105699385D01*
X87786739Y-105786739D01*
X87699385Y-105903295D01*
X87648255Y-106039684D01*
X87641500Y-106101866D01*
X87641500Y-107698134D01*
X75508500Y-107698134D01*
X75508500Y-100945987D01*
X80668721Y-100945987D01*
X80677548Y-100957605D01*
X80900281Y-101119430D01*
X80906961Y-101123670D01*
X81176572Y-101271890D01*
X81183707Y-101275247D01*
X81469770Y-101388508D01*
X81477296Y-101390953D01*
X81775279Y-101467462D01*
X81783050Y-101468945D01*
X82088278Y-101507503D01*
X82096169Y-101508000D01*
X82403831Y-101508000D01*
X82411722Y-101507503D01*
X82716950Y-101468945D01*
X82724721Y-101467462D01*
X83022704Y-101390953D01*
X83030230Y-101388508D01*
X83316293Y-101275247D01*
X83323428Y-101271890D01*
X83593039Y-101123670D01*
X83599719Y-101119430D01*
X83822823Y-100957336D01*
X83831246Y-100946413D01*
X83824342Y-100933552D01*
X82262812Y-99372022D01*
X82248868Y-99364408D01*
X82247035Y-99364539D01*
X82240420Y-99368790D01*
X80675334Y-100933876D01*
X80668721Y-100945987D01*
X75508500Y-100945987D01*
X75508500Y-99003958D01*
X79737290Y-99003958D01*
X79756607Y-99310994D01*
X79757600Y-99318855D01*
X79815246Y-99621046D01*
X79817217Y-99628723D01*
X79912284Y-99921309D01*
X79915199Y-99928672D01*
X80046189Y-100207041D01*
X80050001Y-100213974D01*
X80214851Y-100473736D01*
X80219495Y-100480129D01*
X80294497Y-100570790D01*
X80307014Y-100579245D01*
X80317752Y-100573038D01*
X81877978Y-99012812D01*
X81884356Y-99001132D01*
X82614408Y-99001132D01*
X82614539Y-99002965D01*
X82618790Y-99009580D01*
X84181145Y-100571935D01*
X84194407Y-100579177D01*
X84204512Y-100571988D01*
X84280505Y-100480129D01*
X84285149Y-100473736D01*
X84449999Y-100213974D01*
X84453811Y-100207041D01*
X84584801Y-99928672D01*
X84587716Y-99921309D01*
X84682783Y-99628723D01*
X84684754Y-99621046D01*
X84742400Y-99318855D01*
X84743393Y-99310994D01*
X84762710Y-99003958D01*
X84762710Y-98996042D01*
X84743393Y-98689006D01*
X84742400Y-98681145D01*
X84684754Y-98378954D01*
X84682783Y-98371277D01*
X84587716Y-98078691D01*
X84584801Y-98071328D01*
X84453811Y-97792959D01*
X84449999Y-97786026D01*
X84285149Y-97526264D01*
X84280505Y-97519871D01*
X84205503Y-97429210D01*
X84192986Y-97420755D01*
X84182248Y-97426962D01*
X82622022Y-98987188D01*
X82614408Y-99001132D01*
X81884356Y-99001132D01*
X81885592Y-98998868D01*
X81885461Y-98997035D01*
X81881210Y-98990420D01*
X80318855Y-97428065D01*
X80305593Y-97420823D01*
X80295488Y-97428012D01*
X80219495Y-97519871D01*
X80214851Y-97526264D01*
X80050001Y-97786026D01*
X80046189Y-97792959D01*
X79915199Y-98071328D01*
X79912284Y-98078691D01*
X79817217Y-98371277D01*
X79815246Y-98378954D01*
X79757600Y-98681145D01*
X79756607Y-98689006D01*
X79737290Y-98996042D01*
X79737290Y-99003958D01*
X75508500Y-99003958D01*
X75508500Y-97053587D01*
X80668754Y-97053587D01*
X80675658Y-97066448D01*
X82237188Y-98627978D01*
X82251132Y-98635592D01*
X82252965Y-98635461D01*
X82259580Y-98631210D01*
X83824666Y-97066124D01*
X83831279Y-97054013D01*
X83822452Y-97042395D01*
X83599719Y-96880570D01*
X83593039Y-96876330D01*
X83323428Y-96728110D01*
X83316293Y-96724753D01*
X83030230Y-96611492D01*
X83022704Y-96609047D01*
X82724721Y-96532538D01*
X82716950Y-96531055D01*
X82411722Y-96492497D01*
X82403831Y-96492000D01*
X82096169Y-96492000D01*
X82088278Y-96492497D01*
X81783050Y-96531055D01*
X81775279Y-96532538D01*
X81477296Y-96609047D01*
X81469770Y-96611492D01*
X81183707Y-96724753D01*
X81176572Y-96728110D01*
X80906961Y-96876330D01*
X80900281Y-96880570D01*
X80677177Y-97042664D01*
X80668754Y-97053587D01*
X75508500Y-97053587D01*
X75508500Y-94086062D01*
X89233606Y-94086062D01*
X89242902Y-94098077D01*
X89294107Y-94133931D01*
X89303602Y-94139414D01*
X89501060Y-94231490D01*
X89511352Y-94235236D01*
X89721801Y-94291625D01*
X89732594Y-94293528D01*
X89949638Y-94312517D01*
X89960588Y-94312517D01*
X90177632Y-94293528D01*
X90188425Y-94291625D01*
X90398874Y-94235236D01*
X90409166Y-94231490D01*
X90606624Y-94139414D01*
X90616119Y-94133931D01*
X90668161Y-94097491D01*
X90676537Y-94087012D01*
X90669469Y-94073566D01*
X89967925Y-93372022D01*
X89953981Y-93364408D01*
X89952148Y-93364539D01*
X89945533Y-93368790D01*
X89240036Y-94074287D01*
X89233606Y-94086062D01*
X75508500Y-94086062D01*
X75508500Y-93005475D01*
X88642596Y-93005475D01*
X88661585Y-93222519D01*
X88663488Y-93233312D01*
X88719877Y-93443761D01*
X88723623Y-93454053D01*
X88815699Y-93651511D01*
X88821182Y-93661006D01*
X88857622Y-93713048D01*
X88868101Y-93721424D01*
X88881547Y-93714356D01*
X89583091Y-93012812D01*
X89590705Y-92998868D01*
X89590574Y-92997035D01*
X89586323Y-92990420D01*
X88880826Y-92284923D01*
X88869051Y-92278493D01*
X88857036Y-92287789D01*
X88821182Y-92338994D01*
X88815699Y-92348489D01*
X88723623Y-92545947D01*
X88719877Y-92556239D01*
X88663488Y-92766688D01*
X88661585Y-92777481D01*
X88642596Y-92994525D01*
X88642596Y-93005475D01*
X75508500Y-93005475D01*
X75508500Y-91912988D01*
X89233689Y-91912988D01*
X89240757Y-91926434D01*
X89942301Y-92627978D01*
X89956245Y-92635592D01*
X89958078Y-92635461D01*
X89964693Y-92631210D01*
X90670190Y-91925713D01*
X90676620Y-91913938D01*
X90667324Y-91901923D01*
X90616119Y-91866069D01*
X90606624Y-91860586D01*
X90409166Y-91768510D01*
X90398874Y-91764764D01*
X90188425Y-91708375D01*
X90177632Y-91706472D01*
X89960588Y-91687483D01*
X89949638Y-91687483D01*
X89732594Y-91706472D01*
X89721801Y-91708375D01*
X89511352Y-91764764D01*
X89501060Y-91768510D01*
X89303602Y-91860586D01*
X89294107Y-91866069D01*
X89242065Y-91902509D01*
X89233689Y-91912988D01*
X75508500Y-91912988D01*
X75508500Y-78384500D01*
X75528502Y-78316379D01*
X75582158Y-78269886D01*
X75634500Y-78258500D01*
X124365500Y-78258500D01*
X124433621Y-78278502D01*
G37*
%TD.AperFunction*%
%TA.AperFunction,Conductor*%
G36*
X101098195Y-81028502D02*
G01*
X101119169Y-81045404D01*
X101479595Y-81405829D01*
X101513620Y-81468142D01*
X101516500Y-81494925D01*
X101516500Y-81498991D01*
X101496498Y-81567112D01*
X101442842Y-81613605D01*
X101437306Y-81615903D01*
X101436704Y-81616232D01*
X101428295Y-81619385D01*
X101311739Y-81706739D01*
X101224385Y-81823295D01*
X101221233Y-81831703D01*
X101179919Y-81941907D01*
X101137277Y-81998671D01*
X101070716Y-82023371D01*
X101001367Y-82008163D01*
X100968743Y-81982476D01*
X100918151Y-81926875D01*
X100918142Y-81926866D01*
X100914670Y-81923051D01*
X100910619Y-81919852D01*
X100910615Y-81919848D01*
X100743414Y-81787800D01*
X100743410Y-81787798D01*
X100739359Y-81784598D01*
X100703028Y-81764542D01*
X100622205Y-81719926D01*
X100543789Y-81676638D01*
X100538920Y-81674914D01*
X100538916Y-81674912D01*
X100338087Y-81603795D01*
X100338083Y-81603794D01*
X100333212Y-81602069D01*
X100328119Y-81601162D01*
X100328116Y-81601161D01*
X100118373Y-81563800D01*
X100118367Y-81563799D01*
X100113284Y-81562894D01*
X100039452Y-81561992D01*
X99895081Y-81560228D01*
X99895079Y-81560228D01*
X99889911Y-81560165D01*
X99669091Y-81593955D01*
X99456756Y-81663357D01*
X99258607Y-81766507D01*
X99254474Y-81769610D01*
X99254471Y-81769612D01*
X99084100Y-81897530D01*
X99079965Y-81900635D01*
X99054541Y-81927240D01*
X98986280Y-81998671D01*
X98925629Y-82062138D01*
X98922715Y-82066410D01*
X98922714Y-82066411D01*
X98817898Y-82220066D01*
X98762987Y-82265069D01*
X98692462Y-82273240D01*
X98628715Y-82241986D01*
X98608018Y-82217502D01*
X98527426Y-82092926D01*
X98521136Y-82084757D01*
X98377806Y-81927240D01*
X98370273Y-81920215D01*
X98203139Y-81788222D01*
X98194552Y-81782517D01*
X98008117Y-81679599D01*
X97998705Y-81675369D01*
X97797959Y-81604280D01*
X97787988Y-81601646D01*
X97716837Y-81588972D01*
X97703540Y-81590432D01*
X97699000Y-81604989D01*
X97699000Y-86778517D01*
X97703064Y-86792359D01*
X97716478Y-86794393D01*
X97723184Y-86793534D01*
X97733262Y-86791392D01*
X97937255Y-86730191D01*
X97946842Y-86726433D01*
X98138095Y-86632739D01*
X98146945Y-86627464D01*
X98320328Y-86503792D01*
X98328200Y-86497139D01*
X98479052Y-86346812D01*
X98485730Y-86338965D01*
X98613022Y-86161819D01*
X98614279Y-86162722D01*
X98661373Y-86119362D01*
X98731311Y-86107145D01*
X98796751Y-86134678D01*
X98824579Y-86166511D01*
X98884987Y-86265088D01*
X98975738Y-86369854D01*
X99005220Y-86434437D01*
X99006500Y-86452349D01*
X99006500Y-89111545D01*
X98986498Y-89179666D01*
X98932842Y-89226159D01*
X98862568Y-89236263D01*
X98797988Y-89206769D01*
X98758793Y-89144156D01*
X98735236Y-89056239D01*
X98731490Y-89045947D01*
X98639414Y-88848489D01*
X98633931Y-88838994D01*
X98597491Y-88786952D01*
X98587012Y-88778576D01*
X98573566Y-88785644D01*
X97872022Y-89487188D01*
X97864408Y-89501132D01*
X97864539Y-89502965D01*
X97868790Y-89509580D01*
X98574287Y-90215077D01*
X98586062Y-90221507D01*
X98598077Y-90212211D01*
X98633931Y-90161006D01*
X98639414Y-90151511D01*
X98731490Y-89954053D01*
X98735236Y-89943761D01*
X98758793Y-89855844D01*
X98795745Y-89795221D01*
X98859605Y-89764200D01*
X98930100Y-89772628D01*
X98984847Y-89817831D01*
X99006500Y-89888455D01*
X99006500Y-92881816D01*
X98986498Y-92949937D01*
X98971594Y-92968867D01*
X98950998Y-92990420D01*
X98860699Y-93084912D01*
X98835160Y-93122351D01*
X98780249Y-93167352D01*
X98709725Y-93175523D01*
X98645978Y-93144269D01*
X98625284Y-93119790D01*
X98623915Y-93117674D01*
X98617622Y-93109502D01*
X98462950Y-92939520D01*
X98455417Y-92932494D01*
X98275056Y-92790055D01*
X98266469Y-92784350D01*
X98065278Y-92673286D01*
X98055866Y-92669056D01*
X97839232Y-92592341D01*
X97829261Y-92589707D01*
X97731837Y-92572353D01*
X97718540Y-92573813D01*
X97714000Y-92588370D01*
X97714000Y-95523096D01*
X97717918Y-95536440D01*
X97732194Y-95538427D01*
X97794515Y-95528890D01*
X97804543Y-95526501D01*
X98022988Y-95455102D01*
X98032497Y-95451105D01*
X98236344Y-95344989D01*
X98245069Y-95339495D01*
X98428852Y-95201507D01*
X98436559Y-95194664D01*
X98595339Y-95028509D01*
X98601823Y-95020502D01*
X98624237Y-94987644D01*
X98679148Y-94942641D01*
X98749672Y-94934468D01*
X98813420Y-94965722D01*
X98834116Y-94990204D01*
X98838498Y-94996977D01*
X99000186Y-95174670D01*
X99004243Y-95177874D01*
X99020878Y-95191012D01*
X99058513Y-95240867D01*
X99059091Y-95242858D01*
X99061544Y-95247590D01*
X99063084Y-95252691D01*
X99065978Y-95258134D01*
X99106731Y-95334782D01*
X99107343Y-95335948D01*
X99133376Y-95386169D01*
X99150108Y-95418448D01*
X99153431Y-95422611D01*
X99155934Y-95427318D01*
X99214755Y-95499440D01*
X99215446Y-95500296D01*
X99246738Y-95539495D01*
X99249242Y-95541999D01*
X99249884Y-95542717D01*
X99253585Y-95547050D01*
X99280935Y-95580584D01*
X99285682Y-95584511D01*
X99285684Y-95584513D01*
X99316262Y-95609809D01*
X99325042Y-95617799D01*
X100403550Y-96696306D01*
X101454595Y-97747351D01*
X101488620Y-97809663D01*
X101491500Y-97836446D01*
X101491500Y-102829370D01*
X101471498Y-102897491D01*
X101456594Y-102916421D01*
X101400699Y-102974912D01*
X101375465Y-103011903D01*
X101320556Y-103056904D01*
X101250032Y-103065075D01*
X101186284Y-103033821D01*
X101165589Y-103009340D01*
X101164311Y-103007365D01*
X101161502Y-103003023D01*
X101158028Y-102999205D01*
X101158021Y-102999196D01*
X101041306Y-102870928D01*
X101010254Y-102807083D01*
X101008500Y-102786129D01*
X101008500Y-100311842D01*
X101009237Y-100298235D01*
X101012659Y-100266737D01*
X101012659Y-100266732D01*
X101013324Y-100260611D01*
X101008950Y-100210609D01*
X101008621Y-100205784D01*
X101008500Y-100203313D01*
X101008500Y-100200231D01*
X101004309Y-100157489D01*
X101004187Y-100156174D01*
X100996623Y-100069719D01*
X100996087Y-100063587D01*
X100994600Y-100058468D01*
X100994080Y-100053167D01*
X100967218Y-99964194D01*
X100966862Y-99962994D01*
X100940909Y-99873663D01*
X100938455Y-99868929D01*
X100936916Y-99863831D01*
X100893316Y-99781831D01*
X100892702Y-99780663D01*
X100852726Y-99703541D01*
X100852725Y-99703540D01*
X100849892Y-99698074D01*
X100846569Y-99693911D01*
X100844066Y-99689204D01*
X100785245Y-99617082D01*
X100784554Y-99616226D01*
X100753262Y-99577027D01*
X100750758Y-99574523D01*
X100750116Y-99573805D01*
X100746415Y-99569472D01*
X100719065Y-99535938D01*
X100683737Y-99506712D01*
X100674958Y-99498723D01*
X96875525Y-95699290D01*
X96841499Y-95636979D01*
X96846564Y-95566164D01*
X96889111Y-95509328D01*
X96955631Y-95484517D01*
X97006679Y-95491423D01*
X97080764Y-95517658D01*
X97090739Y-95520293D01*
X97188163Y-95537647D01*
X97201460Y-95536187D01*
X97206000Y-95521630D01*
X97206000Y-92586904D01*
X97202082Y-92573560D01*
X97187806Y-92571573D01*
X97125485Y-92581110D01*
X97115457Y-92583499D01*
X96897012Y-92654898D01*
X96887503Y-92658895D01*
X96683656Y-92765011D01*
X96674931Y-92770505D01*
X96491148Y-92908493D01*
X96483441Y-92915336D01*
X96324661Y-93081491D01*
X96318174Y-93089501D01*
X96188670Y-93279347D01*
X96183571Y-93288321D01*
X96086813Y-93496769D01*
X96083250Y-93506456D01*
X96021835Y-93727909D01*
X96019904Y-93738029D01*
X96009787Y-93832695D01*
X95982659Y-93898305D01*
X95924366Y-93938833D01*
X95853417Y-93941412D01*
X95792336Y-93905223D01*
X95760516Y-93841756D01*
X95758500Y-93819306D01*
X95758500Y-93811842D01*
X95759237Y-93798235D01*
X95762659Y-93766737D01*
X95762659Y-93766732D01*
X95763324Y-93760611D01*
X95758979Y-93710946D01*
X95758500Y-93699965D01*
X95758500Y-93311840D01*
X95759237Y-93298232D01*
X95762659Y-93266736D01*
X95762659Y-93266732D01*
X95763324Y-93260611D01*
X95758979Y-93210946D01*
X95758500Y-93199965D01*
X95758500Y-92307904D01*
X95759145Y-92295171D01*
X95762752Y-92259666D01*
X95762752Y-92259661D01*
X95763374Y-92253538D01*
X95759059Y-92207891D01*
X95758500Y-92196033D01*
X95758500Y-90586062D01*
X96778493Y-90586062D01*
X96787789Y-90598077D01*
X96838994Y-90633931D01*
X96848489Y-90639414D01*
X97045947Y-90731490D01*
X97056239Y-90735236D01*
X97266688Y-90791625D01*
X97277481Y-90793528D01*
X97494525Y-90812517D01*
X97505475Y-90812517D01*
X97722519Y-90793528D01*
X97733312Y-90791625D01*
X97943761Y-90735236D01*
X97954053Y-90731490D01*
X98151511Y-90639414D01*
X98161006Y-90633931D01*
X98213048Y-90597491D01*
X98221424Y-90587012D01*
X98214356Y-90573566D01*
X97512812Y-89872022D01*
X97498868Y-89864408D01*
X97497035Y-89864539D01*
X97490420Y-89868790D01*
X96784923Y-90574287D01*
X96778493Y-90586062D01*
X95758500Y-90586062D01*
X95758500Y-89505475D01*
X96187483Y-89505475D01*
X96206472Y-89722519D01*
X96208375Y-89733312D01*
X96264764Y-89943761D01*
X96268510Y-89954053D01*
X96360586Y-90151511D01*
X96366069Y-90161006D01*
X96402509Y-90213048D01*
X96412988Y-90221424D01*
X96426434Y-90214356D01*
X97127978Y-89512812D01*
X97135592Y-89498868D01*
X97135461Y-89497035D01*
X97131210Y-89490420D01*
X96425713Y-88784923D01*
X96413938Y-88778493D01*
X96401923Y-88787789D01*
X96366069Y-88838994D01*
X96360586Y-88848489D01*
X96268510Y-89045947D01*
X96264764Y-89056239D01*
X96208375Y-89266688D01*
X96206472Y-89277481D01*
X96187483Y-89494525D01*
X96187483Y-89505475D01*
X95758500Y-89505475D01*
X95758500Y-88412988D01*
X96778576Y-88412988D01*
X96785644Y-88426434D01*
X97487188Y-89127978D01*
X97501132Y-89135592D01*
X97502965Y-89135461D01*
X97509580Y-89131210D01*
X98215077Y-88425713D01*
X98221507Y-88413938D01*
X98212211Y-88401923D01*
X98161006Y-88366069D01*
X98151511Y-88360586D01*
X97954053Y-88268510D01*
X97943761Y-88264764D01*
X97733312Y-88208375D01*
X97722519Y-88206472D01*
X97505475Y-88187483D01*
X97494525Y-88187483D01*
X97277481Y-88206472D01*
X97266688Y-88208375D01*
X97056239Y-88264764D01*
X97045947Y-88268510D01*
X96848489Y-88360586D01*
X96838994Y-88366069D01*
X96786952Y-88402509D01*
X96778576Y-88412988D01*
X95758500Y-88412988D01*
X95758500Y-85727966D01*
X96113257Y-85727966D01*
X96143565Y-85862446D01*
X96146645Y-85872275D01*
X96226770Y-86069603D01*
X96231413Y-86078794D01*
X96342694Y-86260388D01*
X96348777Y-86268699D01*
X96488213Y-86429667D01*
X96495580Y-86436883D01*
X96659434Y-86572916D01*
X96667881Y-86578831D01*
X96851756Y-86686279D01*
X96861042Y-86690729D01*
X97060001Y-86766703D01*
X97069899Y-86769579D01*
X97173250Y-86790606D01*
X97187299Y-86789410D01*
X97191000Y-86779065D01*
X97191000Y-85732115D01*
X97186525Y-85716876D01*
X97185135Y-85715671D01*
X97177452Y-85714000D01*
X96128225Y-85714000D01*
X96114694Y-85717973D01*
X96113257Y-85727966D01*
X95758500Y-85727966D01*
X95758500Y-85194183D01*
X96109389Y-85194183D01*
X96110912Y-85202607D01*
X96123292Y-85206000D01*
X97172885Y-85206000D01*
X97188124Y-85201525D01*
X97189329Y-85200135D01*
X97191000Y-85192452D01*
X97191000Y-83192115D01*
X97186525Y-83176876D01*
X97185135Y-83175671D01*
X97177452Y-83174000D01*
X96128225Y-83174000D01*
X96114694Y-83177973D01*
X96113257Y-83187966D01*
X96143565Y-83322446D01*
X96146645Y-83332275D01*
X96226770Y-83529603D01*
X96231413Y-83538794D01*
X96342694Y-83720388D01*
X96348777Y-83728699D01*
X96488213Y-83889667D01*
X96495580Y-83896883D01*
X96659434Y-84032916D01*
X96667881Y-84038831D01*
X96737479Y-84079501D01*
X96786203Y-84131140D01*
X96799274Y-84200923D01*
X96772543Y-84266694D01*
X96732087Y-84300053D01*
X96723462Y-84304542D01*
X96714738Y-84310036D01*
X96544433Y-84437905D01*
X96536726Y-84444748D01*
X96389590Y-84598717D01*
X96383104Y-84606727D01*
X96263098Y-84782649D01*
X96258000Y-84791623D01*
X96168338Y-84984783D01*
X96164775Y-84994470D01*
X96109389Y-85194183D01*
X95758500Y-85194183D01*
X95758500Y-82654183D01*
X96109389Y-82654183D01*
X96110912Y-82662607D01*
X96123292Y-82666000D01*
X97172885Y-82666000D01*
X97188124Y-82661525D01*
X97189329Y-82660135D01*
X97191000Y-82652452D01*
X97191000Y-81603102D01*
X97187082Y-81589758D01*
X97172806Y-81587771D01*
X97134324Y-81593660D01*
X97124288Y-81596051D01*
X96921868Y-81662212D01*
X96912359Y-81666209D01*
X96723463Y-81764542D01*
X96714738Y-81770036D01*
X96544433Y-81897905D01*
X96536726Y-81904748D01*
X96389590Y-82058717D01*
X96383104Y-82066727D01*
X96263098Y-82242649D01*
X96258000Y-82251623D01*
X96168338Y-82444783D01*
X96164775Y-82454470D01*
X96109389Y-82654183D01*
X95758500Y-82654183D01*
X95758500Y-81719926D01*
X95778502Y-81651805D01*
X95795404Y-81630831D01*
X96380829Y-81045405D01*
X96443142Y-81011380D01*
X96469925Y-81008500D01*
X101030074Y-81008500D01*
X101098195Y-81028502D01*
G37*
%TD.AperFunction*%
%TD*%
%TA.AperFunction,NonConductor*%
G36*
X98797026Y-83595144D02*
G01*
X98824875Y-83626994D01*
X98884987Y-83725088D01*
X98975738Y-83829854D01*
X99005220Y-83894437D01*
X99006500Y-83912349D01*
X99006500Y-84466987D01*
X98986498Y-84535108D01*
X98971593Y-84554039D01*
X98929206Y-84598394D01*
X98929201Y-84598400D01*
X98925629Y-84602138D01*
X98818201Y-84759621D01*
X98763293Y-84804621D01*
X98692768Y-84812792D01*
X98629021Y-84781538D01*
X98608324Y-84757054D01*
X98527825Y-84632621D01*
X98527820Y-84632615D01*
X98525014Y-84628277D01*
X98505113Y-84606406D01*
X98486306Y-84585737D01*
X98455254Y-84521891D01*
X98453500Y-84500938D01*
X98453500Y-83883970D01*
X98473502Y-83815849D01*
X98481460Y-83805120D01*
X98483096Y-83803489D01*
X98613453Y-83622077D01*
X98614776Y-83623028D01*
X98661645Y-83579857D01*
X98731580Y-83567625D01*
X98797026Y-83595144D01*
G37*
%TD.AperFunction*%
%TA.AperFunction,NonConductor*%
G36*
X98797026Y-86135144D02*
G01*
X98824875Y-86166994D01*
X98884987Y-86265088D01*
X98975738Y-86369854D01*
X99005220Y-86434437D01*
X99006500Y-86452349D01*
X99006500Y-89109614D01*
X98986498Y-89177735D01*
X98932842Y-89224228D01*
X98862568Y-89234332D01*
X98797988Y-89204838D01*
X98758793Y-89142225D01*
X98735707Y-89056067D01*
X98735706Y-89056065D01*
X98734284Y-89050757D01*
X98731961Y-89045775D01*
X98639849Y-88848238D01*
X98639846Y-88848233D01*
X98637523Y-88843251D01*
X98556287Y-88727234D01*
X98509357Y-88660211D01*
X98509355Y-88660208D01*
X98506198Y-88655700D01*
X98490405Y-88639907D01*
X98456379Y-88577595D01*
X98453500Y-88550812D01*
X98453500Y-86423970D01*
X98473502Y-86355849D01*
X98481460Y-86345120D01*
X98483096Y-86343489D01*
X98613453Y-86162077D01*
X98614776Y-86163028D01*
X98661645Y-86119857D01*
X98731580Y-86107625D01*
X98797026Y-86135144D01*
G37*
%TD.AperFunction*%
%TA.AperFunction,NonConductor*%
G36*
X98930100Y-89774559D02*
G01*
X98984847Y-89819762D01*
X99006500Y-89890386D01*
X99006500Y-92881816D01*
X98986498Y-92949937D01*
X98971594Y-92968867D01*
X98860699Y-93084912D01*
X98835465Y-93121903D01*
X98780556Y-93166904D01*
X98710032Y-93175075D01*
X98646284Y-93143821D01*
X98625589Y-93119340D01*
X98624311Y-93117365D01*
X98621502Y-93113023D01*
X98618028Y-93109205D01*
X98618021Y-93109196D01*
X98486306Y-92964443D01*
X98455254Y-92900598D01*
X98453500Y-92879644D01*
X98453500Y-90449188D01*
X98473502Y-90381067D01*
X98490405Y-90360093D01*
X98506198Y-90344300D01*
X98535683Y-90302192D01*
X98634366Y-90161257D01*
X98637523Y-90156749D01*
X98639846Y-90151767D01*
X98639849Y-90151762D01*
X98731961Y-89954225D01*
X98731961Y-89954224D01*
X98734284Y-89949243D01*
X98758793Y-89857775D01*
X98795745Y-89797152D01*
X98859606Y-89766131D01*
X98930100Y-89774559D01*
G37*
%TD.AperFunction*%
%TA.AperFunction,NonConductor*%
G36*
X98118461Y-81028502D02*
G01*
X98164954Y-81082158D01*
X98175058Y-81152432D01*
X98145564Y-81217012D01*
X98139435Y-81223595D01*
X97812316Y-81550714D01*
X97750004Y-81584740D01*
X97701125Y-81585666D01*
X97578373Y-81563800D01*
X97578367Y-81563799D01*
X97573284Y-81562894D01*
X97499452Y-81561992D01*
X97355081Y-81560228D01*
X97355079Y-81560228D01*
X97349911Y-81560165D01*
X97129091Y-81593955D01*
X96916756Y-81663357D01*
X96718607Y-81766507D01*
X96714474Y-81769610D01*
X96714471Y-81769612D01*
X96544100Y-81897530D01*
X96539965Y-81900635D01*
X96385629Y-82062138D01*
X96259743Y-82246680D01*
X96165688Y-82449305D01*
X96105989Y-82664570D01*
X96082251Y-82886695D01*
X96095110Y-83109715D01*
X96096247Y-83114761D01*
X96096248Y-83114767D01*
X96120304Y-83221508D01*
X96144222Y-83327639D01*
X96228266Y-83534616D01*
X96344987Y-83725088D01*
X96348366Y-83728989D01*
X96348367Y-83728990D01*
X96405737Y-83795219D01*
X96435220Y-83859804D01*
X96436500Y-83877717D01*
X96436500Y-84498381D01*
X96416498Y-84566502D01*
X96401594Y-84585432D01*
X96385629Y-84602138D01*
X96259743Y-84786680D01*
X96165688Y-84989305D01*
X96105989Y-85204570D01*
X96082251Y-85426695D01*
X96082548Y-85431848D01*
X96082548Y-85431851D01*
X96088011Y-85526590D01*
X96095110Y-85649715D01*
X96096247Y-85654761D01*
X96096248Y-85654767D01*
X96116119Y-85742939D01*
X96144222Y-85867639D01*
X96228266Y-86074616D01*
X96344987Y-86265088D01*
X96348366Y-86268989D01*
X96348367Y-86268990D01*
X96405737Y-86335219D01*
X96435220Y-86399804D01*
X96436500Y-86417717D01*
X96436500Y-88697808D01*
X96413713Y-88770079D01*
X96362477Y-88843251D01*
X96360154Y-88848233D01*
X96360151Y-88848238D01*
X96268039Y-89045775D01*
X96265716Y-89050757D01*
X96206457Y-89271913D01*
X96186502Y-89500000D01*
X96206457Y-89728087D01*
X96265716Y-89949243D01*
X96268039Y-89954224D01*
X96268039Y-89954225D01*
X96360151Y-90151762D01*
X96360154Y-90151767D01*
X96362477Y-90156749D01*
X96365634Y-90161257D01*
X96413713Y-90229921D01*
X96436500Y-90302192D01*
X96436500Y-92913209D01*
X96416498Y-92981330D01*
X96401594Y-93000260D01*
X96395281Y-93006866D01*
X96320699Y-93084912D01*
X96301523Y-93113023D01*
X96188597Y-93278566D01*
X96185314Y-93283378D01*
X96084163Y-93501290D01*
X96019960Y-93732798D01*
X96019411Y-93737935D01*
X96009787Y-93827990D01*
X95982659Y-93893600D01*
X95924367Y-93934128D01*
X95853417Y-93936707D01*
X95792336Y-93900518D01*
X95760516Y-93837052D01*
X95758500Y-93814601D01*
X95758500Y-93811842D01*
X95759237Y-93798235D01*
X95762659Y-93766737D01*
X95762659Y-93766732D01*
X95763324Y-93760611D01*
X95758979Y-93710946D01*
X95758500Y-93699965D01*
X95758500Y-93311840D01*
X95759237Y-93298232D01*
X95762659Y-93266736D01*
X95762659Y-93266732D01*
X95763324Y-93260611D01*
X95758979Y-93210946D01*
X95758500Y-93199965D01*
X95758500Y-92307904D01*
X95759145Y-92295171D01*
X95762752Y-92259666D01*
X95762752Y-92259661D01*
X95763374Y-92253538D01*
X95759059Y-92207891D01*
X95758500Y-92196033D01*
X95758500Y-81719926D01*
X95778502Y-81651805D01*
X95795404Y-81630831D01*
X96380829Y-81045405D01*
X96443142Y-81011380D01*
X96469925Y-81008500D01*
X98050340Y-81008500D01*
X98118461Y-81028502D01*
G37*
%TD.AperFunction*%
%TA.AperFunction,NonConductor*%
G36*
X98813716Y-94966179D02*
G01*
X98834411Y-94990660D01*
X98838498Y-94996977D01*
X99000186Y-95174670D01*
X99004243Y-95177874D01*
X99020878Y-95191012D01*
X99058513Y-95240867D01*
X99059091Y-95242858D01*
X99061544Y-95247590D01*
X99063084Y-95252691D01*
X99065978Y-95258134D01*
X99106731Y-95334782D01*
X99107343Y-95335948D01*
X99133376Y-95386169D01*
X99150108Y-95418448D01*
X99153431Y-95422611D01*
X99155934Y-95427318D01*
X99214755Y-95499440D01*
X99215446Y-95500296D01*
X99246738Y-95539495D01*
X99249242Y-95541999D01*
X99249884Y-95542717D01*
X99253585Y-95547050D01*
X99280935Y-95580584D01*
X99285682Y-95584511D01*
X99285684Y-95584513D01*
X99316262Y-95609809D01*
X99325042Y-95617799D01*
X100403550Y-96696306D01*
X101454595Y-97747351D01*
X101488620Y-97809663D01*
X101491500Y-97836446D01*
X101491500Y-102829370D01*
X101471498Y-102897491D01*
X101456594Y-102916421D01*
X101400699Y-102974912D01*
X101375465Y-103011903D01*
X101320556Y-103056904D01*
X101250032Y-103065075D01*
X101186284Y-103033821D01*
X101165589Y-103009340D01*
X101164311Y-103007365D01*
X101161502Y-103003023D01*
X101158028Y-102999205D01*
X101158021Y-102999196D01*
X101041306Y-102870928D01*
X101010254Y-102807083D01*
X101008500Y-102786129D01*
X101008500Y-100311842D01*
X101009237Y-100298235D01*
X101012659Y-100266737D01*
X101012659Y-100266732D01*
X101013324Y-100260611D01*
X101011749Y-100242611D01*
X101008950Y-100210609D01*
X101008621Y-100205784D01*
X101008500Y-100203313D01*
X101008500Y-100200231D01*
X101004309Y-100157489D01*
X101004187Y-100156174D01*
X100996623Y-100069719D01*
X100996087Y-100063587D01*
X100994600Y-100058468D01*
X100994080Y-100053167D01*
X100967218Y-99964194D01*
X100966862Y-99962994D01*
X100954805Y-99921493D01*
X100940909Y-99873663D01*
X100938455Y-99868929D01*
X100936916Y-99863831D01*
X100893316Y-99781831D01*
X100892702Y-99780663D01*
X100852726Y-99703541D01*
X100852725Y-99703540D01*
X100849892Y-99698074D01*
X100846569Y-99693911D01*
X100844066Y-99689204D01*
X100785245Y-99617082D01*
X100784554Y-99616226D01*
X100753262Y-99577027D01*
X100750758Y-99574523D01*
X100750116Y-99573805D01*
X100746415Y-99569472D01*
X100719065Y-99535938D01*
X100683737Y-99506712D01*
X100674958Y-99498723D01*
X96876346Y-95700111D01*
X96842320Y-95637800D01*
X96847385Y-95566985D01*
X96889932Y-95510149D01*
X96956452Y-95485338D01*
X97007500Y-95492244D01*
X97080636Y-95518143D01*
X97080644Y-95518145D01*
X97085515Y-95519870D01*
X97090608Y-95520777D01*
X97090611Y-95520778D01*
X97316948Y-95561095D01*
X97316954Y-95561096D01*
X97322037Y-95562001D01*
X97409400Y-95563068D01*
X97557093Y-95564873D01*
X97557095Y-95564873D01*
X97562263Y-95564936D01*
X97799744Y-95528596D01*
X97932093Y-95485338D01*
X98023183Y-95455566D01*
X98023189Y-95455563D01*
X98028101Y-95453958D01*
X98032687Y-95451571D01*
X98032691Y-95451569D01*
X98236607Y-95345416D01*
X98241200Y-95343025D01*
X98360424Y-95253509D01*
X98429185Y-95201882D01*
X98429188Y-95201880D01*
X98433320Y-95198777D01*
X98534875Y-95092506D01*
X98595730Y-95028825D01*
X98595731Y-95028824D01*
X98599301Y-95025088D01*
X98624535Y-94988097D01*
X98679444Y-94943096D01*
X98749968Y-94934925D01*
X98813716Y-94966179D01*
G37*
%TD.AperFunction*%
%TA.AperFunction,NonConductor*%
G36*
X101353716Y-104856179D02*
G01*
X101374411Y-104880660D01*
X101378498Y-104886977D01*
X101540186Y-105064670D01*
X101728724Y-105213568D01*
X101733253Y-105216068D01*
X101735226Y-105217379D01*
X101780897Y-105271736D01*
X101791500Y-105322328D01*
X101791500Y-107398191D01*
X101771498Y-107466312D01*
X101717842Y-107512805D01*
X101647568Y-107522909D01*
X101632895Y-107519899D01*
X101508087Y-107486457D01*
X101280000Y-107466502D01*
X101051913Y-107486457D01*
X101046600Y-107487881D01*
X101046598Y-107487881D01*
X100836067Y-107544293D01*
X100836065Y-107544294D01*
X100830757Y-107545716D01*
X100825776Y-107548039D01*
X100825775Y-107548039D01*
X100628238Y-107640151D01*
X100628233Y-107640154D01*
X100623251Y-107642477D01*
X100531774Y-107706530D01*
X100440211Y-107770643D01*
X100440208Y-107770645D01*
X100435700Y-107773802D01*
X100273802Y-107935700D01*
X100270645Y-107940208D01*
X100270643Y-107940211D01*
X100219493Y-108013261D01*
X100142477Y-108123251D01*
X100140154Y-108128233D01*
X100140151Y-108128238D01*
X100124195Y-108162457D01*
X100077278Y-108215742D01*
X100009001Y-108235203D01*
X99941041Y-108214661D01*
X99895805Y-108162457D01*
X99879849Y-108128238D01*
X99879846Y-108128233D01*
X99877523Y-108123251D01*
X99800507Y-108013261D01*
X99749357Y-107940211D01*
X99749355Y-107940208D01*
X99746198Y-107935700D01*
X99584300Y-107773802D01*
X99579792Y-107770645D01*
X99579789Y-107770643D01*
X99488226Y-107706530D01*
X99396749Y-107642477D01*
X99391767Y-107640154D01*
X99391762Y-107640151D01*
X99194225Y-107548039D01*
X99194224Y-107548039D01*
X99189243Y-107545716D01*
X99183935Y-107544294D01*
X99183933Y-107544293D01*
X98973402Y-107487881D01*
X98973400Y-107487881D01*
X98968087Y-107486457D01*
X98740000Y-107466502D01*
X98511913Y-107486457D01*
X98506600Y-107487881D01*
X98506598Y-107487881D01*
X98296067Y-107544293D01*
X98296065Y-107544294D01*
X98290757Y-107545716D01*
X98285774Y-107548039D01*
X98285770Y-107548041D01*
X98245866Y-107566649D01*
X98175674Y-107577311D01*
X98110861Y-107548332D01*
X98103520Y-107541550D01*
X96186966Y-105624996D01*
X96152940Y-105562684D01*
X96158005Y-105491869D01*
X96200552Y-105435033D01*
X96267072Y-105410222D01*
X96320291Y-105417919D01*
X96397184Y-105446745D01*
X96459366Y-105453500D01*
X98460634Y-105453500D01*
X98522816Y-105446745D01*
X98659205Y-105395615D01*
X98775761Y-105308261D01*
X98863115Y-105191705D01*
X98870573Y-105171811D01*
X98913213Y-105115047D01*
X98979774Y-105090346D01*
X99049123Y-105105553D01*
X99066647Y-105117158D01*
X99184670Y-105210367D01*
X99184675Y-105210370D01*
X99188724Y-105213568D01*
X99193240Y-105216061D01*
X99193243Y-105216063D01*
X99394526Y-105327177D01*
X99394530Y-105327179D01*
X99399050Y-105329674D01*
X99403919Y-105331398D01*
X99403923Y-105331400D01*
X99620640Y-105408144D01*
X99620644Y-105408145D01*
X99625515Y-105409870D01*
X99630608Y-105410777D01*
X99630611Y-105410778D01*
X99856948Y-105451095D01*
X99856954Y-105451096D01*
X99862037Y-105452001D01*
X99949400Y-105453068D01*
X100097093Y-105454873D01*
X100097095Y-105454873D01*
X100102263Y-105454936D01*
X100339744Y-105418596D01*
X100451997Y-105381906D01*
X100563183Y-105345566D01*
X100563189Y-105345563D01*
X100568101Y-105343958D01*
X100572687Y-105341571D01*
X100572691Y-105341569D01*
X100776607Y-105235416D01*
X100781200Y-105233025D01*
X100954621Y-105102817D01*
X100969185Y-105091882D01*
X100969188Y-105091880D01*
X100973320Y-105088777D01*
X101111472Y-104944209D01*
X101135730Y-104918825D01*
X101135731Y-104918824D01*
X101139301Y-104915088D01*
X101164535Y-104878097D01*
X101219444Y-104833096D01*
X101289968Y-104824925D01*
X101353716Y-104856179D01*
G37*
%TD.AperFunction*%
%TA.AperFunction,NonConductor*%
G36*
X94832461Y-106278502D02*
G01*
X94853435Y-106295405D01*
X95874833Y-107316803D01*
X95908859Y-107379115D01*
X95903794Y-107449930D01*
X95861247Y-107506766D01*
X95818351Y-107527604D01*
X95790104Y-107535173D01*
X95756067Y-107544293D01*
X95756065Y-107544294D01*
X95750757Y-107545716D01*
X95745776Y-107548039D01*
X95745775Y-107548039D01*
X95548238Y-107640151D01*
X95548233Y-107640154D01*
X95543251Y-107642477D01*
X95451774Y-107706530D01*
X95360211Y-107770643D01*
X95360208Y-107770645D01*
X95355700Y-107773802D01*
X95193802Y-107935700D01*
X95190645Y-107940208D01*
X95190643Y-107940211D01*
X95139493Y-108013261D01*
X95062477Y-108123251D01*
X95060154Y-108128233D01*
X95060151Y-108128238D01*
X94974601Y-108311703D01*
X94965716Y-108330757D01*
X94964294Y-108336062D01*
X94964292Y-108336069D01*
X94957742Y-108360516D01*
X94953676Y-108375693D01*
X94953028Y-108378110D01*
X94916077Y-108438733D01*
X94852217Y-108469755D01*
X94831321Y-108471500D01*
X94648912Y-108471500D01*
X94640342Y-108471208D01*
X94590224Y-108467791D01*
X94590220Y-108467791D01*
X94582648Y-108467275D01*
X94575171Y-108468580D01*
X94575170Y-108468580D01*
X94548692Y-108473201D01*
X94519697Y-108478262D01*
X94513179Y-108479223D01*
X94449758Y-108486898D01*
X94442657Y-108489581D01*
X94440048Y-108490222D01*
X94423738Y-108494685D01*
X94421202Y-108495450D01*
X94413716Y-108496757D01*
X94357465Y-108521450D01*
X94355205Y-108522442D01*
X94349101Y-108524933D01*
X94289344Y-108547513D01*
X94283081Y-108551817D01*
X94280715Y-108553054D01*
X94265903Y-108561299D01*
X94263649Y-108562632D01*
X94256695Y-108565685D01*
X94205998Y-108604587D01*
X94200668Y-108608459D01*
X94154280Y-108640339D01*
X94154275Y-108640344D01*
X94148019Y-108644643D01*
X94142968Y-108650313D01*
X94142966Y-108650314D01*
X94106565Y-108691170D01*
X94101584Y-108696446D01*
X93243435Y-109554595D01*
X93181123Y-109588621D01*
X93154340Y-109591500D01*
X92784500Y-109591500D01*
X92716379Y-109571498D01*
X92669886Y-109517842D01*
X92658500Y-109465500D01*
X92658500Y-108501866D01*
X92651745Y-108439684D01*
X92600615Y-108303295D01*
X92513261Y-108186739D01*
X92396705Y-108099385D01*
X92260316Y-108048255D01*
X92198134Y-108041500D01*
X91428132Y-108041500D01*
X91360011Y-108021498D01*
X91313518Y-107967842D01*
X91303414Y-107897568D01*
X91310150Y-107871270D01*
X91346689Y-107773802D01*
X91351745Y-107760316D01*
X91354703Y-107733086D01*
X91356028Y-107720892D01*
X91383270Y-107655330D01*
X91441634Y-107614904D01*
X91481291Y-107608500D01*
X91621088Y-107608500D01*
X91629658Y-107608792D01*
X91679776Y-107612209D01*
X91679780Y-107612209D01*
X91687352Y-107612725D01*
X91694829Y-107611420D01*
X91694830Y-107611420D01*
X91737717Y-107603935D01*
X91750303Y-107601738D01*
X91756821Y-107600777D01*
X91820242Y-107593102D01*
X91827343Y-107590419D01*
X91829952Y-107589778D01*
X91846262Y-107585315D01*
X91848798Y-107584550D01*
X91856284Y-107583243D01*
X91914800Y-107557556D01*
X91920904Y-107555065D01*
X91973548Y-107535173D01*
X91973549Y-107535172D01*
X91980656Y-107532487D01*
X91986919Y-107528183D01*
X91989285Y-107526946D01*
X92004097Y-107518701D01*
X92006351Y-107517368D01*
X92013305Y-107514315D01*
X92064002Y-107475413D01*
X92069332Y-107471541D01*
X92115720Y-107439661D01*
X92115725Y-107439656D01*
X92121981Y-107435357D01*
X92130910Y-107425336D01*
X92163427Y-107388839D01*
X92168408Y-107383562D01*
X92806567Y-106745404D01*
X92868879Y-106711379D01*
X92895662Y-106708500D01*
X93675400Y-106708500D01*
X93678646Y-106708163D01*
X93678650Y-106708163D01*
X93774308Y-106698238D01*
X93774312Y-106698237D01*
X93781166Y-106697526D01*
X93787702Y-106695345D01*
X93787704Y-106695345D01*
X93919806Y-106651272D01*
X93948946Y-106641550D01*
X94099348Y-106548478D01*
X94224305Y-106423303D01*
X94288979Y-106318383D01*
X94341750Y-106270891D01*
X94396238Y-106258500D01*
X94764340Y-106258500D01*
X94832461Y-106278502D01*
G37*
%TD.AperFunction*%
%TA.AperFunction,NonConductor*%
G36*
X100078959Y-110145339D02*
G01*
X100124195Y-110197543D01*
X100140151Y-110231762D01*
X100140154Y-110231767D01*
X100142477Y-110236749D01*
X100273802Y-110424300D01*
X100435700Y-110586198D01*
X100440208Y-110589355D01*
X100440211Y-110589357D01*
X100551174Y-110667054D01*
X100595502Y-110722511D01*
X100602811Y-110793131D01*
X100568078Y-110859283D01*
X100562686Y-110864685D01*
X100550695Y-110876697D01*
X100546855Y-110882927D01*
X100546854Y-110882928D01*
X100462432Y-111019886D01*
X100457885Y-111027262D01*
X100402203Y-111195139D01*
X100391500Y-111299600D01*
X100391500Y-112700400D01*
X100390916Y-112700400D01*
X100375073Y-112766871D01*
X100323888Y-112816070D01*
X100254229Y-112829787D01*
X100228053Y-112822889D01*
X100227595Y-112824352D01*
X100220352Y-112822082D01*
X100213427Y-112818955D01*
X100205960Y-112817571D01*
X100203405Y-112816770D01*
X100187152Y-112812141D01*
X100184572Y-112811478D01*
X100177491Y-112808718D01*
X100169960Y-112807727D01*
X100169958Y-112807726D01*
X100140339Y-112803827D01*
X100114139Y-112800378D01*
X100107641Y-112799348D01*
X100044814Y-112787704D01*
X100037234Y-112788141D01*
X100037233Y-112788141D01*
X99982608Y-112791291D01*
X99975354Y-112791500D01*
X99734500Y-112791500D01*
X99666379Y-112771498D01*
X99619886Y-112717842D01*
X99608500Y-112665500D01*
X99608500Y-111299600D01*
X99608163Y-111296350D01*
X99598238Y-111200692D01*
X99598237Y-111200688D01*
X99597526Y-111193834D01*
X99586658Y-111161257D01*
X99543868Y-111033002D01*
X99541550Y-111026054D01*
X99448478Y-110875652D01*
X99440423Y-110867611D01*
X99439085Y-110865165D01*
X99438749Y-110864742D01*
X99438821Y-110864685D01*
X99406339Y-110805331D01*
X99411338Y-110734510D01*
X99457164Y-110675220D01*
X99579789Y-110589357D01*
X99579792Y-110589355D01*
X99584300Y-110586198D01*
X99746198Y-110424300D01*
X99877523Y-110236749D01*
X99879846Y-110231767D01*
X99879849Y-110231762D01*
X99895805Y-110197543D01*
X99942722Y-110144258D01*
X100010999Y-110124797D01*
X100078959Y-110145339D01*
G37*
%TD.AperFunction*%
%TA.AperFunction,NonConductor*%
G36*
X111901243Y-111228502D02*
G01*
X111936335Y-111262229D01*
X111990643Y-111339789D01*
X111993802Y-111344300D01*
X112139502Y-111490000D01*
X112173528Y-111552312D01*
X112168463Y-111623127D01*
X112125916Y-111679963D01*
X112089263Y-111697132D01*
X112089684Y-111698255D01*
X111953295Y-111749385D01*
X111836739Y-111836739D01*
X111749385Y-111953295D01*
X111698255Y-112089684D01*
X111691500Y-112151866D01*
X111691500Y-113254340D01*
X111671498Y-113322461D01*
X111654595Y-113343435D01*
X110243435Y-114754595D01*
X110181123Y-114788621D01*
X110154340Y-114791500D01*
X109166878Y-114791500D01*
X109098757Y-114771498D01*
X109063665Y-114737771D01*
X109009357Y-114660211D01*
X109009355Y-114660208D01*
X109006198Y-114655700D01*
X108844300Y-114493802D01*
X108839792Y-114490645D01*
X108839789Y-114490643D01*
X108661793Y-114366009D01*
X108656749Y-114362477D01*
X108651767Y-114360154D01*
X108651762Y-114360151D01*
X108454225Y-114268039D01*
X108454224Y-114268039D01*
X108449243Y-114265716D01*
X108443935Y-114264294D01*
X108443933Y-114264293D01*
X108233402Y-114207881D01*
X108233400Y-114207881D01*
X108228087Y-114206457D01*
X108000000Y-114186502D01*
X107771913Y-114206457D01*
X107766600Y-114207881D01*
X107766598Y-114207881D01*
X107739276Y-114215202D01*
X107668300Y-114213512D01*
X107609504Y-114173718D01*
X107581556Y-114108453D01*
X107593330Y-114038440D01*
X107617570Y-114004400D01*
X108480520Y-113141450D01*
X108486785Y-113135596D01*
X108524660Y-113102555D01*
X108530385Y-113097561D01*
X108567114Y-113045300D01*
X108571046Y-113040005D01*
X108605791Y-112995694D01*
X108610477Y-112989718D01*
X108613602Y-112982796D01*
X108614964Y-112980548D01*
X108623368Y-112965815D01*
X108624622Y-112963476D01*
X108628990Y-112957261D01*
X108631749Y-112950185D01*
X108631751Y-112950181D01*
X108652200Y-112897731D01*
X108654749Y-112891666D01*
X108681045Y-112833427D01*
X108682429Y-112825962D01*
X108683226Y-112823418D01*
X108687859Y-112807152D01*
X108688521Y-112804572D01*
X108691282Y-112797491D01*
X108692571Y-112787704D01*
X108699621Y-112734147D01*
X108700653Y-112727629D01*
X108706154Y-112697952D01*
X108712296Y-112664813D01*
X108708709Y-112602602D01*
X108708500Y-112595349D01*
X108708500Y-111666878D01*
X108728502Y-111598757D01*
X108762229Y-111563665D01*
X108839789Y-111509357D01*
X108839792Y-111509355D01*
X108844300Y-111506198D01*
X109006198Y-111344300D01*
X109009357Y-111339789D01*
X109063665Y-111262229D01*
X109119122Y-111217901D01*
X109166878Y-111208500D01*
X111833122Y-111208500D01*
X111901243Y-111228502D01*
G37*
%TD.AperFunction*%
%TA.AperFunction,NonConductor*%
G36*
X97720490Y-118027371D02*
G01*
X97727489Y-118036031D01*
X97730643Y-118039789D01*
X97733802Y-118044300D01*
X97895700Y-118206198D01*
X97900208Y-118209355D01*
X97900211Y-118209357D01*
X97977771Y-118263665D01*
X98022099Y-118319122D01*
X98031500Y-118366878D01*
X98031500Y-123230114D01*
X98011498Y-123298235D01*
X97981153Y-123330874D01*
X97847092Y-123431530D01*
X97834965Y-123440635D01*
X97774747Y-123503650D01*
X97754283Y-123525064D01*
X97692759Y-123560494D01*
X97621846Y-123557037D01*
X97564060Y-123515791D01*
X97545207Y-123482243D01*
X97503767Y-123371703D01*
X97500615Y-123363295D01*
X97413261Y-123246739D01*
X97296705Y-123159385D01*
X97160316Y-123108255D01*
X97098134Y-123101500D01*
X97034500Y-123101500D01*
X96966379Y-123081498D01*
X96919886Y-123027842D01*
X96908500Y-122975500D01*
X96908500Y-118634500D01*
X96928502Y-118566379D01*
X96982158Y-118519886D01*
X97034500Y-118508500D01*
X97048134Y-118508500D01*
X97110316Y-118501745D01*
X97246705Y-118450615D01*
X97363261Y-118363261D01*
X97450615Y-118246705D01*
X97501745Y-118110316D01*
X97502917Y-118099526D01*
X97503803Y-118097394D01*
X97504425Y-118094778D01*
X97504848Y-118094879D01*
X97530155Y-118033965D01*
X97588517Y-117993537D01*
X97659471Y-117991078D01*
X97720490Y-118027371D01*
G37*
%TD.AperFunction*%
%TA.AperFunction,NonConductor*%
G36*
X100078959Y-117765339D02*
G01*
X100124195Y-117817543D01*
X100140151Y-117851762D01*
X100140154Y-117851767D01*
X100142477Y-117856749D01*
X100273802Y-118044300D01*
X100435700Y-118206198D01*
X100440208Y-118209355D01*
X100440211Y-118209357D01*
X100517771Y-118263665D01*
X100562099Y-118319122D01*
X100571500Y-118366878D01*
X100571500Y-123230114D01*
X100551498Y-123298235D01*
X100521153Y-123330874D01*
X100387092Y-123431530D01*
X100374965Y-123440635D01*
X100371393Y-123444373D01*
X100263729Y-123557037D01*
X100220629Y-123602138D01*
X100113201Y-123759621D01*
X100058293Y-123804621D01*
X99987768Y-123812792D01*
X99924021Y-123781538D01*
X99903324Y-123757054D01*
X99822822Y-123632617D01*
X99822820Y-123632614D01*
X99820014Y-123628277D01*
X99669670Y-123463051D01*
X99665619Y-123459852D01*
X99665615Y-123459848D01*
X99496408Y-123326216D01*
X99455345Y-123268298D01*
X99448500Y-123227334D01*
X99448500Y-118366878D01*
X99468502Y-118298757D01*
X99502229Y-118263665D01*
X99579789Y-118209357D01*
X99579792Y-118209355D01*
X99584300Y-118206198D01*
X99746198Y-118044300D01*
X99877523Y-117856749D01*
X99879846Y-117851767D01*
X99879849Y-117851762D01*
X99895805Y-117817543D01*
X99942722Y-117764258D01*
X100010999Y-117744797D01*
X100078959Y-117765339D01*
G37*
%TD.AperFunction*%
%TA.AperFunction,NonConductor*%
G36*
X102618959Y-117765339D02*
G01*
X102664195Y-117817543D01*
X102680151Y-117851762D01*
X102680154Y-117851767D01*
X102682477Y-117856749D01*
X102813802Y-118044300D01*
X102975700Y-118206198D01*
X102980208Y-118209355D01*
X102980211Y-118209357D01*
X103057771Y-118263665D01*
X103102099Y-118319122D01*
X103111500Y-118366878D01*
X103111500Y-123230114D01*
X103091498Y-123298235D01*
X103061153Y-123330874D01*
X102927092Y-123431530D01*
X102914965Y-123440635D01*
X102911393Y-123444373D01*
X102803729Y-123557037D01*
X102760629Y-123602138D01*
X102653201Y-123759621D01*
X102598293Y-123804621D01*
X102527768Y-123812792D01*
X102464021Y-123781538D01*
X102443324Y-123757054D01*
X102362822Y-123632617D01*
X102362820Y-123632614D01*
X102360014Y-123628277D01*
X102209670Y-123463051D01*
X102205619Y-123459852D01*
X102205615Y-123459848D01*
X102036408Y-123326216D01*
X101995345Y-123268298D01*
X101988500Y-123227334D01*
X101988500Y-118366878D01*
X102008502Y-118298757D01*
X102042229Y-118263665D01*
X102119789Y-118209357D01*
X102119792Y-118209355D01*
X102124300Y-118206198D01*
X102286198Y-118044300D01*
X102417523Y-117856749D01*
X102419846Y-117851767D01*
X102419849Y-117851762D01*
X102435805Y-117817543D01*
X102482722Y-117764258D01*
X102550999Y-117744797D01*
X102618959Y-117765339D01*
G37*
%TD.AperFunction*%
%TA.AperFunction,NonConductor*%
G36*
X102632026Y-125135144D02*
G01*
X102659875Y-125166994D01*
X102673055Y-125188502D01*
X102719987Y-125265088D01*
X102866250Y-125433938D01*
X102870236Y-125437247D01*
X102873532Y-125440475D01*
X102908208Y-125502428D01*
X102903886Y-125573293D01*
X102861937Y-125630571D01*
X102795681Y-125656078D01*
X102785375Y-125656500D01*
X102326660Y-125656500D01*
X102258539Y-125636498D01*
X102237565Y-125619595D01*
X102228717Y-125610747D01*
X102194691Y-125548435D01*
X102199756Y-125477620D01*
X102228873Y-125432401D01*
X102314430Y-125347144D01*
X102314440Y-125347132D01*
X102318096Y-125343489D01*
X102448453Y-125162077D01*
X102449776Y-125163028D01*
X102496645Y-125119857D01*
X102566580Y-125107625D01*
X102632026Y-125135144D01*
G37*
%TD.AperFunction*%
%TA.AperFunction,NonConductor*%
G36*
X91091845Y-123512697D02*
G01*
X91123941Y-123576025D01*
X91125383Y-123586012D01*
X91127474Y-123606166D01*
X91183450Y-123773946D01*
X91276522Y-123924348D01*
X91401697Y-124049305D01*
X91407927Y-124053145D01*
X91407928Y-124053146D01*
X91545090Y-124137694D01*
X91552262Y-124142115D01*
X91632005Y-124168564D01*
X91713611Y-124195632D01*
X91713613Y-124195632D01*
X91720139Y-124197797D01*
X91726975Y-124198497D01*
X91726978Y-124198498D01*
X91770031Y-124202909D01*
X91824600Y-124208500D01*
X92604339Y-124208500D01*
X92672460Y-124228502D01*
X92693435Y-124245405D01*
X93388565Y-124940536D01*
X93394418Y-124946801D01*
X93432439Y-124990385D01*
X93484729Y-125027136D01*
X93489971Y-125031028D01*
X93540282Y-125070476D01*
X93547201Y-125073600D01*
X93549493Y-125074988D01*
X93564165Y-125083357D01*
X93566525Y-125084622D01*
X93572739Y-125088990D01*
X93579818Y-125091750D01*
X93579820Y-125091751D01*
X93632275Y-125112202D01*
X93638344Y-125114753D01*
X93696573Y-125141045D01*
X93704046Y-125142430D01*
X93706612Y-125143234D01*
X93722835Y-125147855D01*
X93725427Y-125148520D01*
X93732509Y-125151282D01*
X93740044Y-125152274D01*
X93795861Y-125159622D01*
X93802377Y-125160654D01*
X93810055Y-125162077D01*
X93865186Y-125172295D01*
X93872766Y-125171858D01*
X93872767Y-125171858D01*
X93927380Y-125168709D01*
X93934633Y-125168500D01*
X94715500Y-125168500D01*
X94783621Y-125188502D01*
X94830114Y-125242158D01*
X94841500Y-125294500D01*
X94841500Y-125358134D01*
X94848255Y-125420316D01*
X94851027Y-125427712D01*
X94851029Y-125427718D01*
X94872980Y-125486271D01*
X94878163Y-125557078D01*
X94844242Y-125619447D01*
X94781987Y-125653576D01*
X94754998Y-125656500D01*
X90515660Y-125656500D01*
X90447539Y-125636498D01*
X90426565Y-125619595D01*
X90245405Y-125438435D01*
X90211379Y-125376123D01*
X90208500Y-125349340D01*
X90208500Y-124312560D01*
X90228502Y-124244439D01*
X90282158Y-124197946D01*
X90294624Y-124193036D01*
X90448946Y-124141550D01*
X90599348Y-124048478D01*
X90724305Y-123923303D01*
X90728146Y-123917072D01*
X90813275Y-123778968D01*
X90813276Y-123778966D01*
X90817115Y-123772738D01*
X90865030Y-123628277D01*
X90870632Y-123611389D01*
X90870632Y-123611387D01*
X90872797Y-123604861D01*
X90874712Y-123586171D01*
X90901554Y-123520444D01*
X90959669Y-123479663D01*
X91030607Y-123476775D01*
X91091845Y-123512697D01*
G37*
%TD.AperFunction*%
%TA.AperFunction,NonConductor*%
G36*
X106637527Y-115088609D02*
G01*
X106694363Y-115131156D01*
X106719174Y-115197676D01*
X106715202Y-115239276D01*
X106709609Y-115260151D01*
X106706457Y-115271913D01*
X106686502Y-115500000D01*
X106706457Y-115728087D01*
X106707881Y-115733400D01*
X106707881Y-115733402D01*
X106735014Y-115834661D01*
X106765716Y-115949243D01*
X106768039Y-115954224D01*
X106768039Y-115954225D01*
X106860151Y-116151762D01*
X106860154Y-116151767D01*
X106862477Y-116156749D01*
X106993802Y-116344300D01*
X107155700Y-116506198D01*
X107160208Y-116509355D01*
X107160211Y-116509357D01*
X107237771Y-116563665D01*
X107282099Y-116619122D01*
X107291500Y-116666878D01*
X107291500Y-125334340D01*
X107271498Y-125402461D01*
X107254595Y-125423435D01*
X107058435Y-125619595D01*
X106996123Y-125653621D01*
X106969340Y-125656500D01*
X104848934Y-125656500D01*
X104780813Y-125636498D01*
X104734320Y-125582842D01*
X104724216Y-125512568D01*
X104753710Y-125447988D01*
X104759994Y-125441249D01*
X104846829Y-125354717D01*
X104858096Y-125343489D01*
X104988453Y-125162077D01*
X105009320Y-125119857D01*
X105085136Y-124966453D01*
X105085137Y-124966451D01*
X105087430Y-124961811D01*
X105152370Y-124748069D01*
X105181529Y-124526590D01*
X105183156Y-124460000D01*
X105164852Y-124237361D01*
X105110431Y-124020702D01*
X105021354Y-123815840D01*
X104900014Y-123628277D01*
X104749670Y-123463051D01*
X104745619Y-123459852D01*
X104745615Y-123459848D01*
X104576408Y-123326216D01*
X104535345Y-123268298D01*
X104528500Y-123227334D01*
X104528500Y-118366878D01*
X104548502Y-118298757D01*
X104582229Y-118263665D01*
X104659789Y-118209357D01*
X104659792Y-118209355D01*
X104664300Y-118206198D01*
X104826198Y-118044300D01*
X104957523Y-117856749D01*
X104959846Y-117851767D01*
X104959849Y-117851762D01*
X105051961Y-117654225D01*
X105051961Y-117654224D01*
X105054284Y-117649243D01*
X105095690Y-117494717D01*
X105112119Y-117433402D01*
X105112119Y-117433400D01*
X105113543Y-117428087D01*
X105128500Y-117257127D01*
X105128500Y-116545660D01*
X105148502Y-116477539D01*
X105165405Y-116456565D01*
X106504400Y-115117570D01*
X106566712Y-115083544D01*
X106637527Y-115088609D01*
G37*
%TD.AperFunction*%
%TA.AperFunction,NonConductor*%
G36*
X124433621Y-78278502D02*
G01*
X124480114Y-78332158D01*
X124491500Y-78384500D01*
X124491500Y-127365500D01*
X124471498Y-127433621D01*
X124417842Y-127480114D01*
X124365500Y-127491500D01*
X75634500Y-127491500D01*
X75566379Y-127471498D01*
X75519886Y-127417842D01*
X75508500Y-127365500D01*
X75508500Y-120400400D01*
X88116500Y-120400400D01*
X88127474Y-120506166D01*
X88183450Y-120673946D01*
X88276522Y-120824348D01*
X88401697Y-120949305D01*
X88407927Y-120953145D01*
X88407928Y-120953146D01*
X88545090Y-121037694D01*
X88552262Y-121042115D01*
X88632005Y-121068564D01*
X88713611Y-121095632D01*
X88713613Y-121095632D01*
X88720139Y-121097797D01*
X88726975Y-121098497D01*
X88726978Y-121098498D01*
X88770031Y-121102909D01*
X88824600Y-121108500D01*
X90175400Y-121108500D01*
X90178646Y-121108163D01*
X90178650Y-121108163D01*
X90274308Y-121098238D01*
X90274312Y-121098237D01*
X90281166Y-121097526D01*
X90287702Y-121095345D01*
X90287704Y-121095345D01*
X90419806Y-121051272D01*
X90448946Y-121041550D01*
X90599348Y-120948478D01*
X90724305Y-120823303D01*
X90788979Y-120718383D01*
X90841750Y-120670891D01*
X90896238Y-120658500D01*
X91103689Y-120658500D01*
X91171810Y-120678502D01*
X91210833Y-120718196D01*
X91276522Y-120824348D01*
X91401697Y-120949305D01*
X91407927Y-120953145D01*
X91407928Y-120953146D01*
X91545090Y-121037694D01*
X91552262Y-121042115D01*
X91632005Y-121068564D01*
X91713611Y-121095632D01*
X91713613Y-121095632D01*
X91720139Y-121097797D01*
X91726975Y-121098497D01*
X91726978Y-121098498D01*
X91770031Y-121102909D01*
X91824600Y-121108500D01*
X93175400Y-121108500D01*
X93178646Y-121108163D01*
X93178650Y-121108163D01*
X93274308Y-121098238D01*
X93274312Y-121098237D01*
X93281166Y-121097526D01*
X93287702Y-121095345D01*
X93287704Y-121095345D01*
X93419806Y-121051272D01*
X93448946Y-121041550D01*
X93599348Y-120948478D01*
X93724305Y-120823303D01*
X93817115Y-120672738D01*
X93872797Y-120504861D01*
X93883500Y-120400400D01*
X93883500Y-119499600D01*
X93872526Y-119393834D01*
X93816550Y-119226054D01*
X93723478Y-119075652D01*
X93598303Y-118950695D01*
X93592072Y-118946854D01*
X93453968Y-118861725D01*
X93453966Y-118861724D01*
X93447738Y-118857885D01*
X93287254Y-118804655D01*
X93286389Y-118804368D01*
X93286387Y-118804368D01*
X93279861Y-118802203D01*
X93273025Y-118801503D01*
X93273022Y-118801502D01*
X93229969Y-118797091D01*
X93175400Y-118791500D01*
X91824600Y-118791500D01*
X91821354Y-118791837D01*
X91821350Y-118791837D01*
X91725692Y-118801762D01*
X91725688Y-118801763D01*
X91718834Y-118802474D01*
X91712298Y-118804655D01*
X91712296Y-118804655D01*
X91580194Y-118848728D01*
X91551054Y-118858450D01*
X91400652Y-118951522D01*
X91275695Y-119076697D01*
X91271855Y-119082927D01*
X91271854Y-119082928D01*
X91211022Y-119181616D01*
X91158250Y-119229109D01*
X91103762Y-119241500D01*
X90896311Y-119241500D01*
X90828190Y-119221498D01*
X90789167Y-119181804D01*
X90789051Y-119181616D01*
X90723478Y-119075652D01*
X90598303Y-118950695D01*
X90592072Y-118946854D01*
X90453968Y-118861725D01*
X90453966Y-118861724D01*
X90447738Y-118857885D01*
X90287254Y-118804655D01*
X90286389Y-118804368D01*
X90286387Y-118804368D01*
X90279861Y-118802203D01*
X90273025Y-118801503D01*
X90273022Y-118801502D01*
X90229969Y-118797091D01*
X90175400Y-118791500D01*
X88824600Y-118791500D01*
X88821354Y-118791837D01*
X88821350Y-118791837D01*
X88725692Y-118801762D01*
X88725688Y-118801763D01*
X88718834Y-118802474D01*
X88712298Y-118804655D01*
X88712296Y-118804655D01*
X88580194Y-118848728D01*
X88551054Y-118858450D01*
X88400652Y-118951522D01*
X88275695Y-119076697D01*
X88182885Y-119227262D01*
X88127203Y-119395139D01*
X88116500Y-119499600D01*
X88116500Y-120400400D01*
X75508500Y-120400400D01*
X75508500Y-99000000D01*
X79736540Y-99000000D01*
X79756359Y-99315020D01*
X79815505Y-99625072D01*
X79913044Y-99925266D01*
X79914731Y-99928852D01*
X79914733Y-99928856D01*
X80045750Y-100207283D01*
X80045754Y-100207290D01*
X80047438Y-100210869D01*
X80216568Y-100477375D01*
X80417767Y-100720582D01*
X80647860Y-100936654D01*
X80903221Y-101122184D01*
X80906690Y-101124091D01*
X80906693Y-101124093D01*
X81022168Y-101187576D01*
X81179821Y-101274247D01*
X81183490Y-101275700D01*
X81183495Y-101275702D01*
X81402232Y-101362306D01*
X81473298Y-101390443D01*
X81779025Y-101468940D01*
X82092179Y-101508500D01*
X82407821Y-101508500D01*
X82720975Y-101468940D01*
X83026702Y-101390443D01*
X83097768Y-101362306D01*
X83316505Y-101275702D01*
X83316510Y-101275700D01*
X83320179Y-101274247D01*
X83477832Y-101187576D01*
X83593307Y-101124093D01*
X83593310Y-101124091D01*
X83596779Y-101122184D01*
X83852140Y-100936654D01*
X84082233Y-100720582D01*
X84283432Y-100477375D01*
X84452562Y-100210869D01*
X84454246Y-100207290D01*
X84454250Y-100207283D01*
X84585267Y-99928856D01*
X84585269Y-99928852D01*
X84586956Y-99925266D01*
X84684495Y-99625072D01*
X84743641Y-99315020D01*
X84763460Y-99000000D01*
X84743641Y-98684980D01*
X84684495Y-98374928D01*
X84586956Y-98074734D01*
X84574979Y-98049280D01*
X84493555Y-97876246D01*
X84482649Y-97806092D01*
X84511402Y-97741179D01*
X84518468Y-97733503D01*
X88506566Y-93745405D01*
X88568878Y-93711379D01*
X88595661Y-93708500D01*
X88788235Y-93708500D01*
X88856356Y-93728502D01*
X88891448Y-93762229D01*
X88939978Y-93831537D01*
X88948915Y-93844300D01*
X89110813Y-94006198D01*
X89115321Y-94009355D01*
X89115324Y-94009357D01*
X89156655Y-94038297D01*
X89298364Y-94137523D01*
X89303346Y-94139846D01*
X89303351Y-94139849D01*
X89500888Y-94231961D01*
X89505870Y-94234284D01*
X89511178Y-94235706D01*
X89511180Y-94235707D01*
X89721711Y-94292119D01*
X89721713Y-94292119D01*
X89727026Y-94293543D01*
X89955113Y-94313498D01*
X90183200Y-94293543D01*
X90188513Y-94292119D01*
X90188515Y-94292119D01*
X90399046Y-94235707D01*
X90399048Y-94235706D01*
X90404356Y-94234284D01*
X90409338Y-94231961D01*
X90606875Y-94139849D01*
X90606880Y-94139846D01*
X90611862Y-94137523D01*
X90753571Y-94038297D01*
X90794902Y-94009357D01*
X90794905Y-94009355D01*
X90799413Y-94006198D01*
X90945113Y-93860498D01*
X91007425Y-93826472D01*
X91078240Y-93831537D01*
X91135076Y-93874084D01*
X91152245Y-93910737D01*
X91153368Y-93910316D01*
X91204498Y-94046705D01*
X91291852Y-94163261D01*
X91408408Y-94250615D01*
X91544797Y-94301745D01*
X91606979Y-94308500D01*
X93303247Y-94308500D01*
X93365429Y-94301745D01*
X93501818Y-94250615D01*
X93515546Y-94240327D01*
X93539935Y-94222048D01*
X93606442Y-94197200D01*
X93675824Y-94212253D01*
X93726054Y-94262427D01*
X93741500Y-94322874D01*
X93741500Y-94938157D01*
X93740763Y-94951764D01*
X93736676Y-94989388D01*
X93737213Y-94995523D01*
X93741050Y-95039388D01*
X93741379Y-95044214D01*
X93741500Y-95046686D01*
X93741500Y-95049769D01*
X93741801Y-95052837D01*
X93745690Y-95092506D01*
X93745812Y-95093819D01*
X93753913Y-95186413D01*
X93755400Y-95191532D01*
X93755920Y-95196833D01*
X93782791Y-95285834D01*
X93783126Y-95286967D01*
X93800108Y-95345416D01*
X93809091Y-95376336D01*
X93811544Y-95381068D01*
X93813084Y-95386169D01*
X93815978Y-95391612D01*
X93856731Y-95468260D01*
X93857343Y-95469426D01*
X93883962Y-95520778D01*
X93900108Y-95551926D01*
X93903431Y-95556089D01*
X93905934Y-95560796D01*
X93964755Y-95632918D01*
X93965446Y-95633774D01*
X93996738Y-95672973D01*
X93999242Y-95675477D01*
X93999884Y-95676195D01*
X94003585Y-95680528D01*
X94030935Y-95714062D01*
X94035682Y-95717989D01*
X94035684Y-95717991D01*
X94066262Y-95743287D01*
X94075042Y-95751277D01*
X96515218Y-98191452D01*
X98954595Y-100630829D01*
X98988621Y-100693141D01*
X98991500Y-100719924D01*
X98991500Y-102495087D01*
X98971498Y-102563208D01*
X98917842Y-102609701D01*
X98847568Y-102619805D01*
X98782988Y-102590311D01*
X98780332Y-102587838D01*
X98775761Y-102581739D01*
X98659205Y-102494385D01*
X98522816Y-102443255D01*
X98460634Y-102436500D01*
X96490660Y-102436500D01*
X96422539Y-102416498D01*
X96401565Y-102399595D01*
X95971450Y-101969480D01*
X95965596Y-101963215D01*
X95965201Y-101962762D01*
X95927561Y-101919615D01*
X95875280Y-101882871D01*
X95869986Y-101878939D01*
X95825693Y-101844209D01*
X95819718Y-101839524D01*
X95812802Y-101836401D01*
X95810516Y-101835017D01*
X95795835Y-101826643D01*
X95793475Y-101825378D01*
X95787261Y-101821010D01*
X95780182Y-101818250D01*
X95780180Y-101818249D01*
X95727725Y-101797798D01*
X95721656Y-101795247D01*
X95663427Y-101768955D01*
X95655960Y-101767571D01*
X95653405Y-101766770D01*
X95637152Y-101762141D01*
X95634572Y-101761478D01*
X95627491Y-101758718D01*
X95619960Y-101757727D01*
X95619958Y-101757726D01*
X95590339Y-101753827D01*
X95564139Y-101750378D01*
X95557641Y-101749348D01*
X95494814Y-101737704D01*
X95487234Y-101738141D01*
X95487233Y-101738141D01*
X95432608Y-101741291D01*
X95425354Y-101741500D01*
X94396311Y-101741500D01*
X94328190Y-101721498D01*
X94289167Y-101681804D01*
X94279078Y-101665500D01*
X94223478Y-101575652D01*
X94098303Y-101450695D01*
X94000557Y-101390443D01*
X93953968Y-101361725D01*
X93953966Y-101361724D01*
X93947738Y-101357885D01*
X93867995Y-101331436D01*
X93786389Y-101304368D01*
X93786387Y-101304368D01*
X93779861Y-101302203D01*
X93773025Y-101301503D01*
X93773022Y-101301502D01*
X93729969Y-101297091D01*
X93675400Y-101291500D01*
X92324600Y-101291500D01*
X92321354Y-101291837D01*
X92321350Y-101291837D01*
X92225692Y-101301762D01*
X92225688Y-101301763D01*
X92218834Y-101302474D01*
X92212298Y-101304655D01*
X92212296Y-101304655D01*
X92204761Y-101307169D01*
X92051054Y-101358450D01*
X91900652Y-101451522D01*
X91775695Y-101576697D01*
X91682885Y-101727262D01*
X91681205Y-101726226D01*
X91640879Y-101772031D01*
X91573595Y-101791500D01*
X91484500Y-101791500D01*
X91416379Y-101771498D01*
X91369886Y-101717842D01*
X91358500Y-101665500D01*
X91358500Y-101301866D01*
X91351745Y-101239684D01*
X91300615Y-101103295D01*
X91213261Y-100986739D01*
X91096705Y-100899385D01*
X90960316Y-100848255D01*
X90898134Y-100841500D01*
X88101866Y-100841500D01*
X88039684Y-100848255D01*
X87903295Y-100899385D01*
X87786739Y-100986739D01*
X87699385Y-101103295D01*
X87648255Y-101239684D01*
X87641500Y-101301866D01*
X87641500Y-102898134D01*
X87648255Y-102960316D01*
X87699385Y-103096705D01*
X87786739Y-103213261D01*
X87903295Y-103300615D01*
X88039684Y-103351745D01*
X88101866Y-103358500D01*
X90898134Y-103358500D01*
X90960316Y-103351745D01*
X91096705Y-103300615D01*
X91186024Y-103233674D01*
X91252530Y-103208826D01*
X91261589Y-103208500D01*
X91634631Y-103208500D01*
X91702752Y-103228502D01*
X91741772Y-103268193D01*
X91776522Y-103324348D01*
X91901697Y-103449305D01*
X91907927Y-103453145D01*
X91907928Y-103453146D01*
X92045090Y-103537694D01*
X92052262Y-103542115D01*
X92132005Y-103568564D01*
X92213611Y-103595632D01*
X92213613Y-103595632D01*
X92220139Y-103597797D01*
X92226975Y-103598497D01*
X92226978Y-103598498D01*
X92270031Y-103602909D01*
X92324600Y-103608500D01*
X93675400Y-103608500D01*
X93678646Y-103608163D01*
X93678650Y-103608163D01*
X93774308Y-103598238D01*
X93774312Y-103598237D01*
X93781166Y-103597526D01*
X93787702Y-103595345D01*
X93787704Y-103595345D01*
X93919806Y-103551272D01*
X93948946Y-103541550D01*
X94099348Y-103448478D01*
X94224305Y-103323303D01*
X94288979Y-103218383D01*
X94341750Y-103170891D01*
X94396238Y-103158500D01*
X95104339Y-103158500D01*
X95172460Y-103178502D01*
X95193435Y-103195405D01*
X95962096Y-103964067D01*
X95996121Y-104026379D01*
X95999000Y-104053162D01*
X95999000Y-104993134D01*
X96005755Y-105055316D01*
X96022356Y-105099600D01*
X96034581Y-105132209D01*
X96039764Y-105203017D01*
X96005843Y-105265386D01*
X95943588Y-105299515D01*
X95872764Y-105294568D01*
X95827504Y-105265534D01*
X95631450Y-105069480D01*
X95625596Y-105063215D01*
X95611852Y-105047460D01*
X95587561Y-105019615D01*
X95535280Y-104982871D01*
X95529986Y-104978939D01*
X95485693Y-104944209D01*
X95479718Y-104939524D01*
X95472802Y-104936401D01*
X95470516Y-104935017D01*
X95455835Y-104926643D01*
X95453475Y-104925378D01*
X95447261Y-104921010D01*
X95440182Y-104918250D01*
X95440180Y-104918249D01*
X95387725Y-104897798D01*
X95381656Y-104895247D01*
X95323427Y-104868955D01*
X95315960Y-104867571D01*
X95313405Y-104866770D01*
X95297152Y-104862141D01*
X95294572Y-104861478D01*
X95287491Y-104858718D01*
X95279960Y-104857727D01*
X95279958Y-104857726D01*
X95250339Y-104853827D01*
X95224139Y-104850378D01*
X95217641Y-104849348D01*
X95154814Y-104837704D01*
X95147234Y-104838141D01*
X95147233Y-104838141D01*
X95092608Y-104841291D01*
X95085354Y-104841500D01*
X94396311Y-104841500D01*
X94328190Y-104821498D01*
X94289167Y-104781804D01*
X94223478Y-104675652D01*
X94098303Y-104550695D01*
X94005870Y-104493718D01*
X93953968Y-104461725D01*
X93953966Y-104461724D01*
X93947738Y-104457885D01*
X93787254Y-104404655D01*
X93786389Y-104404368D01*
X93786387Y-104404368D01*
X93779861Y-104402203D01*
X93773025Y-104401503D01*
X93773022Y-104401502D01*
X93729969Y-104397091D01*
X93675400Y-104391500D01*
X92324600Y-104391500D01*
X92321354Y-104391837D01*
X92321350Y-104391837D01*
X92225692Y-104401762D01*
X92225688Y-104401763D01*
X92218834Y-104402474D01*
X92212298Y-104404655D01*
X92212296Y-104404655D01*
X92080194Y-104448728D01*
X92051054Y-104458450D01*
X91900652Y-104551522D01*
X91775695Y-104676697D01*
X91771855Y-104682927D01*
X91771854Y-104682928D01*
X91688006Y-104818955D01*
X91682885Y-104827262D01*
X91659886Y-104896601D01*
X91633771Y-104975338D01*
X91627203Y-104995139D01*
X91626503Y-105001975D01*
X91626502Y-105001978D01*
X91625021Y-105016435D01*
X91616500Y-105099600D01*
X91616500Y-105879340D01*
X91596498Y-105947461D01*
X91579595Y-105968435D01*
X91532826Y-106015204D01*
X91470514Y-106049230D01*
X91399699Y-106044165D01*
X91342863Y-106001618D01*
X91325749Y-105970339D01*
X91303767Y-105911703D01*
X91300615Y-105903295D01*
X91213261Y-105786739D01*
X91096705Y-105699385D01*
X90960316Y-105648255D01*
X90898134Y-105641500D01*
X88101866Y-105641500D01*
X88039684Y-105648255D01*
X87903295Y-105699385D01*
X87786739Y-105786739D01*
X87699385Y-105903295D01*
X87648255Y-106039684D01*
X87641500Y-106101866D01*
X87641500Y-107698134D01*
X87648255Y-107760316D01*
X87699385Y-107896705D01*
X87786739Y-108013261D01*
X87903295Y-108100615D01*
X88039684Y-108151745D01*
X88101866Y-108158500D01*
X89271868Y-108158500D01*
X89339989Y-108178502D01*
X89386482Y-108232158D01*
X89396586Y-108302432D01*
X89389850Y-108328729D01*
X89348255Y-108439684D01*
X89341500Y-108501866D01*
X89341500Y-112098134D01*
X89348255Y-112160316D01*
X89399385Y-112296705D01*
X89486739Y-112413261D01*
X89603295Y-112500615D01*
X89739684Y-112551745D01*
X89801866Y-112558500D01*
X92198134Y-112558500D01*
X92260316Y-112551745D01*
X92396705Y-112500615D01*
X92513261Y-112413261D01*
X92600615Y-112296705D01*
X92651745Y-112160316D01*
X92658500Y-112098134D01*
X92658500Y-111134500D01*
X92678502Y-111066379D01*
X92732158Y-111019886D01*
X92784500Y-111008500D01*
X93471088Y-111008500D01*
X93479658Y-111008792D01*
X93529776Y-111012209D01*
X93529780Y-111012209D01*
X93537352Y-111012725D01*
X93544829Y-111011420D01*
X93544830Y-111011420D01*
X93571308Y-111006799D01*
X93600303Y-111001738D01*
X93606821Y-111000777D01*
X93670242Y-110993102D01*
X93677343Y-110990419D01*
X93679952Y-110989778D01*
X93696262Y-110985315D01*
X93698798Y-110984550D01*
X93706284Y-110983243D01*
X93764800Y-110957556D01*
X93770904Y-110955065D01*
X93823548Y-110935173D01*
X93823549Y-110935172D01*
X93830656Y-110932487D01*
X93836919Y-110928183D01*
X93839285Y-110926946D01*
X93854097Y-110918701D01*
X93856351Y-110917368D01*
X93863305Y-110914315D01*
X93914002Y-110875413D01*
X93919332Y-110871541D01*
X93965720Y-110839661D01*
X93965725Y-110839656D01*
X93971981Y-110835357D01*
X93990757Y-110814284D01*
X94013427Y-110788839D01*
X94018408Y-110783562D01*
X94777102Y-110024869D01*
X94839414Y-109990844D01*
X94910230Y-109995909D01*
X94967065Y-110038456D01*
X94980392Y-110060716D01*
X95060149Y-110231758D01*
X95060153Y-110231764D01*
X95062477Y-110236749D01*
X95193802Y-110424300D01*
X95355700Y-110586198D01*
X95360208Y-110589355D01*
X95360211Y-110589357D01*
X95411893Y-110625545D01*
X95543251Y-110717523D01*
X95548233Y-110719846D01*
X95548238Y-110719849D01*
X95731557Y-110805331D01*
X95750757Y-110814284D01*
X95756065Y-110815706D01*
X95756067Y-110815707D01*
X95966598Y-110872119D01*
X95966600Y-110872119D01*
X95971913Y-110873543D01*
X96200000Y-110893498D01*
X96205475Y-110893019D01*
X96205485Y-110893019D01*
X96260117Y-110888239D01*
X96329722Y-110902227D01*
X96360194Y-110924664D01*
X97229595Y-111794065D01*
X97263621Y-111856377D01*
X97266500Y-111883160D01*
X97266500Y-112665500D01*
X97246498Y-112733621D01*
X97192842Y-112780114D01*
X97140500Y-112791500D01*
X93378927Y-112791500D01*
X93370358Y-112791208D01*
X93320225Y-112787790D01*
X93320221Y-112787790D01*
X93312648Y-112787274D01*
X93249681Y-112798264D01*
X93243169Y-112799224D01*
X93179758Y-112806898D01*
X93172657Y-112809581D01*
X93170048Y-112810222D01*
X93153715Y-112814691D01*
X93151195Y-112815452D01*
X93143717Y-112816757D01*
X93136765Y-112819809D01*
X93136764Y-112819809D01*
X93085204Y-112842441D01*
X93079099Y-112844932D01*
X93026456Y-112864825D01*
X93026452Y-112864827D01*
X93019344Y-112867513D01*
X93013083Y-112871816D01*
X93010717Y-112873053D01*
X92995937Y-112881280D01*
X92993652Y-112882631D01*
X92986695Y-112885685D01*
X92980675Y-112890305D01*
X92980669Y-112890308D01*
X92949542Y-112914194D01*
X92935998Y-112924587D01*
X92930668Y-112928459D01*
X92884280Y-112960339D01*
X92884275Y-112960344D01*
X92878019Y-112964643D01*
X92872968Y-112970313D01*
X92872966Y-112970314D01*
X92836565Y-113011170D01*
X92831584Y-113016446D01*
X92419113Y-113428917D01*
X92356801Y-113462943D01*
X92285789Y-113457804D01*
X92267718Y-113451029D01*
X92267711Y-113451027D01*
X92260316Y-113448255D01*
X92198134Y-113441500D01*
X89801866Y-113441500D01*
X89739684Y-113448255D01*
X89603295Y-113499385D01*
X89486739Y-113586739D01*
X89399385Y-113703295D01*
X89348255Y-113839684D01*
X89341500Y-113901866D01*
X89341500Y-117498134D01*
X89348255Y-117560316D01*
X89399385Y-117696705D01*
X89486739Y-117813261D01*
X89603295Y-117900615D01*
X89739684Y-117951745D01*
X89801866Y-117958500D01*
X92198134Y-117958500D01*
X92260316Y-117951745D01*
X92396705Y-117900615D01*
X92513261Y-117813261D01*
X92600615Y-117696705D01*
X92651745Y-117560316D01*
X92658500Y-117498134D01*
X92658500Y-115245660D01*
X92678502Y-115177539D01*
X92695405Y-115156565D01*
X93606565Y-114245405D01*
X93668877Y-114211379D01*
X93695660Y-114208500D01*
X99654339Y-114208500D01*
X99722460Y-114228502D01*
X99743435Y-114245405D01*
X100534596Y-115036567D01*
X100568621Y-115098879D01*
X100571500Y-115125662D01*
X100571500Y-115233122D01*
X100551498Y-115301243D01*
X100517771Y-115336335D01*
X100440211Y-115390643D01*
X100440208Y-115390645D01*
X100435700Y-115393802D01*
X100273802Y-115555700D01*
X100142477Y-115743251D01*
X100140154Y-115748233D01*
X100140151Y-115748238D01*
X100124195Y-115782457D01*
X100077278Y-115835742D01*
X100009001Y-115855203D01*
X99941041Y-115834661D01*
X99895805Y-115782457D01*
X99879849Y-115748238D01*
X99879846Y-115748233D01*
X99877523Y-115743251D01*
X99746198Y-115555700D01*
X99584300Y-115393802D01*
X99579792Y-115390645D01*
X99579789Y-115390643D01*
X99452112Y-115301243D01*
X99396749Y-115262477D01*
X99391767Y-115260154D01*
X99391762Y-115260151D01*
X99194225Y-115168039D01*
X99194224Y-115168039D01*
X99189243Y-115165716D01*
X99183935Y-115164294D01*
X99183933Y-115164293D01*
X98973402Y-115107881D01*
X98973400Y-115107881D01*
X98968087Y-115106457D01*
X98740000Y-115086502D01*
X98511913Y-115106457D01*
X98506600Y-115107881D01*
X98506598Y-115107881D01*
X98296067Y-115164293D01*
X98296065Y-115164294D01*
X98290757Y-115165716D01*
X98285776Y-115168039D01*
X98285775Y-115168039D01*
X98088238Y-115260151D01*
X98088233Y-115260154D01*
X98083251Y-115262477D01*
X98027888Y-115301243D01*
X97900211Y-115390643D01*
X97900208Y-115390645D01*
X97895700Y-115393802D01*
X97733802Y-115555700D01*
X97730643Y-115560211D01*
X97727108Y-115564424D01*
X97725974Y-115563473D01*
X97675929Y-115603471D01*
X97605310Y-115610776D01*
X97541951Y-115578742D01*
X97505970Y-115517538D01*
X97502918Y-115500483D01*
X97501745Y-115489684D01*
X97450615Y-115353295D01*
X97363261Y-115236739D01*
X97246705Y-115149385D01*
X97110316Y-115098255D01*
X97048134Y-115091500D01*
X95351866Y-115091500D01*
X95289684Y-115098255D01*
X95153295Y-115149385D01*
X95036739Y-115236739D01*
X94949385Y-115353295D01*
X94898255Y-115489684D01*
X94891500Y-115551866D01*
X94891500Y-118048134D01*
X94898255Y-118110316D01*
X94949385Y-118246705D01*
X95036739Y-118363261D01*
X95153295Y-118450615D01*
X95289684Y-118501745D01*
X95351866Y-118508500D01*
X95365500Y-118508500D01*
X95433621Y-118528502D01*
X95480114Y-118582158D01*
X95491500Y-118634500D01*
X95491500Y-122975500D01*
X95471498Y-123043621D01*
X95417842Y-123090114D01*
X95365500Y-123101500D01*
X95301866Y-123101500D01*
X95239684Y-123108255D01*
X95103295Y-123159385D01*
X94986739Y-123246739D01*
X94899385Y-123363295D01*
X94848255Y-123499684D01*
X94841500Y-123561866D01*
X94841500Y-123625500D01*
X94821498Y-123693621D01*
X94767842Y-123740114D01*
X94715500Y-123751500D01*
X94255660Y-123751500D01*
X94187539Y-123731498D01*
X94166565Y-123714595D01*
X93920405Y-123468435D01*
X93886379Y-123406123D01*
X93883500Y-123379340D01*
X93883500Y-122599600D01*
X93882224Y-122587303D01*
X93873238Y-122500692D01*
X93873237Y-122500688D01*
X93872526Y-122493834D01*
X93816550Y-122326054D01*
X93723478Y-122175652D01*
X93598303Y-122050695D01*
X93592072Y-122046854D01*
X93453968Y-121961725D01*
X93453966Y-121961724D01*
X93447738Y-121957885D01*
X93287254Y-121904655D01*
X93286389Y-121904368D01*
X93286387Y-121904368D01*
X93279861Y-121902203D01*
X93273025Y-121901503D01*
X93273022Y-121901502D01*
X93229969Y-121897091D01*
X93175400Y-121891500D01*
X91824600Y-121891500D01*
X91821354Y-121891837D01*
X91821350Y-121891837D01*
X91725692Y-121901762D01*
X91725688Y-121901763D01*
X91718834Y-121902474D01*
X91712298Y-121904655D01*
X91712296Y-121904655D01*
X91580194Y-121948728D01*
X91551054Y-121958450D01*
X91400652Y-122051522D01*
X91275695Y-122176697D01*
X91182885Y-122327262D01*
X91127203Y-122495139D01*
X91126503Y-122501975D01*
X91126502Y-122501978D01*
X91125288Y-122513829D01*
X91098446Y-122579556D01*
X91040331Y-122620337D01*
X90969393Y-122623225D01*
X90908155Y-122587303D01*
X90876059Y-122523975D01*
X90874617Y-122513987D01*
X90873238Y-122500693D01*
X90873237Y-122500690D01*
X90872526Y-122493834D01*
X90816550Y-122326054D01*
X90723478Y-122175652D01*
X90598303Y-122050695D01*
X90592072Y-122046854D01*
X90453968Y-121961725D01*
X90453966Y-121961724D01*
X90447738Y-121957885D01*
X90287254Y-121904655D01*
X90286389Y-121904368D01*
X90286387Y-121904368D01*
X90279861Y-121902203D01*
X90273025Y-121901503D01*
X90273022Y-121901502D01*
X90229969Y-121897091D01*
X90175400Y-121891500D01*
X88824600Y-121891500D01*
X88821354Y-121891837D01*
X88821350Y-121891837D01*
X88725692Y-121901762D01*
X88725688Y-121901763D01*
X88718834Y-121902474D01*
X88712298Y-121904655D01*
X88712296Y-121904655D01*
X88580194Y-121948728D01*
X88551054Y-121958450D01*
X88400652Y-122051522D01*
X88275695Y-122176697D01*
X88182885Y-122327262D01*
X88127203Y-122495139D01*
X88116500Y-122599600D01*
X88116500Y-123500400D01*
X88116837Y-123503646D01*
X88116837Y-123503650D01*
X88124347Y-123576025D01*
X88127474Y-123606166D01*
X88183450Y-123773946D01*
X88276522Y-123924348D01*
X88401697Y-124049305D01*
X88407927Y-124053145D01*
X88407928Y-124053146D01*
X88545090Y-124137694D01*
X88552262Y-124142115D01*
X88705167Y-124192831D01*
X88763527Y-124233261D01*
X88790764Y-124298826D01*
X88791500Y-124312424D01*
X88791500Y-125666088D01*
X88791208Y-125674658D01*
X88788030Y-125721280D01*
X88787275Y-125732352D01*
X88798059Y-125794139D01*
X88798261Y-125795299D01*
X88799223Y-125801821D01*
X88806898Y-125865242D01*
X88809581Y-125872343D01*
X88810222Y-125874952D01*
X88814685Y-125891262D01*
X88815450Y-125893798D01*
X88816757Y-125901284D01*
X88819811Y-125908241D01*
X88842442Y-125959795D01*
X88844935Y-125965904D01*
X88863417Y-126014815D01*
X88867513Y-126025656D01*
X88871817Y-126031919D01*
X88873054Y-126034285D01*
X88881299Y-126049097D01*
X88882632Y-126051351D01*
X88885685Y-126058305D01*
X88921747Y-126105300D01*
X88924579Y-126108991D01*
X88928459Y-126114332D01*
X88960339Y-126160720D01*
X88960344Y-126160725D01*
X88964643Y-126166981D01*
X88970313Y-126172032D01*
X88970314Y-126172034D01*
X89011161Y-126208427D01*
X89016438Y-126213408D01*
X89648565Y-126845536D01*
X89654418Y-126851801D01*
X89687445Y-126889660D01*
X89692439Y-126895385D01*
X89744729Y-126932136D01*
X89749971Y-126936028D01*
X89800282Y-126975476D01*
X89807201Y-126978600D01*
X89809493Y-126979988D01*
X89824165Y-126988357D01*
X89826525Y-126989622D01*
X89832739Y-126993990D01*
X89839818Y-126996750D01*
X89839820Y-126996751D01*
X89892275Y-127017202D01*
X89898344Y-127019753D01*
X89956573Y-127046045D01*
X89964046Y-127047430D01*
X89966612Y-127048234D01*
X89982835Y-127052855D01*
X89985427Y-127053520D01*
X89992509Y-127056282D01*
X90000044Y-127057274D01*
X90055861Y-127064622D01*
X90062377Y-127065654D01*
X90100770Y-127072770D01*
X90125186Y-127077295D01*
X90132766Y-127076858D01*
X90132767Y-127076858D01*
X90187380Y-127073709D01*
X90194633Y-127073500D01*
X98015088Y-127073500D01*
X98023658Y-127073792D01*
X98073776Y-127077209D01*
X98073780Y-127077209D01*
X98081352Y-127077725D01*
X98088829Y-127076420D01*
X98088830Y-127076420D01*
X98115308Y-127071799D01*
X98144303Y-127066738D01*
X98150821Y-127065777D01*
X98214242Y-127058102D01*
X98221343Y-127055419D01*
X98223952Y-127054778D01*
X98240262Y-127050315D01*
X98242798Y-127049550D01*
X98250284Y-127048243D01*
X98308800Y-127022556D01*
X98314904Y-127020065D01*
X98319319Y-127018397D01*
X98374656Y-126997487D01*
X98380919Y-126993183D01*
X98383285Y-126991946D01*
X98398097Y-126983701D01*
X98400351Y-126982368D01*
X98407305Y-126979315D01*
X98458002Y-126940413D01*
X98463332Y-126936541D01*
X98509720Y-126904661D01*
X98509725Y-126904656D01*
X98515981Y-126900357D01*
X98557436Y-126853829D01*
X98562416Y-126848554D01*
X99220520Y-126190450D01*
X99226785Y-126184596D01*
X99254154Y-126160720D01*
X99270385Y-126146561D01*
X99307114Y-126094300D01*
X99311046Y-126089005D01*
X99345791Y-126044694D01*
X99350477Y-126038718D01*
X99353602Y-126031796D01*
X99354964Y-126029548D01*
X99363368Y-126014815D01*
X99364622Y-126012476D01*
X99368990Y-126006261D01*
X99371749Y-125999185D01*
X99371751Y-125999181D01*
X99392202Y-125946726D01*
X99394758Y-125940646D01*
X99417918Y-125889351D01*
X99421045Y-125882426D01*
X99422429Y-125874955D01*
X99423230Y-125872401D01*
X99427867Y-125856122D01*
X99428523Y-125853567D01*
X99431282Y-125846491D01*
X99439621Y-125783149D01*
X99440653Y-125776633D01*
X99450912Y-125721280D01*
X99452296Y-125713813D01*
X99451143Y-125693813D01*
X99467191Y-125624654D01*
X99503765Y-125583982D01*
X99506084Y-125582328D01*
X99619860Y-125501173D01*
X99643496Y-125477620D01*
X99763616Y-125357918D01*
X99778096Y-125343489D01*
X99908453Y-125162077D01*
X99909776Y-125163028D01*
X99956645Y-125119857D01*
X100026580Y-125107625D01*
X100092026Y-125135144D01*
X100119875Y-125166994D01*
X100133055Y-125188502D01*
X100179987Y-125265088D01*
X100326250Y-125433938D01*
X100498126Y-125576632D01*
X100505353Y-125580855D01*
X100506242Y-125581798D01*
X100506827Y-125582207D01*
X100506742Y-125582328D01*
X100554075Y-125632493D01*
X100565061Y-125686312D01*
X100567394Y-125686190D01*
X100567791Y-125693777D01*
X100567275Y-125701352D01*
X100568580Y-125708829D01*
X100568580Y-125708830D01*
X100578261Y-125764299D01*
X100579223Y-125770821D01*
X100586898Y-125834242D01*
X100589581Y-125841343D01*
X100590222Y-125843952D01*
X100594685Y-125860262D01*
X100595450Y-125862798D01*
X100596757Y-125870284D01*
X100599811Y-125877241D01*
X100622442Y-125928795D01*
X100624933Y-125934899D01*
X100647513Y-125994656D01*
X100651817Y-126000919D01*
X100653054Y-126003285D01*
X100661299Y-126018097D01*
X100662632Y-126020351D01*
X100665685Y-126027305D01*
X100694095Y-126064328D01*
X100704579Y-126077991D01*
X100708459Y-126083332D01*
X100740339Y-126129720D01*
X100740344Y-126129725D01*
X100744643Y-126135981D01*
X100750313Y-126141032D01*
X100750314Y-126141034D01*
X100791170Y-126177435D01*
X100796446Y-126182416D01*
X101459550Y-126845520D01*
X101465404Y-126851785D01*
X101503439Y-126895385D01*
X101509657Y-126899755D01*
X101555697Y-126932112D01*
X101560993Y-126936045D01*
X101611282Y-126975477D01*
X101618204Y-126978602D01*
X101620452Y-126979964D01*
X101635185Y-126988368D01*
X101637524Y-126989622D01*
X101643739Y-126993990D01*
X101650815Y-126996749D01*
X101650819Y-126996751D01*
X101703269Y-127017200D01*
X101709334Y-127019749D01*
X101767573Y-127046045D01*
X101775038Y-127047429D01*
X101777582Y-127048226D01*
X101793848Y-127052859D01*
X101796428Y-127053521D01*
X101803509Y-127056282D01*
X101811042Y-127057274D01*
X101811043Y-127057274D01*
X101824261Y-127059014D01*
X101866857Y-127064622D01*
X101873355Y-127065650D01*
X101936187Y-127077296D01*
X101943767Y-127076859D01*
X101943768Y-127076859D01*
X101998398Y-127073709D01*
X102005651Y-127073500D01*
X107286088Y-127073500D01*
X107294658Y-127073792D01*
X107344776Y-127077209D01*
X107344780Y-127077209D01*
X107352352Y-127077725D01*
X107359829Y-127076420D01*
X107359830Y-127076420D01*
X107386308Y-127071799D01*
X107415303Y-127066738D01*
X107421821Y-127065777D01*
X107485242Y-127058102D01*
X107492343Y-127055419D01*
X107494952Y-127054778D01*
X107511262Y-127050315D01*
X107513798Y-127049550D01*
X107521284Y-127048243D01*
X107579800Y-127022556D01*
X107585904Y-127020065D01*
X107590319Y-127018397D01*
X107645656Y-126997487D01*
X107651919Y-126993183D01*
X107654285Y-126991946D01*
X107669097Y-126983701D01*
X107671351Y-126982368D01*
X107678305Y-126979315D01*
X107729002Y-126940413D01*
X107734332Y-126936541D01*
X107780720Y-126904661D01*
X107780725Y-126904656D01*
X107786981Y-126900357D01*
X107828435Y-126853830D01*
X107833408Y-126848562D01*
X108480536Y-126201435D01*
X108486801Y-126195582D01*
X108524664Y-126162552D01*
X108524665Y-126162551D01*
X108530385Y-126157561D01*
X108567136Y-126105271D01*
X108571028Y-126100029D01*
X108610476Y-126049718D01*
X108613600Y-126042799D01*
X108614988Y-126040507D01*
X108623357Y-126025835D01*
X108624622Y-126023475D01*
X108628990Y-126017261D01*
X108652203Y-125957723D01*
X108654759Y-125951642D01*
X108677918Y-125900352D01*
X108681045Y-125893427D01*
X108682430Y-125885954D01*
X108683234Y-125883388D01*
X108687855Y-125867165D01*
X108688520Y-125864573D01*
X108691282Y-125857491D01*
X108699622Y-125794139D01*
X108700654Y-125787623D01*
X108710911Y-125732281D01*
X108712295Y-125724814D01*
X108708709Y-125662620D01*
X108708500Y-125655367D01*
X108708500Y-116666878D01*
X108728502Y-116598757D01*
X108762229Y-116563665D01*
X108839789Y-116509357D01*
X108839792Y-116509355D01*
X108844300Y-116506198D01*
X109006198Y-116344300D01*
X109063665Y-116262229D01*
X109119122Y-116217901D01*
X109166878Y-116208500D01*
X110471088Y-116208500D01*
X110479658Y-116208792D01*
X110529776Y-116212209D01*
X110529780Y-116212209D01*
X110537352Y-116212725D01*
X110544829Y-116211420D01*
X110544830Y-116211420D01*
X110571308Y-116206799D01*
X110600303Y-116201738D01*
X110606821Y-116200777D01*
X110670242Y-116193102D01*
X110677343Y-116190419D01*
X110679952Y-116189778D01*
X110696262Y-116185315D01*
X110698798Y-116184550D01*
X110706284Y-116183243D01*
X110764800Y-116157556D01*
X110770904Y-116155065D01*
X110779646Y-116151762D01*
X110830656Y-116132487D01*
X110836919Y-116128183D01*
X110839285Y-116126946D01*
X110854097Y-116118701D01*
X110856351Y-116117368D01*
X110863305Y-116114315D01*
X110914002Y-116075413D01*
X110919332Y-116071541D01*
X110965720Y-116039661D01*
X110965725Y-116039656D01*
X110971981Y-116035357D01*
X111013436Y-115988829D01*
X111018416Y-115983554D01*
X112656565Y-114345405D01*
X112718877Y-114311379D01*
X112745660Y-114308500D01*
X113848134Y-114308500D01*
X113910316Y-114301745D01*
X114046705Y-114250615D01*
X114163261Y-114163261D01*
X114250615Y-114046705D01*
X114301745Y-113910316D01*
X114308500Y-113848134D01*
X114308500Y-112151866D01*
X114301745Y-112089684D01*
X114250615Y-111953295D01*
X114163261Y-111836739D01*
X114046705Y-111749385D01*
X113910316Y-111698255D01*
X113911046Y-111696309D01*
X113858795Y-111666455D01*
X113825979Y-111603497D01*
X113832409Y-111532793D01*
X113860498Y-111490000D01*
X114006198Y-111344300D01*
X114035211Y-111302866D01*
X114105853Y-111201978D01*
X114137523Y-111156749D01*
X114139846Y-111151767D01*
X114139849Y-111151762D01*
X114231961Y-110954225D01*
X114231961Y-110954224D01*
X114234284Y-110949243D01*
X114244882Y-110909693D01*
X114292119Y-110733402D01*
X114292119Y-110733400D01*
X114293543Y-110728087D01*
X114313498Y-110500000D01*
X114293556Y-110272064D01*
X114307545Y-110202460D01*
X114329982Y-110171988D01*
X116266768Y-108235203D01*
X118230528Y-106271443D01*
X118236793Y-106265589D01*
X118274664Y-106232552D01*
X118274665Y-106232551D01*
X118280385Y-106227561D01*
X118317136Y-106175271D01*
X118321028Y-106170029D01*
X118360476Y-106119718D01*
X118363600Y-106112799D01*
X118364988Y-106110507D01*
X118373357Y-106095835D01*
X118374622Y-106093475D01*
X118378990Y-106087261D01*
X118402203Y-106027723D01*
X118404759Y-106021642D01*
X118413801Y-106001618D01*
X118431045Y-105963427D01*
X118432430Y-105955954D01*
X118433234Y-105953388D01*
X118437855Y-105937165D01*
X118438520Y-105934573D01*
X118441282Y-105927491D01*
X118449622Y-105864139D01*
X118450654Y-105857623D01*
X118460911Y-105802281D01*
X118462295Y-105794814D01*
X118461830Y-105786739D01*
X118458709Y-105732620D01*
X118458500Y-105725367D01*
X118458500Y-101503076D01*
X118478502Y-101434955D01*
X118538116Y-101385924D01*
X118816505Y-101275702D01*
X118816510Y-101275700D01*
X118820179Y-101274247D01*
X118977832Y-101187576D01*
X119093307Y-101124093D01*
X119093310Y-101124091D01*
X119096779Y-101122184D01*
X119352140Y-100936654D01*
X119582233Y-100720582D01*
X119783432Y-100477375D01*
X119952562Y-100210869D01*
X119954246Y-100207290D01*
X119954250Y-100207283D01*
X120085267Y-99928856D01*
X120085269Y-99928852D01*
X120086956Y-99925266D01*
X120184495Y-99625072D01*
X120243641Y-99315020D01*
X120263460Y-99000000D01*
X120243641Y-98684980D01*
X120184495Y-98374928D01*
X120086956Y-98074734D01*
X120085267Y-98071144D01*
X119954250Y-97792717D01*
X119954246Y-97792710D01*
X119952562Y-97789131D01*
X119783432Y-97522625D01*
X119582233Y-97279418D01*
X119576481Y-97274016D01*
X119543001Y-97242577D01*
X119352140Y-97063346D01*
X119096779Y-96877816D01*
X118991739Y-96820069D01*
X118823648Y-96727660D01*
X118823647Y-96727659D01*
X118820179Y-96725753D01*
X118816510Y-96724300D01*
X118816505Y-96724298D01*
X118530372Y-96611010D01*
X118530371Y-96611010D01*
X118526702Y-96609557D01*
X118220975Y-96531060D01*
X117907821Y-96491500D01*
X117592179Y-96491500D01*
X117279025Y-96531060D01*
X116973298Y-96609557D01*
X116969629Y-96611010D01*
X116969628Y-96611010D01*
X116683495Y-96724298D01*
X116683490Y-96724300D01*
X116679821Y-96725753D01*
X116676353Y-96727659D01*
X116676352Y-96727660D01*
X116508262Y-96820069D01*
X116403221Y-96877816D01*
X116147860Y-97063346D01*
X115956999Y-97242577D01*
X115923520Y-97274016D01*
X115917767Y-97279418D01*
X115716568Y-97522625D01*
X115547438Y-97789131D01*
X115545754Y-97792710D01*
X115545750Y-97792717D01*
X115414733Y-98071144D01*
X115413044Y-98074734D01*
X115315505Y-98374928D01*
X115256359Y-98684980D01*
X115236540Y-99000000D01*
X115256359Y-99315020D01*
X115315505Y-99625072D01*
X115413044Y-99925266D01*
X115414731Y-99928852D01*
X115414733Y-99928856D01*
X115545750Y-100207283D01*
X115545754Y-100207290D01*
X115547438Y-100210869D01*
X115716568Y-100477375D01*
X115917767Y-100720582D01*
X116147860Y-100936654D01*
X116403221Y-101122184D01*
X116406690Y-101124091D01*
X116406693Y-101124093D01*
X116522168Y-101187576D01*
X116679821Y-101274247D01*
X116683490Y-101275700D01*
X116683495Y-101275702D01*
X116961884Y-101385924D01*
X117017858Y-101429599D01*
X117041500Y-101503076D01*
X117041500Y-105404340D01*
X117021498Y-105472461D01*
X117004595Y-105493435D01*
X113328012Y-109170018D01*
X113265700Y-109204044D01*
X113227937Y-109206444D01*
X113000000Y-109186502D01*
X112771913Y-109206457D01*
X112766600Y-109207881D01*
X112766598Y-109207881D01*
X112556067Y-109264293D01*
X112556065Y-109264294D01*
X112550757Y-109265716D01*
X112545776Y-109268039D01*
X112545775Y-109268039D01*
X112348238Y-109360151D01*
X112348233Y-109360154D01*
X112343251Y-109362477D01*
X112238389Y-109435902D01*
X112160211Y-109490643D01*
X112160208Y-109490645D01*
X112155700Y-109493802D01*
X111993802Y-109655700D01*
X111990645Y-109660208D01*
X111990643Y-109660211D01*
X111936335Y-109737771D01*
X111880878Y-109782099D01*
X111833122Y-109791500D01*
X109166878Y-109791500D01*
X109098757Y-109771498D01*
X109063665Y-109737771D01*
X109009357Y-109660211D01*
X109009355Y-109660208D01*
X109006198Y-109655700D01*
X108844300Y-109493802D01*
X108839792Y-109490645D01*
X108839789Y-109490643D01*
X108761611Y-109435902D01*
X108656749Y-109362477D01*
X108651767Y-109360154D01*
X108651762Y-109360151D01*
X108454225Y-109268039D01*
X108454224Y-109268039D01*
X108449243Y-109265716D01*
X108443935Y-109264294D01*
X108443933Y-109264293D01*
X108233402Y-109207881D01*
X108233400Y-109207881D01*
X108228087Y-109206457D01*
X108000000Y-109186502D01*
X107771913Y-109206457D01*
X107766600Y-109207881D01*
X107766598Y-109207881D01*
X107556067Y-109264293D01*
X107556065Y-109264294D01*
X107550757Y-109265716D01*
X107545776Y-109268039D01*
X107545775Y-109268039D01*
X107348238Y-109360151D01*
X107348233Y-109360154D01*
X107343251Y-109362477D01*
X107238389Y-109435902D01*
X107160211Y-109490643D01*
X107160208Y-109490645D01*
X107155700Y-109493802D01*
X106993802Y-109655700D01*
X106990645Y-109660208D01*
X106990643Y-109660211D01*
X106949016Y-109719661D01*
X106862477Y-109843251D01*
X106860154Y-109848233D01*
X106860151Y-109848238D01*
X106778225Y-110023931D01*
X106765716Y-110050757D01*
X106764294Y-110056065D01*
X106764293Y-110056067D01*
X106715879Y-110236749D01*
X106706457Y-110271913D01*
X106686502Y-110500000D01*
X106706457Y-110728087D01*
X106707881Y-110733400D01*
X106707881Y-110733402D01*
X106755119Y-110909693D01*
X106765716Y-110949243D01*
X106768039Y-110954224D01*
X106768039Y-110954225D01*
X106860151Y-111151762D01*
X106860154Y-111151767D01*
X106862477Y-111156749D01*
X106894147Y-111201978D01*
X106964790Y-111302866D01*
X106993802Y-111344300D01*
X107155700Y-111506198D01*
X107160208Y-111509355D01*
X107160211Y-111509357D01*
X107237771Y-111563665D01*
X107282099Y-111619122D01*
X107291500Y-111666878D01*
X107291500Y-112274339D01*
X107271498Y-112342460D01*
X107254595Y-112363434D01*
X104456480Y-115161550D01*
X104394168Y-115195576D01*
X104323353Y-115190511D01*
X104314134Y-115186649D01*
X104274230Y-115168041D01*
X104274226Y-115168039D01*
X104269243Y-115165716D01*
X104263935Y-115164294D01*
X104263933Y-115164293D01*
X104053402Y-115107881D01*
X104053400Y-115107881D01*
X104048087Y-115106457D01*
X103820000Y-115086502D01*
X103591913Y-115106457D01*
X103586600Y-115107881D01*
X103586598Y-115107881D01*
X103376067Y-115164293D01*
X103376065Y-115164294D01*
X103370757Y-115165716D01*
X103365776Y-115168039D01*
X103365775Y-115168039D01*
X103168238Y-115260151D01*
X103168233Y-115260154D01*
X103163251Y-115262477D01*
X103107888Y-115301243D01*
X102980211Y-115390643D01*
X102980208Y-115390645D01*
X102975700Y-115393802D01*
X102813802Y-115555700D01*
X102682477Y-115743251D01*
X102680154Y-115748233D01*
X102680151Y-115748238D01*
X102664195Y-115782457D01*
X102617278Y-115835742D01*
X102549001Y-115855203D01*
X102481041Y-115834661D01*
X102435805Y-115782457D01*
X102419849Y-115748238D01*
X102419846Y-115748233D01*
X102417523Y-115743251D01*
X102286198Y-115555700D01*
X102124300Y-115393802D01*
X102119792Y-115390645D01*
X102119789Y-115390643D01*
X102042229Y-115336335D01*
X101997901Y-115280878D01*
X101988500Y-115233122D01*
X101988500Y-114808912D01*
X101988792Y-114800342D01*
X101992209Y-114750224D01*
X101992209Y-114750220D01*
X101992725Y-114742648D01*
X101981739Y-114679703D01*
X101980777Y-114673182D01*
X101979207Y-114660211D01*
X101973102Y-114609758D01*
X101970416Y-114602650D01*
X101969779Y-114600056D01*
X101965318Y-114583750D01*
X101964548Y-114581199D01*
X101963242Y-114573716D01*
X101937561Y-114515212D01*
X101935069Y-114509105D01*
X101915173Y-114456452D01*
X101915173Y-114456451D01*
X101912487Y-114449344D01*
X101908184Y-114443083D01*
X101906947Y-114440717D01*
X101898720Y-114425937D01*
X101897369Y-114423652D01*
X101894315Y-114416695D01*
X101889695Y-114410675D01*
X101889692Y-114410669D01*
X101855421Y-114366009D01*
X101851541Y-114360668D01*
X101819661Y-114314280D01*
X101819656Y-114314275D01*
X101815357Y-114308019D01*
X101808316Y-114301745D01*
X101768830Y-114266565D01*
X101763554Y-114261584D01*
X101125565Y-113623595D01*
X101091539Y-113561283D01*
X101096604Y-113490468D01*
X101139151Y-113433632D01*
X101205671Y-113408821D01*
X101214660Y-113408500D01*
X102025400Y-113408500D01*
X102028646Y-113408163D01*
X102028650Y-113408163D01*
X102124308Y-113398238D01*
X102124312Y-113398237D01*
X102131166Y-113397526D01*
X102137702Y-113395345D01*
X102137704Y-113395345D01*
X102291998Y-113343868D01*
X102298946Y-113341550D01*
X102449348Y-113248478D01*
X102574305Y-113123303D01*
X102652965Y-112995694D01*
X102663275Y-112978968D01*
X102663276Y-112978966D01*
X102667115Y-112972738D01*
X102700179Y-112873053D01*
X102720632Y-112811389D01*
X102720632Y-112811387D01*
X102722797Y-112804861D01*
X102724188Y-112791291D01*
X102730096Y-112733621D01*
X102733500Y-112700400D01*
X102733500Y-111299600D01*
X102733163Y-111296350D01*
X102723238Y-111200692D01*
X102723237Y-111200688D01*
X102722526Y-111193834D01*
X102711658Y-111161257D01*
X102668868Y-111033002D01*
X102666550Y-111026054D01*
X102573478Y-110875652D01*
X102448303Y-110750695D01*
X102330883Y-110678316D01*
X102283391Y-110625545D01*
X102271000Y-110571057D01*
X102271000Y-110485733D01*
X102293787Y-110413462D01*
X102414366Y-110241258D01*
X102414367Y-110241256D01*
X102417523Y-110236749D01*
X102419846Y-110231767D01*
X102419849Y-110231762D01*
X102435805Y-110197543D01*
X102482722Y-110144258D01*
X102550999Y-110124797D01*
X102618959Y-110145339D01*
X102664195Y-110197543D01*
X102680151Y-110231762D01*
X102680154Y-110231767D01*
X102682477Y-110236749D01*
X102813802Y-110424300D01*
X102975700Y-110586198D01*
X102980208Y-110589355D01*
X102980211Y-110589357D01*
X103031893Y-110625545D01*
X103163251Y-110717523D01*
X103168233Y-110719846D01*
X103168238Y-110719849D01*
X103351557Y-110805331D01*
X103370757Y-110814284D01*
X103376065Y-110815706D01*
X103376067Y-110815707D01*
X103586598Y-110872119D01*
X103586600Y-110872119D01*
X103591913Y-110873543D01*
X103820000Y-110893498D01*
X104048087Y-110873543D01*
X104053400Y-110872119D01*
X104053402Y-110872119D01*
X104263933Y-110815707D01*
X104263935Y-110815706D01*
X104269243Y-110814284D01*
X104288443Y-110805331D01*
X104471762Y-110719849D01*
X104471767Y-110719846D01*
X104476749Y-110717523D01*
X104608107Y-110625545D01*
X104659789Y-110589357D01*
X104659792Y-110589355D01*
X104664300Y-110586198D01*
X104826198Y-110424300D01*
X104957523Y-110236749D01*
X104959846Y-110231767D01*
X104959849Y-110231762D01*
X105051961Y-110034225D01*
X105051961Y-110034224D01*
X105054284Y-110029243D01*
X105055706Y-110023938D01*
X105055708Y-110023931D01*
X105066972Y-109981890D01*
X105103923Y-109921267D01*
X105167783Y-109890245D01*
X105188679Y-109888500D01*
X105791088Y-109888500D01*
X105799658Y-109888792D01*
X105849776Y-109892209D01*
X105849780Y-109892209D01*
X105857352Y-109892725D01*
X105864829Y-109891420D01*
X105864830Y-109891420D01*
X105891308Y-109886799D01*
X105920303Y-109881738D01*
X105926821Y-109880777D01*
X105990242Y-109873102D01*
X105997343Y-109870419D01*
X105999952Y-109869778D01*
X106016262Y-109865315D01*
X106018798Y-109864550D01*
X106026284Y-109863243D01*
X106084800Y-109837556D01*
X106090904Y-109835065D01*
X106143548Y-109815173D01*
X106143549Y-109815172D01*
X106150656Y-109812487D01*
X106156919Y-109808183D01*
X106159285Y-109806946D01*
X106174097Y-109798701D01*
X106176351Y-109797368D01*
X106183305Y-109794315D01*
X106234002Y-109755413D01*
X106239332Y-109751541D01*
X106285720Y-109719661D01*
X106285725Y-109719656D01*
X106291981Y-109715357D01*
X106333436Y-109668829D01*
X106338416Y-109663554D01*
X107480520Y-108521450D01*
X107486785Y-108515596D01*
X107502524Y-108501866D01*
X107530385Y-108477561D01*
X107567129Y-108425280D01*
X107571061Y-108419986D01*
X107605791Y-108375693D01*
X107610476Y-108369718D01*
X107613599Y-108362802D01*
X107614983Y-108360516D01*
X107623357Y-108345835D01*
X107624622Y-108343475D01*
X107628990Y-108337261D01*
X107645035Y-108296109D01*
X107652202Y-108277725D01*
X107654759Y-108271642D01*
X107671213Y-108235203D01*
X107681045Y-108213427D01*
X107682429Y-108205960D01*
X107683230Y-108203405D01*
X107687859Y-108187152D01*
X107688522Y-108184572D01*
X107691282Y-108177491D01*
X107699622Y-108114139D01*
X107700653Y-108107632D01*
X107701184Y-108104771D01*
X107712296Y-108044814D01*
X107708709Y-107982608D01*
X107708500Y-107975354D01*
X107708500Y-106812560D01*
X107728502Y-106744439D01*
X107782158Y-106697946D01*
X107794624Y-106693036D01*
X107948946Y-106641550D01*
X108099348Y-106548478D01*
X108224305Y-106423303D01*
X108317115Y-106272738D01*
X108318795Y-106273774D01*
X108359121Y-106227969D01*
X108426405Y-106208500D01*
X108515500Y-106208500D01*
X108583621Y-106228502D01*
X108630114Y-106282158D01*
X108641500Y-106334500D01*
X108641500Y-107698134D01*
X108648255Y-107760316D01*
X108699385Y-107896705D01*
X108786739Y-108013261D01*
X108903295Y-108100615D01*
X109039684Y-108151745D01*
X109101866Y-108158500D01*
X111898134Y-108158500D01*
X111960316Y-108151745D01*
X112096705Y-108100615D01*
X112213261Y-108013261D01*
X112300615Y-107896705D01*
X112351745Y-107760316D01*
X112358500Y-107698134D01*
X112358500Y-106101866D01*
X112351745Y-106039684D01*
X112300615Y-105903295D01*
X112213261Y-105786739D01*
X112096705Y-105699385D01*
X111960316Y-105648255D01*
X111898134Y-105641500D01*
X111180138Y-105641500D01*
X111112017Y-105621498D01*
X111080182Y-105592213D01*
X111075412Y-105585996D01*
X111071541Y-105580668D01*
X111039661Y-105534280D01*
X111039656Y-105534275D01*
X111035357Y-105528019D01*
X110988829Y-105486564D01*
X110983554Y-105481584D01*
X110521450Y-105019480D01*
X110515596Y-105013215D01*
X110505793Y-105001978D01*
X110477561Y-104969615D01*
X110425280Y-104932871D01*
X110419986Y-104928939D01*
X110375693Y-104894209D01*
X110369718Y-104889524D01*
X110362802Y-104886401D01*
X110360516Y-104885017D01*
X110345835Y-104876643D01*
X110343475Y-104875378D01*
X110337261Y-104871010D01*
X110330182Y-104868250D01*
X110330180Y-104868249D01*
X110277725Y-104847798D01*
X110271656Y-104845247D01*
X110213427Y-104818955D01*
X110205960Y-104817571D01*
X110203405Y-104816770D01*
X110187152Y-104812141D01*
X110184572Y-104811478D01*
X110177491Y-104808718D01*
X110169960Y-104807727D01*
X110169958Y-104807726D01*
X110140339Y-104803827D01*
X110114139Y-104800378D01*
X110107641Y-104799348D01*
X110044814Y-104787704D01*
X110037234Y-104788141D01*
X110037233Y-104788141D01*
X109982608Y-104791291D01*
X109975354Y-104791500D01*
X108365369Y-104791500D01*
X108297248Y-104771498D01*
X108258228Y-104731807D01*
X108223478Y-104675652D01*
X108098303Y-104550695D01*
X108005870Y-104493718D01*
X107953968Y-104461725D01*
X107953966Y-104461724D01*
X107947738Y-104457885D01*
X107787254Y-104404655D01*
X107786389Y-104404368D01*
X107786387Y-104404368D01*
X107779861Y-104402203D01*
X107773025Y-104401503D01*
X107773022Y-104401502D01*
X107729969Y-104397091D01*
X107675400Y-104391500D01*
X106324600Y-104391500D01*
X106321354Y-104391837D01*
X106321350Y-104391837D01*
X106225692Y-104401762D01*
X106225688Y-104401763D01*
X106218834Y-104402474D01*
X106212298Y-104404655D01*
X106212296Y-104404655D01*
X106080194Y-104448728D01*
X106051054Y-104458450D01*
X105900652Y-104551522D01*
X105775695Y-104676697D01*
X105771855Y-104682927D01*
X105771854Y-104682928D01*
X105688006Y-104818955D01*
X105682885Y-104827262D01*
X105659886Y-104896601D01*
X105633771Y-104975338D01*
X105627203Y-104995139D01*
X105626503Y-105001975D01*
X105626502Y-105001978D01*
X105625021Y-105016435D01*
X105616500Y-105099600D01*
X105616500Y-106000400D01*
X105616837Y-106003646D01*
X105616837Y-106003650D01*
X105624778Y-106080180D01*
X105627474Y-106106166D01*
X105629655Y-106112702D01*
X105629655Y-106112704D01*
X105661615Y-106208500D01*
X105683450Y-106273946D01*
X105776522Y-106424348D01*
X105901697Y-106549305D01*
X105907927Y-106553145D01*
X105907928Y-106553146D01*
X106045090Y-106637694D01*
X106052262Y-106642115D01*
X106205167Y-106692831D01*
X106263527Y-106733261D01*
X106290764Y-106798826D01*
X106291500Y-106812424D01*
X106291500Y-107654340D01*
X106271498Y-107722461D01*
X106254595Y-107743435D01*
X105563435Y-108434595D01*
X105501123Y-108468621D01*
X105474340Y-108471500D01*
X105188679Y-108471500D01*
X105120558Y-108451498D01*
X105074065Y-108397842D01*
X105066972Y-108378110D01*
X105066325Y-108375693D01*
X105062258Y-108360516D01*
X105055708Y-108336069D01*
X105055706Y-108336062D01*
X105054284Y-108330757D01*
X105045399Y-108311703D01*
X104959849Y-108128238D01*
X104959846Y-108128233D01*
X104957523Y-108123251D01*
X104880507Y-108013261D01*
X104829357Y-107940211D01*
X104829355Y-107940208D01*
X104826198Y-107935700D01*
X104664300Y-107773802D01*
X104659792Y-107770645D01*
X104659789Y-107770643D01*
X104568226Y-107706530D01*
X104476749Y-107642477D01*
X104471767Y-107640154D01*
X104471762Y-107640151D01*
X104274225Y-107548039D01*
X104274224Y-107548039D01*
X104269243Y-107545716D01*
X104263935Y-107544294D01*
X104263933Y-107544293D01*
X104053402Y-107487881D01*
X104053400Y-107487881D01*
X104048087Y-107486457D01*
X103820000Y-107466502D01*
X103591913Y-107486457D01*
X103586600Y-107487881D01*
X103586598Y-107487881D01*
X103370757Y-107545716D01*
X103370350Y-107544198D01*
X103306740Y-107548240D01*
X103244700Y-107513721D01*
X103211171Y-107451141D01*
X103208500Y-107425336D01*
X103208500Y-105368151D01*
X103228502Y-105300030D01*
X103276320Y-105256388D01*
X103316611Y-105235414D01*
X103316612Y-105235413D01*
X103321200Y-105233025D01*
X103325333Y-105229922D01*
X103325336Y-105229920D01*
X103509185Y-105091882D01*
X103509188Y-105091880D01*
X103513320Y-105088777D01*
X103679301Y-104915088D01*
X103804330Y-104731803D01*
X103811774Y-104720891D01*
X103811775Y-104720890D01*
X103814686Y-104716622D01*
X103830327Y-104682928D01*
X103913658Y-104503405D01*
X103913659Y-104503401D01*
X103915837Y-104498710D01*
X103980040Y-104267202D01*
X104001000Y-104071072D01*
X104001000Y-103836598D01*
X103986322Y-103658063D01*
X103927794Y-103425056D01*
X103844579Y-103233674D01*
X103834057Y-103209474D01*
X103834055Y-103209471D01*
X103831997Y-103204737D01*
X103707765Y-103012704D01*
X103704310Y-103007363D01*
X103704308Y-103007360D01*
X103701502Y-103003023D01*
X103672523Y-102971175D01*
X103541307Y-102826970D01*
X103510255Y-102763124D01*
X103508500Y-102742170D01*
X103508500Y-97428365D01*
X103509237Y-97414758D01*
X103512659Y-97383260D01*
X103512659Y-97383255D01*
X103513324Y-97377134D01*
X103508950Y-97327134D01*
X103508621Y-97322308D01*
X103508500Y-97319836D01*
X103508500Y-97316753D01*
X103507326Y-97304784D01*
X103504310Y-97274016D01*
X103504188Y-97272703D01*
X103496623Y-97186240D01*
X103496087Y-97180109D01*
X103494600Y-97174990D01*
X103494080Y-97169689D01*
X103467209Y-97080688D01*
X103466874Y-97079555D01*
X103442630Y-96996108D01*
X103442628Y-96996104D01*
X103440909Y-96990186D01*
X103438456Y-96985454D01*
X103436916Y-96980353D01*
X103393269Y-96898262D01*
X103392657Y-96897096D01*
X103352729Y-96820069D01*
X103349892Y-96814596D01*
X103346569Y-96810433D01*
X103344066Y-96805726D01*
X103285245Y-96733604D01*
X103284554Y-96732748D01*
X103253262Y-96693549D01*
X103250758Y-96691045D01*
X103250116Y-96690327D01*
X103246415Y-96685994D01*
X103219065Y-96652460D01*
X103183737Y-96623234D01*
X103174958Y-96615245D01*
X102338308Y-95778595D01*
X102304282Y-95716283D01*
X102309347Y-95645468D01*
X102351894Y-95588632D01*
X102418414Y-95563821D01*
X102427403Y-95563500D01*
X102994340Y-95563500D01*
X103062461Y-95583502D01*
X103083435Y-95600405D01*
X106254595Y-98771566D01*
X106288621Y-98833878D01*
X106291500Y-98860661D01*
X106291500Y-101187440D01*
X106271498Y-101255561D01*
X106217842Y-101302054D01*
X106205377Y-101306964D01*
X106051054Y-101358450D01*
X105900652Y-101451522D01*
X105775695Y-101576697D01*
X105771855Y-101582927D01*
X105771854Y-101582928D01*
X105688692Y-101717842D01*
X105682885Y-101727262D01*
X105659886Y-101796601D01*
X105645650Y-101839524D01*
X105627203Y-101895139D01*
X105626503Y-101901975D01*
X105626502Y-101901978D01*
X105624695Y-101919615D01*
X105616500Y-101999600D01*
X105616500Y-102900400D01*
X105616837Y-102903646D01*
X105616837Y-102903650D01*
X105626751Y-102999196D01*
X105627474Y-103006166D01*
X105629655Y-103012702D01*
X105629655Y-103012704D01*
X105647128Y-103065075D01*
X105683450Y-103173946D01*
X105776522Y-103324348D01*
X105901697Y-103449305D01*
X105907927Y-103453145D01*
X105907928Y-103453146D01*
X106045090Y-103537694D01*
X106052262Y-103542115D01*
X106132005Y-103568564D01*
X106213611Y-103595632D01*
X106213613Y-103595632D01*
X106220139Y-103597797D01*
X106226975Y-103598497D01*
X106226978Y-103598498D01*
X106270031Y-103602909D01*
X106324600Y-103608500D01*
X107675400Y-103608500D01*
X107678646Y-103608163D01*
X107678650Y-103608163D01*
X107774308Y-103598238D01*
X107774312Y-103598237D01*
X107781166Y-103597526D01*
X107787702Y-103595345D01*
X107787704Y-103595345D01*
X107919806Y-103551272D01*
X107948946Y-103541550D01*
X108099348Y-103448478D01*
X108224305Y-103323303D01*
X108228146Y-103317072D01*
X108228148Y-103317070D01*
X108258159Y-103268383D01*
X108310931Y-103220890D01*
X108365418Y-103208500D01*
X108738411Y-103208500D01*
X108806532Y-103228502D01*
X108813975Y-103233674D01*
X108903295Y-103300615D01*
X109039684Y-103351745D01*
X109101866Y-103358500D01*
X111898134Y-103358500D01*
X111960316Y-103351745D01*
X112096705Y-103300615D01*
X112213261Y-103213261D01*
X112300615Y-103096705D01*
X112351745Y-102960316D01*
X112358500Y-102898134D01*
X112358500Y-101301866D01*
X112351745Y-101239684D01*
X112300615Y-101103295D01*
X112213261Y-100986739D01*
X112096705Y-100899385D01*
X111960316Y-100848255D01*
X111898134Y-100841500D01*
X109101866Y-100841500D01*
X109039684Y-100848255D01*
X108903295Y-100899385D01*
X108786739Y-100986739D01*
X108699385Y-101103295D01*
X108648255Y-101239684D01*
X108641500Y-101301866D01*
X108641500Y-101665500D01*
X108621498Y-101733621D01*
X108567842Y-101780114D01*
X108515500Y-101791500D01*
X108426387Y-101791500D01*
X108358266Y-101771498D01*
X108317816Y-101725270D01*
X108316550Y-101726054D01*
X108227332Y-101581880D01*
X108227330Y-101581877D01*
X108223478Y-101575652D01*
X108098303Y-101450695D01*
X108000557Y-101390443D01*
X107953968Y-101361725D01*
X107953966Y-101361724D01*
X107947738Y-101357885D01*
X107794833Y-101307169D01*
X107736473Y-101266739D01*
X107709236Y-101201174D01*
X107708500Y-101187576D01*
X107708500Y-98543911D01*
X107708792Y-98535342D01*
X107712209Y-98485223D01*
X107712209Y-98485219D01*
X107712725Y-98477647D01*
X107701736Y-98414685D01*
X107700777Y-98408182D01*
X107694015Y-98352302D01*
X107693102Y-98344758D01*
X107690416Y-98337649D01*
X107689784Y-98335078D01*
X107685324Y-98318772D01*
X107684549Y-98316204D01*
X107683242Y-98308716D01*
X107657561Y-98250212D01*
X107655069Y-98244105D01*
X107635173Y-98191452D01*
X107635173Y-98191451D01*
X107632487Y-98184344D01*
X107628184Y-98178083D01*
X107626947Y-98175717D01*
X107618720Y-98160937D01*
X107617369Y-98158652D01*
X107614315Y-98151695D01*
X107609695Y-98145675D01*
X107609692Y-98145669D01*
X107575421Y-98101009D01*
X107571541Y-98095668D01*
X107539661Y-98049280D01*
X107539656Y-98049275D01*
X107535357Y-98043019D01*
X107488829Y-98001564D01*
X107483554Y-97996584D01*
X104037905Y-94550935D01*
X104003879Y-94488623D01*
X104001000Y-94461840D01*
X104001000Y-93006866D01*
X103994245Y-92944684D01*
X103943115Y-92808295D01*
X103855761Y-92691739D01*
X103739205Y-92604385D01*
X103602816Y-92553255D01*
X103540634Y-92546500D01*
X101539366Y-92546500D01*
X101477184Y-92553255D01*
X101340795Y-92604385D01*
X101231419Y-92686358D01*
X101225065Y-92691120D01*
X101158559Y-92715968D01*
X101089176Y-92700915D01*
X101038946Y-92650741D01*
X101023500Y-92590294D01*
X101023500Y-92259066D01*
X101043502Y-92190945D01*
X101097158Y-92144452D01*
X101167432Y-92134348D01*
X101195270Y-92141673D01*
X101221252Y-92151803D01*
X101222275Y-92152202D01*
X101228344Y-92154753D01*
X101286573Y-92181045D01*
X101294046Y-92182430D01*
X101296612Y-92183234D01*
X101312835Y-92187855D01*
X101315427Y-92188520D01*
X101322509Y-92191282D01*
X101330044Y-92192274D01*
X101385861Y-92199622D01*
X101392377Y-92200654D01*
X101399521Y-92201978D01*
X101455186Y-92212295D01*
X101462766Y-92211858D01*
X101462767Y-92211858D01*
X101517380Y-92208709D01*
X101524633Y-92208500D01*
X104043003Y-92208500D01*
X104101631Y-92201405D01*
X104162701Y-92194015D01*
X104162704Y-92194014D01*
X104170242Y-92193102D01*
X104177343Y-92190419D01*
X104177346Y-92190418D01*
X104323553Y-92135171D01*
X104330656Y-92132487D01*
X104393997Y-92088954D01*
X104465722Y-92039659D01*
X104465724Y-92039658D01*
X104471981Y-92035357D01*
X104505533Y-91997699D01*
X104581004Y-91912993D01*
X104581006Y-91912990D01*
X104586057Y-91907321D01*
X104666300Y-91755769D01*
X104680050Y-91701029D01*
X104706225Y-91596822D01*
X104706225Y-91596818D01*
X104708076Y-91589451D01*
X104708974Y-91417969D01*
X104668942Y-91251223D01*
X104590291Y-91098839D01*
X104477561Y-90969615D01*
X104337261Y-90871010D01*
X104257376Y-90839864D01*
X104184571Y-90811478D01*
X104184568Y-90811477D01*
X104177491Y-90808718D01*
X104169958Y-90807726D01*
X104169957Y-90807726D01*
X104050793Y-90792038D01*
X104050792Y-90792038D01*
X104046706Y-90791500D01*
X103336468Y-90791500D01*
X103268347Y-90771498D01*
X103221854Y-90717842D01*
X103211750Y-90647568D01*
X103241244Y-90582988D01*
X103264197Y-90562287D01*
X103339789Y-90509357D01*
X103339792Y-90509355D01*
X103344300Y-90506198D01*
X103506198Y-90344300D01*
X103535683Y-90302192D01*
X103634366Y-90161257D01*
X103637523Y-90156749D01*
X103639846Y-90151767D01*
X103639849Y-90151762D01*
X103731961Y-89954225D01*
X103731961Y-89954224D01*
X103734284Y-89949243D01*
X103793543Y-89728087D01*
X103813498Y-89500000D01*
X103793543Y-89271913D01*
X103734284Y-89050757D01*
X103731961Y-89045775D01*
X103639849Y-88848238D01*
X103639846Y-88848233D01*
X103637523Y-88843251D01*
X103634367Y-88838744D01*
X103634366Y-88838742D01*
X103556287Y-88727234D01*
X103533500Y-88654963D01*
X103533500Y-86423970D01*
X103553502Y-86355849D01*
X103561460Y-86345120D01*
X103563096Y-86343489D01*
X103693453Y-86162077D01*
X103714320Y-86119857D01*
X103790136Y-85966453D01*
X103790137Y-85966451D01*
X103792430Y-85961811D01*
X103857370Y-85748069D01*
X103886529Y-85526590D01*
X103888156Y-85460000D01*
X103869852Y-85237361D01*
X103815431Y-85020702D01*
X103726354Y-84815840D01*
X103605014Y-84628277D01*
X103585113Y-84606406D01*
X103566306Y-84585737D01*
X103535254Y-84521891D01*
X103533500Y-84500938D01*
X103533500Y-84341009D01*
X103553502Y-84272888D01*
X103607158Y-84226395D01*
X103612694Y-84224097D01*
X103613296Y-84223768D01*
X103621705Y-84220615D01*
X103738261Y-84133261D01*
X103825615Y-84016705D01*
X103876745Y-83880316D01*
X103883500Y-83818134D01*
X103883500Y-82021866D01*
X103876745Y-81959684D01*
X103825615Y-81823295D01*
X103738261Y-81706739D01*
X103621705Y-81619385D01*
X103613296Y-81616233D01*
X103605425Y-81611923D01*
X103606336Y-81610259D01*
X103558510Y-81574337D01*
X103533807Y-81507776D01*
X103533500Y-81498991D01*
X103533500Y-81086843D01*
X103534237Y-81073236D01*
X103537659Y-81041738D01*
X103537659Y-81041733D01*
X103538324Y-81035612D01*
X103533950Y-80985612D01*
X103533621Y-80980786D01*
X103533500Y-80978314D01*
X103533500Y-80975231D01*
X103530965Y-80949380D01*
X103529310Y-80932494D01*
X103529188Y-80931181D01*
X103523017Y-80860652D01*
X103521087Y-80838587D01*
X103519600Y-80833468D01*
X103519080Y-80828167D01*
X103492209Y-80739166D01*
X103491874Y-80738033D01*
X103467630Y-80654586D01*
X103467628Y-80654582D01*
X103465909Y-80648664D01*
X103463456Y-80643932D01*
X103461916Y-80638831D01*
X103426422Y-80572075D01*
X103418269Y-80556740D01*
X103417657Y-80555574D01*
X103377729Y-80478547D01*
X103374892Y-80473074D01*
X103371569Y-80468911D01*
X103369066Y-80464204D01*
X103310245Y-80392082D01*
X103309554Y-80391226D01*
X103278262Y-80352027D01*
X103275758Y-80349523D01*
X103275116Y-80348805D01*
X103271415Y-80344472D01*
X103244065Y-80310938D01*
X103208733Y-80281709D01*
X103199963Y-80273728D01*
X102256851Y-79330617D01*
X102247749Y-79320473D01*
X102227897Y-79295782D01*
X102224032Y-79290975D01*
X102185578Y-79258708D01*
X102181931Y-79255528D01*
X102180119Y-79253885D01*
X102177925Y-79251691D01*
X102144651Y-79224358D01*
X102143853Y-79223696D01*
X102072526Y-79163846D01*
X102067856Y-79161278D01*
X102063739Y-79157897D01*
X101981914Y-79114023D01*
X101980755Y-79113394D01*
X101904619Y-79071538D01*
X101904611Y-79071535D01*
X101899213Y-79068567D01*
X101894131Y-79066955D01*
X101889437Y-79064438D01*
X101800469Y-79037238D01*
X101799441Y-79036918D01*
X101710694Y-79008765D01*
X101705398Y-79008171D01*
X101700302Y-79006613D01*
X101607743Y-78997210D01*
X101606607Y-78997089D01*
X101572992Y-78993319D01*
X101560270Y-78991892D01*
X101560266Y-78991892D01*
X101556773Y-78991500D01*
X101553246Y-78991500D01*
X101552261Y-78991445D01*
X101546581Y-78990998D01*
X101517175Y-78988011D01*
X101509663Y-78987248D01*
X101509661Y-78987248D01*
X101503538Y-78986626D01*
X101461259Y-78990623D01*
X101457891Y-78990941D01*
X101446033Y-78991500D01*
X96061843Y-78991500D01*
X96048236Y-78990763D01*
X96016738Y-78987341D01*
X96016733Y-78987341D01*
X96010612Y-78986676D01*
X95984362Y-78988973D01*
X95960612Y-78991050D01*
X95955786Y-78991379D01*
X95953314Y-78991500D01*
X95950231Y-78991500D01*
X95938262Y-78992674D01*
X95907494Y-78995690D01*
X95906181Y-78995812D01*
X95861916Y-78999685D01*
X95813587Y-79003913D01*
X95808468Y-79005400D01*
X95803167Y-79005920D01*
X95714166Y-79032791D01*
X95713033Y-79033126D01*
X95629586Y-79057370D01*
X95629582Y-79057372D01*
X95623664Y-79059091D01*
X95618932Y-79061544D01*
X95613831Y-79063084D01*
X95608388Y-79065978D01*
X95531740Y-79106731D01*
X95530574Y-79107343D01*
X95453547Y-79147271D01*
X95448074Y-79150108D01*
X95443911Y-79153431D01*
X95439204Y-79155934D01*
X95367082Y-79214755D01*
X95366226Y-79215446D01*
X95327027Y-79246738D01*
X95324523Y-79249242D01*
X95323805Y-79249884D01*
X95319472Y-79253585D01*
X95285938Y-79280935D01*
X95282011Y-79285682D01*
X95282009Y-79285684D01*
X95256713Y-79316262D01*
X95248723Y-79325042D01*
X94080621Y-80493145D01*
X94070478Y-80502247D01*
X94040975Y-80525968D01*
X94037008Y-80530696D01*
X94008709Y-80564421D01*
X94005528Y-80568069D01*
X94003885Y-80569881D01*
X94001691Y-80572075D01*
X93974358Y-80605349D01*
X93973696Y-80606147D01*
X93913846Y-80677474D01*
X93911278Y-80682144D01*
X93907897Y-80686261D01*
X93880137Y-80738033D01*
X93864023Y-80768086D01*
X93863394Y-80769245D01*
X93821538Y-80845381D01*
X93821535Y-80845389D01*
X93818567Y-80850787D01*
X93816955Y-80855869D01*
X93814438Y-80860563D01*
X93787238Y-80949531D01*
X93786918Y-80950559D01*
X93758765Y-81039306D01*
X93758171Y-81044602D01*
X93756613Y-81049698D01*
X93747430Y-81140104D01*
X93747218Y-81142187D01*
X93747089Y-81143393D01*
X93741500Y-81193227D01*
X93741500Y-81196754D01*
X93741445Y-81197739D01*
X93740998Y-81203419D01*
X93736626Y-81246462D01*
X93737206Y-81252593D01*
X93740941Y-81292109D01*
X93741500Y-81303967D01*
X93741500Y-91677126D01*
X93721498Y-91745247D01*
X93667842Y-91791740D01*
X93597568Y-91801844D01*
X93539935Y-91777952D01*
X93509005Y-91754771D01*
X93509003Y-91754770D01*
X93501818Y-91749385D01*
X93365429Y-91698255D01*
X93303247Y-91691500D01*
X91606979Y-91691500D01*
X91544797Y-91698255D01*
X91408408Y-91749385D01*
X91291852Y-91836739D01*
X91204498Y-91953295D01*
X91153368Y-92089684D01*
X91151422Y-92088954D01*
X91121568Y-92141205D01*
X91058610Y-92174021D01*
X90987906Y-92167591D01*
X90945113Y-92139502D01*
X90799413Y-91993802D01*
X90794905Y-91990645D01*
X90794902Y-91990643D01*
X90684006Y-91912993D01*
X90611862Y-91862477D01*
X90606880Y-91860154D01*
X90606875Y-91860151D01*
X90409338Y-91768039D01*
X90409337Y-91768039D01*
X90404356Y-91765716D01*
X90399048Y-91764294D01*
X90399046Y-91764293D01*
X90188515Y-91707881D01*
X90188513Y-91707881D01*
X90183200Y-91706457D01*
X89955113Y-91686502D01*
X89727026Y-91706457D01*
X89721713Y-91707881D01*
X89721711Y-91707881D01*
X89511180Y-91764293D01*
X89511178Y-91764294D01*
X89505870Y-91765716D01*
X89500889Y-91768039D01*
X89500888Y-91768039D01*
X89303351Y-91860151D01*
X89303346Y-91860154D01*
X89298364Y-91862477D01*
X89226220Y-91912993D01*
X89115324Y-91990643D01*
X89115321Y-91990645D01*
X89110813Y-91993802D01*
X88948915Y-92155700D01*
X88945758Y-92160208D01*
X88945756Y-92160211D01*
X88891448Y-92237771D01*
X88835991Y-92282099D01*
X88788235Y-92291500D01*
X88278912Y-92291500D01*
X88270342Y-92291208D01*
X88220224Y-92287791D01*
X88220220Y-92287791D01*
X88212648Y-92287275D01*
X88205171Y-92288580D01*
X88205170Y-92288580D01*
X88190113Y-92291208D01*
X88149703Y-92298261D01*
X88143186Y-92299222D01*
X88079758Y-92306898D01*
X88072650Y-92309584D01*
X88070056Y-92310221D01*
X88053750Y-92314682D01*
X88051199Y-92315452D01*
X88043716Y-92316758D01*
X88036764Y-92319810D01*
X88036763Y-92319810D01*
X87985212Y-92342439D01*
X87979105Y-92344931D01*
X87926452Y-92364827D01*
X87919344Y-92367513D01*
X87913083Y-92371816D01*
X87910717Y-92373053D01*
X87895937Y-92381280D01*
X87893652Y-92382631D01*
X87886695Y-92385685D01*
X87880675Y-92390305D01*
X87880669Y-92390308D01*
X87849542Y-92414194D01*
X87835998Y-92424587D01*
X87830668Y-92428459D01*
X87784280Y-92460339D01*
X87784275Y-92460344D01*
X87778019Y-92464643D01*
X87772968Y-92470313D01*
X87772966Y-92470314D01*
X87736565Y-92511170D01*
X87731584Y-92516446D01*
X83517480Y-96730550D01*
X83455168Y-96764576D01*
X83384353Y-96759511D01*
X83367691Y-96751873D01*
X83320179Y-96725753D01*
X83316510Y-96724300D01*
X83316505Y-96724298D01*
X83030372Y-96611010D01*
X83030371Y-96611010D01*
X83026702Y-96609557D01*
X82720975Y-96531060D01*
X82407821Y-96491500D01*
X82092179Y-96491500D01*
X81779025Y-96531060D01*
X81473298Y-96609557D01*
X81469629Y-96611010D01*
X81469628Y-96611010D01*
X81183495Y-96724298D01*
X81183490Y-96724300D01*
X81179821Y-96725753D01*
X81176353Y-96727659D01*
X81176352Y-96727660D01*
X81008262Y-96820069D01*
X80903221Y-96877816D01*
X80647860Y-97063346D01*
X80456999Y-97242577D01*
X80423520Y-97274016D01*
X80417767Y-97279418D01*
X80216568Y-97522625D01*
X80047438Y-97789131D01*
X80045754Y-97792710D01*
X80045750Y-97792717D01*
X79914733Y-98071144D01*
X79913044Y-98074734D01*
X79815505Y-98374928D01*
X79756359Y-98684980D01*
X79736540Y-99000000D01*
X75508500Y-99000000D01*
X75508500Y-78384500D01*
X75528502Y-78316379D01*
X75582158Y-78269886D01*
X75634500Y-78258500D01*
X124365500Y-78258500D01*
X124433621Y-78278502D01*
G37*
%TD.AperFunction*%
M02*
